<svg width="23" height="16" viewBox="0 0 23 16" fill="none" xmlns="http://www.w3.org/2000/svg">
<path d="M1 9C0.447715 9 0 8.55228 0 8C0 7.44772 0.447715 7 1 7L1 9ZM21.8717 7.29289C22.2622 7.68342 22.2622 8.31658 21.8717 8.70711L15.5077 15.0711C15.1172 15.4616 14.484 15.4616 14.0935 15.0711C13.703 14.6805 13.703 14.0474 14.0935 13.6569L19.7503 8L14.0935 2.34315C13.703 1.95262 13.703 1.31946 14.0935 0.928932C14.484 0.538408 15.1172 0.538408 15.5077 0.928932L21.8717 7.29289ZM1 7L21.1646 7V9L1 9L1 7Z" fill="#6C6DB0"/>
</svg>
