<svg width="23" height="16" viewBox="0 0 23 16" fill="none" xmlns="http://www.w3.org/2000/svg">
<path d="M22 9C22.5523 9 23 8.55228 23 8C23 7.44772 22.5523 7 22 7V9ZM1.12834 7.29289C0.737812 7.68342 0.737812 8.31658 1.12834 8.70711L7.4923 15.0711C7.88282 15.4616 8.51599 15.4616 8.90651 15.0711C9.29704 14.6805 9.29704 14.0474 8.90651 13.6569L3.24966 8L8.90651 2.34315C9.29704 1.95262 9.29704 1.31946 8.90651 0.928932C8.51599 0.538408 7.88282 0.538408 7.4923 0.928932L1.12834 7.29289ZM22 7L1.83544 7V9L22 9V7Z" fill="#6C6DB0"/>
</svg>
