<svg width="10" height="14" viewBox="0 0 10 14" fill="none" xmlns="http://www.w3.org/2000/svg">
<path d="M0.119629 3.08964V11.1443C0.119629 12.5369 2.22722 13.6292 4.91839 13.6292C7.60956 13.6292 9.71659 12.5374 9.71659 11.1443V3.08964C9.71659 1.69707 7.60901 0.604736 4.91839 0.604736C2.22777 0.604736 0.119629 1.69707 0.119629 3.08964ZM0.744384 7.01447C1.56184 7.76367 3.10506 8.25943 4.91674 8.25943C6.72842 8.25943 8.27274 7.76367 9.0891 7.01447V8.4594C9.0891 9.33505 7.37513 10.311 4.91674 10.311C2.45834 10.311 0.744384 9.33505 0.744384 8.4594V7.01447ZM4.91674 7.6272C2.4567 7.6272 0.744384 6.65129 0.744384 5.77564V4.33015C1.56184 5.07935 3.10506 5.57566 4.91674 5.57566C6.72842 5.57566 8.27274 5.07935 9.0891 4.33015V5.77508C9.09184 6.65073 7.37788 7.62665 4.91839 7.62665L4.91674 7.6272ZM4.91674 12.997C2.4567 12.997 0.744384 12.021 0.744384 11.1454V9.69991C1.56184 10.4491 3.10506 10.9449 4.91674 10.9449C6.72842 10.9449 8.27274 10.4491 9.0891 9.69991V11.1448C9.09184 12.0205 7.37788 12.9964 4.91839 12.9964L4.91674 12.997ZM4.91674 1.23919C7.37623 1.23919 9.0891 2.21511 9.0891 3.09076C9.0891 3.96641 7.37513 4.94232 4.91674 4.94232C2.45834 4.94232 0.744384 3.96641 0.744384 3.09076C0.744384 2.21511 2.45834 1.23864 4.91839 1.23864L4.91674 1.23919Z" fill="#687086"/>
</svg>
