<svg width="61" height="45" viewBox="0 0 61 45" fill="none" xmlns="http://www.w3.org/2000/svg">
<path d="M56.9168 44.25H3.83091C2.81685 44.2488 1.84453 43.8453 1.12662 43.1279C0.408716 42.4104 0.0036426 41.4374 0 40.4216V3.83991C0.00060768 2.82208 0.40435 1.84609 1.12258 1.12616C1.84082 0.40623 2.81487 0.00121877 3.83091 0H56.9168C57.9331 0.00121775 58.9073 0.406155 59.6259 1.12602C60.3445 1.84588 60.7488 2.82187 60.75 3.83991V40.4216C60.7458 41.4376 60.3402 42.4107 59.6219 43.128C58.9036 43.8454 57.9311 44.2488 56.9168 44.25ZM3.83091 1.74625C3.27679 1.74686 2.74554 1.96763 2.35372 2.36013C1.96191 2.75264 1.74151 3.28482 1.7409 3.83991V40.4216C1.74151 40.9767 1.96191 41.5088 2.35372 41.9014C2.74554 42.2939 3.27679 42.5146 3.83091 42.5152H56.9168C57.4709 42.5146 58.0022 42.2939 58.394 41.9014C58.7858 41.5088 59.0062 40.9767 59.0068 40.4216V3.83991C59.0062 3.28482 58.7858 2.75264 58.394 2.36013C58.0022 1.96763 57.4709 1.74686 56.9168 1.74625H3.83091Z" fill="url(#paint0_linear_1_325)"/>
<path d="M59.8796 8.82791H0.870458C0.647034 8.81642 0.436545 8.7194 0.282461 8.55692C0.128378 8.39444 0.0424603 8.17889 0.0424603 7.95478C0.0424603 7.73066 0.128378 7.51511 0.282461 7.35263C0.436545 7.19015 0.647034 7.09313 0.870458 7.08164H59.8796C60.103 7.09313 60.3135 7.19015 60.4675 7.35263C60.6216 7.51511 60.7075 7.73066 60.7075 7.95478C60.7075 8.17889 60.6216 8.39444 60.4675 8.55692C60.3135 8.7194 60.103 8.81642 59.8796 8.82791Z" fill="url(#paint1_linear_1_325)"/>
<path d="M47.7874 36.9705C47.5566 36.9705 47.3352 36.8786 47.1719 36.7151C47.0087 36.5515 46.917 36.3298 46.917 36.0985V33.6643C46.917 33.6022 46.9047 33.5407 46.8809 33.4833C46.8571 33.4259 46.8222 33.3738 46.7783 33.33C46.7343 33.2862 46.6821 33.2515 46.6247 33.2279C46.5673 33.2043 46.5059 33.1924 46.4439 33.1927H44.239C44.0478 33.1924 43.862 33.1292 43.7101 33.0128C43.5583 32.8964 43.4488 32.7333 43.3984 32.5485C43.0989 31.4397 42.6582 30.3741 42.087 29.3781C41.9921 29.2116 41.9544 29.0186 41.9797 28.8286C42.005 28.6386 42.092 28.4623 42.2271 28.3266L43.7889 26.7621C43.8326 26.7183 43.8673 26.6663 43.891 26.6091C43.9147 26.5518 43.9269 26.4905 43.9269 26.4285C43.9269 26.3666 43.9147 26.3052 43.891 26.248C43.8673 26.1907 43.8326 26.1387 43.7889 26.0949L40.3438 22.6438C40.2541 22.558 40.1348 22.5101 40.0108 22.5101C39.8868 22.5101 39.7675 22.558 39.6778 22.6438L38.116 24.2083C37.9804 24.3434 37.8044 24.4302 37.6148 24.4556C37.4253 24.4809 37.2327 24.4434 37.0664 24.3487C36.0743 23.777 35.013 23.3355 33.9085 23.0349C33.724 22.9845 33.5612 22.8748 33.445 22.7227C33.3288 22.5706 33.2657 22.3844 33.2654 22.1929V19.9842C33.2657 19.922 33.2537 19.8605 33.2302 19.803C33.2067 19.7455 33.1721 19.6932 33.1283 19.6492C33.0846 19.6051 33.0326 19.5702 32.9753 19.5463C32.918 19.5225 32.8566 19.5102 32.7946 19.5102H27.9462C27.8208 19.5102 27.7004 19.5601 27.6117 19.649C27.523 19.7379 27.4731 19.8585 27.4731 19.9842V22.1929C27.4728 22.3844 27.4097 22.5706 27.2935 22.7227C27.1774 22.8748 27.0145 22.9845 26.83 23.0349C25.7256 23.3355 24.6642 23.777 23.6721 24.3487C23.5058 24.443 23.3132 24.4803 23.1238 24.455C22.9343 24.4297 22.7583 24.343 22.6225 24.2083L21.063 22.6438C20.9729 22.5579 20.8533 22.5099 20.7289 22.5099C20.6044 22.5099 20.4848 22.5579 20.3947 22.6438L16.9497 26.0949C16.9059 26.1387 16.8712 26.1907 16.8475 26.248C16.8238 26.3052 16.8116 26.3666 16.8116 26.4285C16.8116 26.4905 16.8238 26.5518 16.8475 26.6091C16.8712 26.6663 16.9059 26.7183 16.9497 26.7621L18.5114 28.3266C18.6466 28.4623 18.7335 28.6386 18.7588 28.8286C18.7841 29.0186 18.7464 29.2116 18.6515 29.3781C18.0819 30.3724 17.6411 31.4355 17.3401 32.5416C17.2901 32.7266 17.1807 32.8899 17.0288 33.0063C16.8768 33.1228 16.6908 33.1859 16.4995 33.1858H14.2947C14.1718 33.1888 14.055 33.2398 13.9691 33.3279C13.8833 33.416 13.8353 33.5343 13.8353 33.6574V36.0916C13.8239 36.3154 13.727 36.5263 13.5648 36.6806C13.4026 36.835 13.1874 36.921 12.9637 36.921C12.74 36.921 12.5248 36.835 12.3626 36.6806C12.2004 36.5263 12.1036 36.3154 12.0921 36.0916V33.6574C12.0927 33.0694 12.3262 32.5056 12.7413 32.0898C13.1563 31.674 13.7191 31.4401 14.3061 31.4395H15.861C16.1187 30.634 16.4429 29.8513 16.8302 29.0997L15.7301 27.9976C15.3155 27.581 15.0827 27.0168 15.0827 26.4285C15.0827 25.8403 15.3155 25.276 15.7301 24.8594L19.1752 21.4083C19.3804 21.2019 19.6243 21.0381 19.8929 20.9264C20.1615 20.8147 20.4495 20.7571 20.7404 20.7571C21.0312 20.7571 21.3192 20.8147 21.5878 20.9264C21.8563 21.0381 22.1003 21.2019 22.3055 21.4083L23.4057 22.5104C24.1566 22.122 24.9387 21.7972 25.7437 21.5395V19.9819C25.7443 19.3938 25.9778 18.83 26.3929 18.4142C26.8079 17.9984 27.3707 17.7646 27.9577 17.764H32.8152C33.4023 17.7646 33.965 17.9984 34.3801 18.4142C34.7952 18.83 35.0287 19.3938 35.0293 19.9819V21.5556C35.8334 21.8137 36.6146 22.1385 37.365 22.5265L38.4674 21.4244C38.6727 21.218 38.9166 21.0543 39.1852 20.9425C39.4538 20.8308 39.7418 20.7732 40.0326 20.7732C40.3235 20.7732 40.6114 20.8308 40.88 20.9425C41.1486 21.0543 41.3926 21.218 41.5978 21.4244L45.0429 24.8755C45.249 25.0814 45.4125 25.3259 45.5241 25.5952C45.6357 25.8644 45.6931 26.1531 45.6931 26.4446C45.6931 26.7362 45.6357 27.0248 45.5241 27.2941C45.4125 27.5633 45.249 27.8079 45.0429 28.0137L43.9428 29.1158C44.3218 29.866 44.6383 30.6463 44.889 31.4487H46.4439C47.0309 31.4493 47.5937 31.6832 48.0087 32.099C48.4238 32.5148 48.6573 33.0786 48.6579 33.6666V36.1008C48.6573 36.3317 48.5653 36.5529 48.4021 36.7159C48.2389 36.8789 48.0179 36.9705 47.7874 36.9705Z" fill="url(#paint2_linear_1_325)"/>
<path d="M38.6695 36.9705C38.4387 36.9705 38.2173 36.8786 38.054 36.7151C37.8908 36.5515 37.7991 36.3298 37.7991 36.0985C37.7991 34.1257 37.0168 32.2338 35.6243 30.8388C34.2318 29.4439 32.3431 28.6602 30.3738 28.6602C28.4046 28.6602 26.5159 29.4439 25.1234 30.8388C23.7309 32.2338 22.9486 34.1257 22.9486 36.0985C22.9486 36.3298 22.8569 36.5515 22.6937 36.7151C22.5304 36.8786 22.309 36.9705 22.0782 36.9705C21.8473 36.9705 21.6259 36.8786 21.4627 36.7151C21.2994 36.5515 21.2077 36.3298 21.2077 36.0985C21.2077 33.6632 22.1734 31.3277 23.8924 29.6057C25.6114 27.8837 27.9428 26.9163 30.3738 26.9163C32.8049 26.9163 35.1363 27.8837 36.8553 29.6057C38.5743 31.3277 39.54 33.6632 39.54 36.0985C39.54 36.3298 39.4483 36.5515 39.285 36.7151C39.1218 36.8786 38.9004 36.9705 38.6695 36.9705Z" fill="url(#paint3_linear_1_325)"/>
<path d="M51.8733 36.9705H8.87445C8.76014 36.9705 8.64695 36.9479 8.54134 36.9041C8.43573 36.8603 8.33978 36.796 8.25895 36.7151C8.17812 36.6341 8.11401 36.538 8.07027 36.4322C8.02652 36.3264 8.00401 36.213 8.00401 36.0985C8.00401 35.984 8.02652 35.8706 8.07027 35.7648C8.11401 35.659 8.17812 35.5629 8.25895 35.4819C8.33978 35.4009 8.43573 35.3367 8.54134 35.2929C8.64695 35.2491 8.76014 35.2265 8.87445 35.2265H51.8733C52.1041 35.2265 52.3255 35.3184 52.4888 35.4819C52.652 35.6454 52.7437 35.8672 52.7437 36.0985C52.7437 36.3298 52.652 36.5515 52.4888 36.7151C52.3255 36.8786 52.1041 36.9705 51.8733 36.9705Z" fill="url(#paint4_linear_1_325)"/>
<defs>
<linearGradient id="paint0_linear_1_325" x1="30.375" y1="7.83307" x2="30.375" y2="34.0807" gradientUnits="userSpaceOnUse">
<stop stop-color="#8D39D1"/>
<stop offset="1" stop-color="#3F127B"/>
</linearGradient>
<linearGradient id="paint1_linear_1_325" x1="30.375" y1="7.83307" x2="30.375" y2="34.0807" gradientUnits="userSpaceOnUse">
<stop stop-color="#8D39D1"/>
<stop offset="1" stop-color="#3F127B"/>
</linearGradient>
<linearGradient id="paint2_linear_1_325" x1="30.375" y1="7.83307" x2="30.375" y2="34.0807" gradientUnits="userSpaceOnUse">
<stop stop-color="#8D39D1"/>
<stop offset="1" stop-color="#3F127B"/>
</linearGradient>
<linearGradient id="paint3_linear_1_325" x1="30.375" y1="7.83307" x2="30.375" y2="34.0807" gradientUnits="userSpaceOnUse">
<stop stop-color="#8D39D1"/>
<stop offset="1" stop-color="#3F127B"/>
</linearGradient>
<linearGradient id="paint4_linear_1_325" x1="30.375" y1="7.83307" x2="30.375" y2="34.0807" gradientUnits="userSpaceOnUse">
<stop stop-color="#8D39D1"/>
<stop offset="1" stop-color="#3F127B"/>
</linearGradient>
</defs>
</svg>
