<svg width="55" height="39" viewBox="0 0 55 39" fill="none" xmlns="http://www.w3.org/2000/svg">
<path fill-rule="evenodd" clip-rule="evenodd" d="M49.9891 38.087H4.76087C2.13168 38.087 0 35.9553 0 33.3261V4.76087C0 2.13168 2.13168 0 4.76087 0H49.9891C52.6183 0 54.75 2.13168 54.75 4.76087V33.3261C54.75 35.9553 52.6183 38.087 49.9891 38.087ZM1.63043 16.2228H53.1196V10.712H1.63043V16.2228ZM53.1196 4.76087C53.1196 3.44687 51.3031 1.63043 49.9891 1.63043H4.76087C3.44687 1.63043 1.63043 3.44687 1.63043 4.76087V9.08152H53.1196V4.76087ZM53.1196 17.8533H1.63043V33.3261C1.63043 34.6401 3.44687 36.4565 4.76087 36.4565H49.9891C51.3031 36.4565 53.1196 34.6401 53.1196 33.3261V17.8533ZM29.7554 24.75H24.9946C24.3364 24.75 23.8043 24.4625 23.8043 23.8043C23.8043 23.1473 24.3364 22.875 24.9946 22.875H29.7554C30.4136 22.875 30.9457 23.1473 30.9457 23.8043C30.9457 24.4625 30.4136 24.75 29.7554 24.75ZM19.125 24.75H8.25C7.59181 24.75 7.1413 24.4625 7.1413 23.8043C7.1413 23.1473 7.59181 22.875 8.25 22.875H19.125C19.7832 22.875 20.2337 23.1473 20.2337 23.8043C20.2337 24.4625 19.7832 24.75 19.125 24.75ZM8.25 28.875H15.4728C16.131 28.875 16.663 29.0984 16.663 29.7554C16.663 30.4136 16.131 30.75 15.4728 30.75H8.25C7.59181 30.75 7.1413 30.4136 7.1413 29.7554C7.1413 29.0984 7.59181 28.875 8.25 28.875Z" fill="url(#paint0_linear_1_724)"/>
<defs>
<linearGradient id="paint0_linear_1_724" x1="27.375" y1="6.7421" x2="27.375" y2="29.3341" gradientUnits="userSpaceOnUse">
<stop stop-color="#8D39D1"/>
<stop offset="1" stop-color="#3F127B"/>
</linearGradient>
</defs>
</svg>
