<svg width="41" height="52" viewBox="0 0 41 52" fill="none" xmlns="http://www.w3.org/2000/svg">
<path d="M35.0348 10.736H31.2414C31.003 10.736 30.7745 10.6406 30.606 10.4707C30.4375 10.3009 30.3428 10.0705 30.3428 9.83035V0.905625C30.3428 0.665441 30.4375 0.435094 30.606 0.265259C30.7745 0.0954228 31.003 0 31.2414 0C31.4797 0 31.7082 0.0954228 31.8767 0.265259C32.0453 0.435094 32.1399 0.665441 32.1399 0.905625V8.92236H35.0277C35.2583 8.9343 35.4756 9.03503 35.6347 9.20378C35.7937 9.37253 35.8824 9.5964 35.8824 9.82915C35.8824 10.0619 35.7937 10.2858 35.6347 10.4545C35.4756 10.6233 35.2583 10.724 35.0277 10.736H35.0348Z" fill="url(#paint0_linear_1_710)"/>
<path d="M40.1038 52H0.898581C0.660047 51.9994 0.431498 51.9034 0.263051 51.7332C0.0946037 51.563 -8.25947e-07 51.3324 0 51.092V0.912801C0 0.672617 0.0946806 0.44227 0.263195 0.272435C0.43171 0.102599 0.660265 0.00717604 0.898581 0.00717604H31.2461C31.3641 0.00704156 31.481 0.0304101 31.59 0.0759263C31.6991 0.121442 31.7982 0.188206 31.8815 0.272406L40.7368 9.19713C40.8204 9.28115 40.8866 9.38099 40.9318 9.49089C40.9769 9.60078 41.0001 9.71858 41 9.83753V51.092C41.0003 51.2109 40.9774 51.3287 40.9325 51.4387C40.8876 51.5487 40.8217 51.6488 40.7385 51.7331C40.6553 51.8174 40.5564 51.8844 40.4475 51.9302C40.3386 51.976 40.2218 51.9997 40.1038 52ZM1.79716 50.1864H39.2052V10.2055L30.8763 1.81125H1.79716V50.1864Z" fill="url(#paint1_linear_1_710)"/>
<path d="M14.7494 31.46H9.21569C8.51247 31.4594 7.83828 31.1774 7.34125 30.676C6.84423 30.1746 6.56504 29.4949 6.56504 28.7862V23.2115C6.56567 22.5032 6.84513 21.824 7.34209 21.3232C7.83905 20.8223 8.51288 20.5407 9.21569 20.54H14.4744C14.5924 20.54 14.7092 20.5635 14.8182 20.609C14.9272 20.6545 15.0263 20.7212 15.1097 20.8053C15.1932 20.8894 15.2594 20.9892 15.3045 21.0991C15.3497 21.209 15.3729 21.3267 15.3729 21.4456C15.3729 21.5646 15.3497 21.6823 15.3045 21.7922C15.2594 21.9021 15.1932 22.0019 15.1097 22.086C15.0263 22.1701 14.9272 22.2368 14.8182 22.2823C14.7092 22.3279 14.5924 22.3513 14.4744 22.3513H9.21806C8.99189 22.3519 8.77517 22.4427 8.61524 22.6039C8.45531 22.7651 8.36517 22.9835 8.36454 23.2115V28.7862C8.36454 29.0143 8.45448 29.2331 8.61454 29.3944C8.77461 29.5557 8.99169 29.6464 9.21806 29.6464H14.7518C14.9777 29.6457 15.1942 29.5548 15.3538 29.3936C15.5133 29.2323 15.6029 29.0139 15.6029 28.7862V27.7754C15.6148 27.5429 15.7147 27.324 15.8821 27.1637C16.0496 27.0034 16.2717 26.914 16.5027 26.914C16.7336 26.914 16.9557 27.0034 17.1232 27.1637C17.2906 27.324 17.3906 27.5429 17.4024 27.7754V28.7862C17.4018 29.4951 17.1221 30.1748 16.6247 30.6761C16.1273 31.1774 15.4528 31.4594 14.7494 31.46Z" fill="url(#paint2_linear_1_710)"/>
<path d="M12.3216 28.552H12.2742C12.1505 28.5449 12.0296 28.5121 11.919 28.4558C11.8085 28.3995 11.7107 28.3208 11.6317 28.2246L9.53104 25.6822C9.37855 25.4975 9.30513 25.2593 9.32691 25.02C9.3487 24.7807 9.46391 24.5599 9.64721 24.4062C9.83051 24.2525 10.0669 24.1785 10.3043 24.2005C10.5417 24.2224 10.7608 24.3386 10.9133 24.5233L12.3927 26.313L16.5015 22.2844C16.6725 22.1167 16.9026 22.0245 17.1412 22.0278C17.3797 22.0312 17.6072 22.1299 17.7735 22.3023C17.9398 22.4747 18.0314 22.7066 18.028 22.947C18.0247 23.1874 17.9267 23.4166 17.7557 23.5842L12.9499 28.2963C12.7814 28.4607 12.5561 28.5524 12.3216 28.552Z" fill="url(#paint3_linear_1_710)"/>
<path d="M14.7494 17.3357H9.21569C8.51288 17.3351 7.83905 17.0534 7.34209 16.5526C6.84513 16.0517 6.56567 15.3726 6.56504 14.6643V9.08962C6.56567 8.3813 6.84513 7.70219 7.34209 7.20133C7.83905 6.70048 8.51288 6.41879 9.21569 6.41816H14.4744C14.7127 6.41816 14.9412 6.51358 15.1097 6.68342C15.2783 6.85325 15.3729 7.0836 15.3729 7.32378C15.3729 7.56397 15.2783 7.79431 15.1097 7.96415C14.9412 8.13398 14.7127 8.22941 14.4744 8.22941H9.21806C8.99169 8.22941 8.77461 8.32004 8.61454 8.48136C8.45448 8.64269 8.36454 8.86147 8.36454 9.08962V14.6762C8.36454 14.9044 8.45448 15.1232 8.61454 15.2845C8.77461 15.4458 8.99169 15.5364 9.21806 15.5364H14.7518C14.9777 15.5358 15.1942 15.4449 15.3538 15.2837C15.5133 15.1224 15.6029 14.904 15.6029 14.6762V13.6655C15.6148 13.433 15.7147 13.214 15.8821 13.0537C16.0496 12.8934 16.2717 12.8041 16.5027 12.8041C16.7336 12.8041 16.9557 12.8934 17.1232 13.0537C17.2906 13.214 17.3906 13.433 17.4024 13.6655V14.6762C17.3987 15.3829 17.1175 16.0593 16.6204 16.5577C16.1232 17.056 15.4506 17.3357 14.7494 17.3357Z" fill="url(#paint4_linear_1_710)"/>
<path d="M12.3216 14.4373H12.2742C12.1506 14.4307 12.0297 14.3985 11.9192 14.3426C11.8086 14.2866 11.7107 14.2082 11.6317 14.1123L9.53104 11.5699C9.45553 11.4784 9.39863 11.3728 9.36361 11.2592C9.32859 11.1456 9.31612 11.0261 9.32691 10.9076C9.3377 10.7892 9.37154 10.674 9.4265 10.5687C9.48146 10.4634 9.55645 10.37 9.64721 10.2939C9.73797 10.2178 9.84269 10.1605 9.95544 10.1252C10.0682 10.0899 10.1867 10.0773 10.3043 10.0882C10.4219 10.0991 10.5361 10.1332 10.6406 10.1886C10.7451 10.2439 10.8378 10.3195 10.9133 10.411L12.3927 12.2007L16.5015 8.17205C16.586 8.08905 16.6859 8.02364 16.7955 7.97957C16.9052 7.93549 17.0223 7.91361 17.1403 7.91516C17.2583 7.91672 17.3749 7.94166 17.4833 7.98861C17.5917 8.03556 17.6899 8.10357 17.7723 8.18876C17.8546 8.27396 17.9195 8.37467 17.9633 8.48514C18.007 8.59562 18.0287 8.7137 18.0272 8.83263C18.0256 8.95156 18.0009 9.06899 17.9543 9.17828C17.9077 9.28756 17.8402 9.38653 17.7557 9.46952L12.9499 14.1816C12.7813 14.3458 12.556 14.4374 12.3216 14.4373Z" fill="url(#paint5_linear_1_710)"/>
<path d="M14.7494 45.5818H9.21569C8.51288 45.5812 7.83905 45.2996 7.34209 44.7987C6.84513 44.2978 6.56567 43.6187 6.56504 42.9104V37.3333C6.56567 36.625 6.84513 35.9459 7.34209 35.445C7.83905 34.9442 8.51288 34.6625 9.21569 34.6619H14.4744C14.5924 34.6619 14.7092 34.6853 14.8182 34.7308C14.9272 34.7763 15.0263 34.8431 15.1097 34.9272C15.1932 35.0113 15.2594 35.1111 15.3045 35.2209C15.3497 35.3308 15.3729 35.4486 15.3729 35.5675C15.3729 35.6865 15.3497 35.8042 15.3045 35.9141C15.2594 36.024 15.1932 36.1238 15.1097 36.2079C15.0263 36.292 14.9272 36.3587 14.8182 36.4042C14.7092 36.4497 14.5924 36.4731 14.4744 36.4731H9.21806C8.99189 36.4738 8.77517 36.5646 8.61524 36.7258C8.45531 36.887 8.36517 37.1054 8.36454 37.3333V42.9104C8.36517 43.1384 8.45531 43.3568 8.61524 43.518C8.77517 43.6791 8.99189 43.77 9.21806 43.7706H14.7518C14.9777 43.77 15.1942 43.6791 15.3538 43.5178C15.5133 43.3566 15.6029 43.1381 15.6029 42.9104V41.8997C15.6148 41.6672 15.7147 41.4482 15.8821 41.2879C16.0496 41.1276 16.2717 41.0382 16.5027 41.0382C16.7336 41.0382 16.9557 41.1276 17.1232 41.2879C17.2906 41.4482 17.3906 41.6672 17.4024 41.8997V42.9104C17.4012 43.619 17.1212 44.2981 16.6238 44.7988C16.1265 45.2996 15.4524 45.5812 14.7494 45.5818Z" fill="url(#paint6_linear_1_710)"/>
<path d="M12.3216 42.6738H12.2742C12.1507 42.6667 12.03 42.6342 11.9195 42.5783C11.809 42.5225 11.7111 42.4444 11.6317 42.3489L9.53104 39.8041C9.45553 39.7126 9.39863 39.607 9.36361 39.4934C9.32859 39.3798 9.31612 39.2603 9.32691 39.1418C9.3377 39.0233 9.37154 38.9081 9.4265 38.8028C9.48146 38.6975 9.55645 38.6042 9.64721 38.5281C9.73797 38.452 9.84269 38.3947 9.95544 38.3594C10.0682 38.3241 10.1867 38.3115 10.3043 38.3224C10.4219 38.3332 10.5361 38.3673 10.6406 38.4227C10.7451 38.4781 10.8378 38.5537 10.9133 38.6452L12.3927 40.4373L16.5015 36.4086C16.586 36.3256 16.6859 36.2602 16.7955 36.2161C16.9052 36.172 17.0223 36.1501 17.1403 36.1517C17.2583 36.1533 17.3749 36.1782 17.4833 36.2252C17.5917 36.2721 17.6899 36.3401 17.7723 36.4253C17.8546 36.5105 17.9195 36.6112 17.9633 36.7217C18.007 36.8322 18.0287 36.9502 18.0272 37.0692C18.0256 37.1881 18.0009 37.3056 17.9543 37.4148C17.9077 37.5241 17.8402 37.6231 17.7557 37.7061L12.9499 42.4182C12.7814 42.5825 12.5561 42.6743 12.3216 42.6738Z" fill="url(#paint7_linear_1_710)"/>
<path d="M29.008 24.5496H21.7554C21.5171 24.5496 21.2885 24.4542 21.12 24.2844C20.9515 24.1145 20.8568 23.8842 20.8568 23.644C20.8568 23.4038 20.9515 23.1735 21.12 23.0036C21.2885 22.8338 21.5171 22.7384 21.7554 22.7384H29.008C29.2463 22.7384 29.4749 22.8338 29.6434 23.0036C29.8119 23.1735 29.9065 23.4038 29.9065 23.644C29.9065 23.8842 29.8119 24.1145 29.6434 24.2844C29.4749 24.4542 29.2463 24.5496 29.008 24.5496Z" fill="url(#paint8_linear_1_710)"/>
<path d="M34.5203 29.2521H21.7554C21.5247 29.2402 21.3075 29.1394 21.1484 28.9707C20.9893 28.8019 20.9007 28.578 20.9007 28.3453C20.9007 28.1125 20.9893 27.8887 21.1484 27.7199C21.3075 27.5512 21.5247 27.4504 21.7554 27.4385H34.5203C34.751 27.4504 34.9683 27.5512 35.1273 27.7199C35.2864 27.8887 35.3751 28.1125 35.3751 28.3453C35.3751 28.578 35.2864 28.8019 35.1273 28.9707C34.9683 29.1394 34.751 29.2402 34.5203 29.2521Z" fill="url(#paint9_linear_1_710)"/>
<path d="M29.008 38.6715H21.7554C21.5171 38.6715 21.2885 38.576 21.12 38.4062C20.9515 38.2364 20.8568 38.006 20.8568 37.7658C20.8568 37.5257 20.9515 37.2953 21.12 37.1255C21.2885 36.9556 21.5171 36.8602 21.7554 36.8602H29.008C29.2463 36.8602 29.4749 36.9556 29.6434 37.1255C29.8119 37.2953 29.9065 37.5257 29.9065 37.7658C29.9065 38.006 29.8119 38.2364 29.6434 38.4062C29.4749 38.576 29.2463 38.6715 29.008 38.6715Z" fill="url(#paint10_linear_1_710)"/>
<path d="M34.5203 43.3835H21.7554C21.5171 43.3835 21.2885 43.2881 21.12 43.1183C20.9515 42.9484 20.8568 42.7181 20.8568 42.4779C20.8568 42.2377 20.9515 42.0074 21.12 41.8375C21.2885 41.6677 21.5171 41.5723 21.7554 41.5723H34.5203C34.7587 41.5723 34.9872 41.6677 35.1557 41.8375C35.3242 42.0074 35.4189 42.2377 35.4189 42.4779C35.4189 42.7181 35.3242 42.9484 35.1557 43.1183C34.9872 43.2881 34.7587 43.3835 34.5203 43.3835Z" fill="url(#paint11_linear_1_710)"/>
<defs>
<linearGradient id="paint0_linear_1_710" x1="20.5" y1="9.20497" x2="20.5" y2="40.0497" gradientUnits="userSpaceOnUse">
<stop stop-color="#8D39D1"/>
<stop offset="1" stop-color="#3F127B"/>
</linearGradient>
<linearGradient id="paint1_linear_1_710" x1="20.5" y1="9.20497" x2="20.5" y2="40.0497" gradientUnits="userSpaceOnUse">
<stop stop-color="#8D39D1"/>
<stop offset="1" stop-color="#3F127B"/>
</linearGradient>
<linearGradient id="paint2_linear_1_710" x1="20.5" y1="9.20497" x2="20.5" y2="40.0497" gradientUnits="userSpaceOnUse">
<stop stop-color="#8D39D1"/>
<stop offset="1" stop-color="#3F127B"/>
</linearGradient>
<linearGradient id="paint3_linear_1_710" x1="20.5" y1="9.20497" x2="20.5" y2="40.0497" gradientUnits="userSpaceOnUse">
<stop stop-color="#8D39D1"/>
<stop offset="1" stop-color="#3F127B"/>
</linearGradient>
<linearGradient id="paint4_linear_1_710" x1="20.5" y1="9.20497" x2="20.5" y2="40.0497" gradientUnits="userSpaceOnUse">
<stop stop-color="#8D39D1"/>
<stop offset="1" stop-color="#3F127B"/>
</linearGradient>
<linearGradient id="paint5_linear_1_710" x1="20.5" y1="9.20497" x2="20.5" y2="40.0497" gradientUnits="userSpaceOnUse">
<stop stop-color="#8D39D1"/>
<stop offset="1" stop-color="#3F127B"/>
</linearGradient>
<linearGradient id="paint6_linear_1_710" x1="20.5" y1="9.20497" x2="20.5" y2="40.0497" gradientUnits="userSpaceOnUse">
<stop stop-color="#8D39D1"/>
<stop offset="1" stop-color="#3F127B"/>
</linearGradient>
<linearGradient id="paint7_linear_1_710" x1="20.5" y1="9.20497" x2="20.5" y2="40.0497" gradientUnits="userSpaceOnUse">
<stop stop-color="#8D39D1"/>
<stop offset="1" stop-color="#3F127B"/>
</linearGradient>
<linearGradient id="paint8_linear_1_710" x1="20.5" y1="9.20497" x2="20.5" y2="40.0497" gradientUnits="userSpaceOnUse">
<stop stop-color="#8D39D1"/>
<stop offset="1" stop-color="#3F127B"/>
</linearGradient>
<linearGradient id="paint9_linear_1_710" x1="20.5" y1="9.20497" x2="20.5" y2="40.0497" gradientUnits="userSpaceOnUse">
<stop stop-color="#8D39D1"/>
<stop offset="1" stop-color="#3F127B"/>
</linearGradient>
<linearGradient id="paint10_linear_1_710" x1="20.5" y1="9.20497" x2="20.5" y2="40.0497" gradientUnits="userSpaceOnUse">
<stop stop-color="#8D39D1"/>
<stop offset="1" stop-color="#3F127B"/>
</linearGradient>
<linearGradient id="paint11_linear_1_710" x1="20.5" y1="9.20497" x2="20.5" y2="40.0497" gradientUnits="userSpaceOnUse">
<stop stop-color="#8D39D1"/>
<stop offset="1" stop-color="#3F127B"/>
</linearGradient>
</defs>
</svg>
