<svg width="63" height="57" viewBox="0 0 63 57" fill="none" xmlns="http://www.w3.org/2000/svg">
<path d="M22.7495 49.9996H22.6674L11.7889 49.1008C11.5333 49.08 11.2965 48.9599 11.1301 48.7667C10.9638 48.5735 10.8815 48.323 10.9014 48.0699L11.3272 42.4076C11.3308 42.2771 11.3612 42.1487 11.4165 42.0301C11.4717 41.9116 11.5507 41.8053 11.6486 41.7179C11.7466 41.6304 11.8614 41.5635 11.9862 41.5213C12.111 41.4791 12.2432 41.4623 12.3747 41.4721C12.5063 41.4819 12.6344 41.5181 12.7514 41.5783C12.8684 41.6386 12.9719 41.7217 13.0555 41.8227C13.1391 41.9237 13.2011 42.0405 13.2378 42.1659C13.2745 42.2913 13.2851 42.4227 13.269 42.5523L12.9124 47.2599L22.8187 48.0775C23.0707 48.0955 23.3057 48.2098 23.4739 48.3963C23.6422 48.5828 23.7305 48.8269 23.7201 49.0767C23.7098 49.3265 23.6016 49.5626 23.4185 49.7349C23.2354 49.9071 22.9918 50.0021 22.7392 49.9996H22.7495Z" fill="url(#paint0_linear_1_321)"/>
<path d="M20.9257 56.9949H7.51038C5.59455 56.9965 3.75166 56.2678 2.36417 54.96C0.976687 53.6523 0.151148 51.8659 0.0588508 49.9717C-0.191535 44.9379 0.358092 39.8964 1.68766 35.0314L1.7441 34.8257C2.11948 33.4572 2.88435 32.2244 3.94762 31.2741C5.01088 30.3237 6.3277 29.696 7.74122 29.4656L18.258 27.7619C18.4748 27.726 18.6974 27.7646 18.889 27.8711L24.5322 30.9815L30.1753 27.8711C30.367 27.7646 30.5896 27.726 30.8063 27.7619L41.2257 29.4479C41.4801 29.4893 41.7075 29.629 41.8578 29.8364C42.0081 30.0438 42.0691 30.3018 42.0272 30.5537C41.9854 30.8055 41.8442 31.0306 41.6347 31.1794C41.4252 31.3282 41.1646 31.3885 40.9102 31.3471L30.8269 29.7196L25.0093 32.929C24.8646 33.0088 24.7017 33.0507 24.536 33.0507C24.3704 33.0507 24.2075 33.0088 24.0628 32.929L18.2478 29.7196L8.05674 31.37C7.01142 31.5403 6.0376 32.0044 5.25129 32.7071C4.46497 33.4099 3.89931 34.3216 3.62172 35.3336L3.5653 35.5367C2.28866 40.2082 1.76152 45.0493 2.00316 49.8828C2.07109 51.2828 2.68117 52.6032 3.7067 53.5696C4.73223 54.5361 6.09442 55.0744 7.51038 55.0728H20.9257C21.1752 55.0855 21.4103 55.1925 21.5824 55.3719C21.7545 55.5512 21.8504 55.7891 21.8504 56.0364C21.8504 56.2837 21.7545 56.5216 21.5824 56.7009C21.4103 56.8803 21.1752 56.9873 20.9257 57V56.9949Z" fill="url(#paint1_linear_1_321)"/>
<path d="M18.4248 29.6739C18.2936 29.6729 18.1639 29.647 18.0426 29.5977C17.9245 29.5479 17.8175 29.4755 17.7278 29.3847C17.638 29.2938 17.5673 29.1863 17.5197 29.0684C17.472 28.9504 17.4483 28.8243 17.45 28.6973C17.4517 28.5702 17.4787 28.4448 17.5295 28.3281L18.4068 26.2968C18.5088 26.0611 18.7013 25.8752 18.9418 25.78C19.1823 25.6847 19.4512 25.688 19.6893 25.789C19.9274 25.89 20.1153 26.0805 20.2115 26.3186C20.3077 26.5567 20.3044 26.8229 20.2023 27.0586L19.3225 29.0899C19.2477 29.264 19.1226 29.4123 18.9628 29.5162C18.8031 29.6201 18.6159 29.6749 18.4248 29.6739Z" fill="url(#paint2_linear_1_321)"/>
<path d="M30.6473 29.6739C30.4566 29.6744 30.27 29.6193 30.1108 29.5155C29.9515 29.4116 29.8268 29.2636 29.7521 29.0899L28.8723 27.0586C28.7702 26.8229 28.767 26.5567 28.8632 26.3186C28.9594 26.0805 29.1472 25.89 29.3853 25.789C29.6234 25.688 29.8923 25.6847 30.1328 25.78C30.3733 25.8752 30.5658 26.0611 30.6678 26.2968L31.5451 28.3281C31.5959 28.4448 31.6229 28.5702 31.6246 28.6973C31.6263 28.8243 31.6027 28.9504 31.555 29.0684C31.5073 29.1863 31.4366 29.2938 31.3469 29.3847C31.2571 29.4755 31.1501 29.5479 31.0321 29.5977C30.91 29.6473 30.7793 29.6732 30.6473 29.6739Z" fill="url(#paint3_linear_1_321)"/>
<path d="M24.5373 25.9667C19.6431 25.9667 16.6241 21.5588 15.4441 17.5876C14.0872 16.8639 13.9949 15.4293 13.959 14.8529L13.8692 13.4767C13.7845 12.1335 14.1616 11.161 14.9901 10.5745C14.9414 8.65999 15.0773 3.31004 18.0015 1.90336C18.0365 1.86882 18.0636 1.82725 18.081 1.78147C18.512 0.88516 19.184 0.349409 21.4823 0.0904178C24.386 -0.23967 28.408 0.318944 30.5088 2.01509L30.5909 2.08111C31.9247 3.16024 34.1307 4.94525 34.0742 10.5694C34.9079 11.1534 35.2875 12.1285 35.2003 13.4742L35.1131 14.8529C35.0772 15.4166 34.9874 16.8131 33.7049 17.547C32.5814 21.7061 29.629 25.9667 24.5373 25.9667ZM23.1214 1.93637C22.6484 1.9358 22.1756 1.96123 21.7055 2.01254C20.0382 2.20298 19.9099 2.46451 19.8355 2.6194C19.6491 3.07233 19.2975 3.43936 18.8506 3.64775C17.114 4.48312 16.8241 9.01294 16.9575 11.0773C16.9711 11.2796 16.9195 11.4809 16.8103 11.6524C16.7011 11.8239 16.5398 11.9568 16.3496 12.032C16.029 12.1589 15.7468 12.357 15.8109 13.365L15.893 14.7387C15.9546 15.7112 16.206 15.8661 16.5574 15.9829C16.7108 16.0339 16.849 16.1219 16.9596 16.2389C17.0702 16.3559 17.1497 16.4982 17.1909 16.6532C18.0913 20.0582 20.5563 24.037 24.5296 24.037C29.747 24.037 31.5066 18.3849 31.9196 16.6532C31.9574 16.4965 32.0342 16.3517 32.1431 16.2319C32.252 16.1122 32.3894 16.0213 32.5429 15.9676C32.8789 15.8508 33.1021 15.701 33.1636 14.7387L33.2534 13.3625C33.3176 12.3468 33.0354 12.1564 32.7173 12.0294C32.5312 11.9565 32.3724 11.8282 32.2631 11.6622C32.1537 11.4962 32.0991 11.3007 32.1068 11.1026C32.2966 5.96343 30.5242 4.52882 29.3519 3.57918L29.2699 3.51316C28.1028 2.56353 25.5428 1.93637 23.1214 1.93637Z" fill="url(#paint4_linear_1_321)"/>
<path d="M32.7738 8.13693C32.5547 8.137 32.342 8.06381 32.1702 7.92923C31.9984 7.79465 31.8775 7.60658 31.8272 7.3955C31.7869 7.20935 31.7058 7.0342 31.5897 6.88241C31.4736 6.73062 31.3253 6.60588 31.1552 6.51696C29.9573 5.84155 27.3076 6.03198 24.1038 7.02479C21.1078 7.94649 18.8736 7.89316 17.4552 6.85974C17.0371 6.55704 16.6939 6.16441 16.4513 5.71141C16.2087 5.2584 16.0731 4.75682 16.0546 4.24443C16.0546 3.98921 16.157 3.74443 16.3394 3.56396C16.5217 3.38349 16.7689 3.28211 17.0268 3.28211C17.2822 3.28274 17.5272 3.3826 17.709 3.5602C17.8908 3.73779 17.9949 3.97893 17.999 4.23174C18.0178 4.44878 18.0843 4.65913 18.1937 4.84814C18.3031 5.03715 18.4529 5.20026 18.6325 5.32611C19.5072 5.93804 21.2412 5.8898 23.5241 5.18646C25.7455 4.50089 29.8137 3.5411 32.1197 4.84114C32.5213 5.06175 32.8714 5.36368 33.1472 5.72725C33.423 6.09081 33.6182 6.50786 33.7203 6.95116C33.7796 7.1993 33.737 7.46061 33.6019 7.6777C33.4667 7.89479 33.2501 8.04992 32.9995 8.109C32.9256 8.12693 32.8498 8.1363 32.7738 8.13693Z" fill="url(#paint5_linear_1_321)"/>
<path d="M54.4717 56.9949L20.9257 56.9949C20.7714 56.9949 20.6194 56.9585 20.4821 56.8887C20.3449 56.819 20.2264 56.7179 20.1364 56.5939C20.0465 56.4698 19.9876 56.3264 19.9647 56.1753C19.9418 56.0243 19.9556 55.8701 20.0048 55.7254L27.2614 34.5439C27.3264 34.3533 27.4504 34.1878 27.6156 34.0707C27.7808 33.9536 27.9791 33.8909 28.1823 33.8914H61.7282C61.8825 33.8914 62.0346 33.9278 62.1718 33.9976C62.3091 34.0673 62.4276 34.1684 62.5175 34.2924C62.6075 34.4165 62.6664 34.5599 62.6892 34.7109C62.7121 34.862 62.6984 35.0162 62.6491 35.1609L55.3951 56.3424C55.3292 56.5329 55.2048 56.6983 55.0392 56.8154C54.8736 56.9324 54.6752 56.9952 54.4717 56.9949ZM22.2826 55.0677H53.774L60.3713 35.8135H28.88L22.2826 55.0677Z" fill="url(#paint6_linear_1_321)"/>
<defs>
<linearGradient id="paint0_linear_1_321" x1="31.35" y1="10.0901" x2="31.35" y2="43.9006" gradientUnits="userSpaceOnUse">
<stop stop-color="#8D39D1"/>
<stop offset="1" stop-color="#3F127B"/>
</linearGradient>
<linearGradient id="paint1_linear_1_321" x1="31.35" y1="10.0901" x2="31.35" y2="43.9006" gradientUnits="userSpaceOnUse">
<stop stop-color="#8D39D1"/>
<stop offset="1" stop-color="#3F127B"/>
</linearGradient>
<linearGradient id="paint2_linear_1_321" x1="31.35" y1="10.0901" x2="31.35" y2="43.9006" gradientUnits="userSpaceOnUse">
<stop stop-color="#8D39D1"/>
<stop offset="1" stop-color="#3F127B"/>
</linearGradient>
<linearGradient id="paint3_linear_1_321" x1="31.35" y1="10.0901" x2="31.35" y2="43.9006" gradientUnits="userSpaceOnUse">
<stop stop-color="#8D39D1"/>
<stop offset="1" stop-color="#3F127B"/>
</linearGradient>
<linearGradient id="paint4_linear_1_321" x1="31.35" y1="10.0901" x2="31.35" y2="43.9006" gradientUnits="userSpaceOnUse">
<stop stop-color="#8D39D1"/>
<stop offset="1" stop-color="#3F127B"/>
</linearGradient>
<linearGradient id="paint5_linear_1_321" x1="31.35" y1="10.0901" x2="31.35" y2="43.9006" gradientUnits="userSpaceOnUse">
<stop stop-color="#8D39D1"/>
<stop offset="1" stop-color="#3F127B"/>
</linearGradient>
<linearGradient id="paint6_linear_1_321" x1="31.35" y1="10.0901" x2="31.35" y2="43.9006" gradientUnits="userSpaceOnUse">
<stop stop-color="#8D39D1"/>
<stop offset="1" stop-color="#3F127B"/>
</linearGradient>
</defs>
</svg>
