<svg width="58" height="52" viewBox="0 0 58 52" fill="none" xmlns="http://www.w3.org/2000/svg">
<path d="M57.1632 52C56.9717 52.0002 56.7858 51.9341 56.6369 51.813C56.488 51.6919 56.3849 51.523 56.345 51.3346L55.8312 48.8125C55.5474 47.4379 54.8571 46.1816 53.8508 45.2086C52.8445 44.2356 51.5693 43.5913 50.1924 43.3603L36.9721 41.1866L29.4082 45.4232C29.2838 45.4929 29.1438 45.5295 29.0014 45.5295C28.8589 45.5295 28.7189 45.4929 28.5945 45.4232L21.0239 41.1821L7.80363 43.3559C6.4285 43.5873 5.1549 44.2309 4.14956 45.2026C3.14421 46.1742 2.45397 47.4286 2.16927 48.8014L1.65543 51.3235C1.61098 51.542 1.48205 51.7338 1.29698 51.8568C1.11191 51.9797 0.885905 52.0236 0.668629 51.9789C0.451353 51.9342 0.260634 51.8045 0.138427 51.6184C0.0162205 51.4322 -0.0274817 51.2048 0.0169678 50.9863L0.530802 48.4643C0.884032 46.7574 1.74174 45.1977 2.99154 43.9896C4.24135 42.7816 5.82492 41.9816 7.5346 41.6945L21.0416 39.4764C21.2279 39.4452 21.4193 39.4789 21.5841 39.5718L29.0002 43.7285L36.4186 39.5718C36.5826 39.4787 36.7733 39.445 36.9589 39.4764L50.4659 41.6945C52.1756 41.9816 53.7591 42.7816 55.0089 43.9896C56.2587 45.1977 57.1165 46.7574 57.4697 48.4643L57.9835 50.9863C58.0053 51.0953 58.0055 51.2075 57.984 51.3166C57.9625 51.4256 57.9198 51.5293 57.8583 51.6216C57.7968 51.714 57.7178 51.7932 57.6257 51.8547C57.5337 51.9162 57.4304 51.9588 57.322 51.98C57.2698 51.9916 57.2166 51.9983 57.1632 52Z" fill="url(#paint0_linear_1_695)"/>
<path d="M21.1761 41.151C21.0631 41.1508 20.9513 41.1274 20.8476 41.0822C20.7461 41.0387 20.6541 40.9755 20.577 40.8961C20.4998 40.8168 20.439 40.7229 20.398 40.6198C20.357 40.5168 20.3367 40.4066 20.3382 40.2956C20.3396 40.1847 20.3628 40.0751 20.4065 39.9732L21.5312 37.3291C21.5746 37.2272 21.6376 37.1348 21.7165 37.0573C21.7954 36.9799 21.8888 36.9188 21.9912 36.8776C22.0935 36.8364 22.203 36.8159 22.3133 36.8173C22.4235 36.8186 22.5325 36.8418 22.6338 36.8855C22.7352 36.9292 22.827 36.9925 22.904 37.0719C22.981 37.1513 23.0417 37.2452 23.0827 37.3482C23.1236 37.4511 23.144 37.5612 23.1427 37.6721C23.1414 37.783 23.1183 37.8926 23.0749 37.9946L21.9502 40.6386C21.8853 40.7909 21.7774 40.9207 21.6397 41.0118C21.5021 41.1029 21.3409 41.1513 21.1761 41.151Z" fill="url(#paint1_linear_1_695)"/>
<path d="M36.8222 41.151C36.6582 41.1504 36.4979 41.1017 36.3611 41.0106C36.2243 40.9196 36.1171 40.7902 36.0525 40.6386L34.9279 37.9946C34.8844 37.8926 34.8614 37.783 34.86 37.6721C34.8587 37.5612 34.879 37.4511 34.92 37.3482C34.961 37.2452 35.0217 37.1513 35.0987 37.0719C35.1757 36.9925 35.2676 36.9292 35.3689 36.8855C35.4703 36.8418 35.5792 36.8186 35.6895 36.8173C35.7997 36.8159 35.9091 36.8364 36.0115 36.8776C36.1139 36.9188 36.2072 36.9799 36.2862 37.0573C36.3651 37.1348 36.4281 37.2272 36.4715 37.3291L37.5962 39.9732C37.6504 40.1011 37.6723 40.2405 37.66 40.379C37.6476 40.5174 37.6014 40.6507 37.5254 40.7669C37.4494 40.8831 37.346 40.9785 37.2245 41.0447C37.103 41.111 36.967 41.146 36.8287 41.1465L36.8222 41.151Z" fill="url(#paint2_linear_1_695)"/>
<path d="M18.8783 27.3453C18.7049 27.345 18.5359 27.2907 18.3945 27.1898C18.2531 27.0889 18.1463 26.9464 18.0888 26.7818C17.9433 26.3626 17.8088 25.9345 17.6897 25.502C16.4018 24.5659 15.9255 21.7755 15.7601 20.5267C15.7601 20.5089 15.7601 20.4912 15.7601 20.4735C15.7182 19.808 15.6013 17.9381 17.2045 16.94C17.1582 15.3873 17.1737 11.0242 18.6115 8.17607C18.7118 7.97694 18.8866 7.82604 19.0975 7.75657C19.3084 7.6871 19.5381 7.70477 19.7361 7.80566C19.9341 7.90655 20.0841 8.08241 20.1532 8.29456C20.2222 8.50671 20.2047 8.73777 20.1044 8.93691C18.5762 11.9625 18.8937 17.3392 18.8982 17.3925C18.9089 17.5693 18.864 17.7451 18.7698 17.8948C18.6756 18.0445 18.5368 18.1606 18.3733 18.2265C17.747 18.4794 17.3456 18.9363 17.4272 20.3426C17.6478 22.1171 18.2586 23.9537 18.6754 24.1445C18.8072 24.1883 18.9258 24.2647 19.0206 24.3666C19.1154 24.4685 19.1832 24.5927 19.2179 24.7278C19.348 25.2336 19.5024 25.7371 19.6722 26.2251C19.7084 26.3294 19.7239 26.4398 19.7177 26.5501C19.7115 26.6604 19.6837 26.7684 19.636 26.8679C19.5883 26.9674 19.5216 27.0565 19.4396 27.13C19.3576 27.2035 19.2621 27.2601 19.1584 27.2965C19.0686 27.3293 18.9738 27.3458 18.8783 27.3453Z" fill="url(#paint3_linear_1_695)"/>
<path d="M29.0001 36.3287C27.0598 36.3286 25.1668 35.7259 23.5797 34.603C23.4892 34.5404 23.4119 34.4605 23.3521 34.3678C23.2923 34.2751 23.2513 34.1714 23.2313 34.0628C23.2113 33.9541 23.2128 33.8426 23.2357 33.7345C23.2586 33.6265 23.3024 33.524 23.3647 33.433C23.427 33.3419 23.5065 33.2641 23.5986 33.204C23.6908 33.1439 23.7938 33.1026 23.9018 33.0825C24.0098 33.0624 24.1207 33.0639 24.2282 33.087C24.3356 33.11 24.4375 33.1541 24.528 33.2167C25.8371 34.1443 27.3988 34.6432 29.0001 34.6452C35.9797 34.6452 38.3129 27.0503 38.8597 24.7212C38.8926 24.5845 38.9588 24.4582 39.0524 24.3536C39.1459 24.249 39.2639 24.1696 39.3956 24.1223C39.797 23.9205 40.3747 22.0728 40.5798 20.3249C40.6658 18.9452 40.2644 18.4838 39.6359 18.2309C39.4759 18.1666 39.3396 18.054 39.2457 17.9087C39.1517 17.7633 39.1047 17.5923 39.1111 17.4191C39.1985 15.7832 39.074 14.1428 38.7407 12.5392V12.5103C38.6758 12.2132 38.5478 11.9337 38.3655 11.6909C38.1832 11.4482 37.9508 11.248 37.6843 11.1041C36.0525 10.168 32.555 10.4031 28.3298 11.7296C24.6272 12.8919 21.8861 12.8386 20.1815 11.5787C19.7007 11.2206 19.3053 10.7593 19.0238 10.2283C18.7423 9.69729 18.5818 9.10992 18.554 8.50881C18.5541 8.39206 18.5783 8.2766 18.625 8.1697C18.6717 8.06281 18.7399 7.96681 18.8253 7.88775C22.5014 4.49399 26.2436 2.93908 29.944 3.26293C35.1968 3.7243 38.3746 7.8212 38.5069 7.99644C39.4133 9.21465 40.0461 10.6163 40.3615 12.1044V12.1222C40.3615 12.1222 40.3615 12.1355 40.3615 12.1421C40.7038 13.7209 40.8519 15.336 40.8025 16.9511C42.4123 17.947 42.2933 19.8346 42.2514 20.4868C42.1058 21.76 41.6493 24.5172 40.41 25.471C38.6899 32.2718 34.4448 36.3287 29.0001 36.3287ZM20.2675 8.8238C20.3925 9.38936 20.7208 9.88856 21.1893 10.2257C22.0537 10.8512 23.9083 11.3347 27.8248 10.1081C30.2307 9.35394 34.3677 8.33359 37.261 9.12324C37.2323 9.08332 37.2036 9.04338 37.1727 9.00568C37.1418 8.96797 34.2883 5.31027 29.772 4.9221C26.667 4.65814 23.4717 5.96905 20.2675 8.8238Z" fill="url(#paint4_linear_1_695)"/>
<path d="M45.5945 24.0957H44.1722C44.056 24.0958 43.9411 24.0716 43.8347 24.0246C43.7284 23.9776 43.6329 23.9088 43.5545 23.8226C43.476 23.7364 43.4164 23.6347 43.3792 23.524C43.342 23.4133 43.3282 23.296 43.3386 23.1796C43.3386 23.0665 44.2846 11.7406 38.7076 5.59859C36.3304 2.98562 33.0689 1.66139 29.0046 1.66139C24.9889 1.66139 21.7274 2.97897 19.3259 5.57641C13.6342 11.7184 14.362 23.082 14.3708 23.1951C14.3786 23.3104 14.3629 23.426 14.3244 23.5349C14.286 23.6437 14.2257 23.7435 14.1473 23.828C14.0689 23.9124 13.9741 23.9798 13.8688 24.0258C13.7635 24.0719 13.6499 24.0956 13.535 24.0957H12.1126C11.3517 24.0945 10.622 23.7907 10.0829 23.2505C9.54374 22.7103 9.23888 21.9775 9.23481 21.2121V17.805C9.23831 17.0394 9.54297 16.3063 10.0822 15.766C10.6215 15.2257 11.3515 14.922 12.1126 14.9214H13.288C13.9694 11.3924 15.3477 7.42857 18.0976 4.45627C20.8475 1.48396 24.5038 0 29.0046 0C33.5518 0 37.2301 1.51055 39.9359 4.49174C42.6418 7.47292 43.9781 11.5077 44.5868 15.059H45.5945C46.3538 15.0625 47.081 15.3674 47.6178 15.9074C48.1547 16.4474 48.4578 17.1789 48.4613 17.9425V21.2121C48.4578 21.9758 48.1547 22.7072 47.6178 23.2472C47.081 23.7872 46.3538 24.0922 45.5945 24.0957ZM45.0587 22.4143H45.5945C45.9144 22.4143 46.2213 22.2865 46.4475 22.0589C46.6737 21.8314 46.8008 21.5228 46.8008 21.201V17.9315C46.8008 17.6097 46.6737 17.3011 46.4475 17.0735C46.2213 16.846 45.9144 16.7181 45.5945 16.7181H44.8315C45.056 18.6079 45.132 20.5125 45.0587 22.4143ZM12.1126 16.5806C11.9543 16.5806 11.7976 16.612 11.6514 16.673C11.5051 16.734 11.3723 16.8234 11.2604 16.9361C11.1486 17.0488 11.06 17.1826 10.9996 17.3298C10.9392 17.477 10.9083 17.6347 10.9086 17.7939V21.201C10.9086 21.5224 11.0353 21.8307 11.2611 22.0582C11.4868 22.2856 11.7931 22.4137 12.1126 22.4143H12.6639C12.6247 20.4636 12.7405 18.5128 13.0101 16.5806H12.1126Z" fill="url(#paint5_linear_1_695)"/>
<path d="M28.8547 32.0055C22.0384 32.0055 17.2553 30.5814 14.6377 27.7733C12.5758 25.5551 12.6949 23.2948 12.7015 23.1995C12.7083 23.0892 12.7366 22.9814 12.7849 22.8821C12.8331 22.7829 12.9003 22.6942 12.9826 22.621C13.0649 22.5479 13.1608 22.4918 13.2646 22.456C13.3685 22.4201 13.4784 22.4052 13.588 22.412C13.6976 22.4189 13.8048 22.4474 13.9035 22.4959C14.0021 22.5444 14.0903 22.612 14.163 22.6948C14.2357 22.7776 14.2915 22.874 14.3271 22.9784C14.3628 23.0829 14.3777 23.1935 14.3708 23.3037C14.3708 23.388 14.3223 25.005 15.9145 26.6686C17.5067 28.3322 21.0306 30.3241 28.8658 30.3241C29.0874 30.3241 29.3 30.4127 29.4568 30.5703C29.6135 30.728 29.7016 30.9418 29.7016 31.1648C29.7016 31.3877 29.6135 31.6016 29.4568 31.7592C29.3 31.9169 29.0874 32.0055 28.8658 32.0055H28.8547Z" fill="url(#paint6_linear_1_695)"/>
<defs>
<linearGradient id="paint0_linear_1_695" x1="29" y1="9.20497" x2="29" y2="40.0497" gradientUnits="userSpaceOnUse">
<stop stop-color="#8D39D1"/>
<stop offset="1" stop-color="#3F127B"/>
</linearGradient>
<linearGradient id="paint1_linear_1_695" x1="29" y1="9.20497" x2="29" y2="40.0497" gradientUnits="userSpaceOnUse">
<stop stop-color="#8D39D1"/>
<stop offset="1" stop-color="#3F127B"/>
</linearGradient>
<linearGradient id="paint2_linear_1_695" x1="29" y1="9.20497" x2="29" y2="40.0497" gradientUnits="userSpaceOnUse">
<stop stop-color="#8D39D1"/>
<stop offset="1" stop-color="#3F127B"/>
</linearGradient>
<linearGradient id="paint3_linear_1_695" x1="29" y1="9.20497" x2="29" y2="40.0497" gradientUnits="userSpaceOnUse">
<stop stop-color="#8D39D1"/>
<stop offset="1" stop-color="#3F127B"/>
</linearGradient>
<linearGradient id="paint4_linear_1_695" x1="29" y1="9.20497" x2="29" y2="40.0497" gradientUnits="userSpaceOnUse">
<stop stop-color="#8D39D1"/>
<stop offset="1" stop-color="#3F127B"/>
</linearGradient>
<linearGradient id="paint5_linear_1_695" x1="29" y1="9.20497" x2="29" y2="40.0497" gradientUnits="userSpaceOnUse">
<stop stop-color="#8D39D1"/>
<stop offset="1" stop-color="#3F127B"/>
</linearGradient>
<linearGradient id="paint6_linear_1_695" x1="29" y1="9.20497" x2="29" y2="40.0497" gradientUnits="userSpaceOnUse">
<stop stop-color="#8D39D1"/>
<stop offset="1" stop-color="#3F127B"/>
</linearGradient>
</defs>
</svg>
