<svg width="74" height="48" viewBox="0 0 74 48" fill="none" xmlns="http://www.w3.org/2000/svg">
<path d="M53.7696 41.2156H3.33483C2.45076 41.2144 1.60325 40.8604 0.978115 40.2314C0.352983 39.6024 0.00123993 38.7496 0 37.86V10.3287C0.00123993 9.43909 0.352983 8.5863 0.978115 7.95726C1.60325 7.32823 2.45076 6.97429 3.33483 6.97304H53.7696C54.6537 6.97429 55.5012 7.32823 56.1263 7.95726C56.7515 8.5863 57.1032 9.43909 57.1045 10.3287V37.86C57.1032 38.7496 56.7515 39.6024 56.1263 40.2314C55.5012 40.8604 54.6537 41.2144 53.7696 41.2156ZM3.33483 8.76287C2.92191 8.76286 2.52587 8.92776 2.23368 9.22134C1.94148 9.51492 1.77701 9.91318 1.77639 10.3287V37.86C1.77701 38.2755 1.94148 38.6737 2.23368 38.9673C2.52587 39.2609 2.92191 39.4258 3.33483 39.4258H53.7696C54.1826 39.4258 54.5786 39.2609 54.8708 38.9673C55.163 38.6737 55.3274 38.2755 55.3281 37.86V10.3287C55.3274 9.91318 55.163 9.51492 54.8708 9.22134C54.5786 8.92776 54.1826 8.76286 53.7696 8.76287H3.33483Z" fill="url(#paint0_linear_1_700)"/>
<path d="M35.8136 48H21.2838C21.1508 47.9999 21.0195 47.9698 20.8996 47.912C20.7796 47.8541 20.6741 47.77 20.5907 47.6657C20.5073 47.5614 20.4481 47.4397 20.4176 47.3094C20.3871 47.1792 20.386 47.0437 20.4144 46.9129L21.9166 40.1262C21.9593 39.9264 22.0686 39.7474 22.2263 39.6188C22.384 39.4901 22.5806 39.4195 22.7837 39.4187H34.302C34.5052 39.4191 34.7021 39.4895 34.8599 39.6182C35.0176 39.747 35.1268 39.9262 35.1692 40.1262L36.6713 46.9129C36.7001 47.0435 36.6994 47.179 36.6692 47.3093C36.639 47.4395 36.5801 47.5613 36.4969 47.6657C36.4136 47.77 36.3082 47.8542 36.1883 47.9121C36.0684 47.97 35.9372 48 35.8042 48H35.8136ZM22.3993 46.2125H34.7051L33.599 41.2156H23.5055L22.3993 46.2125Z" fill="url(#paint1_linear_1_700)"/>
<path d="M41.9395 48H15.1649C14.9293 48 14.7034 47.9058 14.5368 47.7382C14.3703 47.5706 14.2767 47.3433 14.2767 47.1063C14.2767 46.8692 14.3703 46.6419 14.5368 46.4743C14.7034 46.3067 14.9293 46.2125 15.1649 46.2125H41.9395C42.1751 46.2125 42.4011 46.3067 42.5676 46.4743C42.7342 46.6419 42.8278 46.8692 42.8278 47.1063C42.8278 47.3433 42.7342 47.5706 42.5676 47.7382C42.4011 47.9058 42.1751 48 41.9395 48Z" fill="url(#paint2_linear_1_700)"/>
<path d="M71.4491 48H51.166C50.502 48 49.8651 47.7347 49.3953 47.2625C48.9256 46.7902 48.6614 46.1497 48.6608 45.4815V43.1776C48.6608 42.9405 48.7544 42.7132 48.9209 42.5456C49.0875 42.378 49.3134 42.2839 49.549 42.2839C49.7845 42.2839 50.0104 42.378 50.177 42.5456C50.3436 42.7132 50.4371 42.9405 50.4371 43.1776V45.4815C50.4378 45.6756 50.5148 45.8615 50.6514 45.9985C50.7881 46.1356 50.9731 46.2125 51.166 46.2125H71.4491C71.6418 46.2125 71.8266 46.1355 71.9628 45.9984C72.0991 45.8613 72.1756 45.6754 72.1756 45.4815V2.52087C72.1756 2.32699 72.0991 2.14103 71.9628 2.00393C71.8266 1.86684 71.6418 1.78982 71.4491 1.78982H51.166C50.9731 1.78982 50.7881 1.86676 50.6514 2.00379C50.5148 2.14081 50.4378 2.32677 50.4371 2.52087V5.01105C50.4371 5.24809 50.3436 5.47541 50.177 5.64302C50.0104 5.81063 49.7845 5.9048 49.549 5.9048C49.3134 5.9048 49.0875 5.81063 48.9209 5.64302C48.7544 5.47541 48.6608 5.24809 48.6608 5.01105V2.52087C48.6614 1.85249 48.9255 1.21164 49.3952 0.739021C49.8649 0.266404 50.5018 0.000624363 51.166 0H71.4491C72.1133 0.000624363 72.7502 0.266404 73.2199 0.739021C73.6896 1.21164 73.9537 1.85249 73.9543 2.52087V45.4815C73.9531 46.1495 73.6887 46.7897 73.219 47.2618C72.7494 47.7339 72.1129 47.9994 71.4491 48Z" fill="url(#paint3_linear_1_700)"/>
<path d="M54.7024 4.93797H52.9658C52.7302 4.93797 52.5043 4.84379 52.3378 4.67619C52.1712 4.50858 52.0776 4.28125 52.0776 4.04422C52.0776 3.80719 52.1712 3.57986 52.3378 3.41225C52.5043 3.24465 52.7302 3.15047 52.9658 3.15047H54.7024C54.9379 3.15047 55.1638 3.24465 55.3304 3.41225C55.497 3.57986 55.5905 3.80719 55.5905 4.04422C55.5905 4.28125 55.497 4.50858 55.3304 4.67619C55.1638 4.84379 54.9379 4.93797 54.7024 4.93797Z" fill="url(#paint4_linear_1_700)"/>
<path d="M64.3811 4.93797H59.1269C58.8914 4.93797 58.6654 4.84379 58.4989 4.67619C58.3323 4.50858 58.2387 4.28125 58.2387 4.04422C58.2387 3.80719 58.3323 3.57986 58.4989 3.41225C58.6654 3.24465 58.8914 3.15047 59.1269 3.15047H64.3811C64.6166 3.15047 64.8425 3.24465 65.0091 3.41225C65.1757 3.57986 65.2693 3.80719 65.2693 4.04422C65.2693 4.28125 65.1757 4.50858 65.0091 4.67619C64.8425 4.84379 64.6166 4.93797 64.3811 4.93797Z" fill="url(#paint5_linear_1_700)"/>
<path d="M73.0638 41.2156H62.8039C62.2896 41.215 61.7967 41.009 61.4333 40.6429C61.0699 40.2768 60.8658 39.7805 60.8658 39.2631V37.3506C60.8658 36.8332 61.0699 36.3369 61.4333 35.9708C61.7967 35.6047 62.2896 35.3987 62.8039 35.3981H73.0638C73.2994 35.3981 73.5253 35.4922 73.6918 35.6599C73.8584 35.8275 73.952 36.0548 73.952 36.2918C73.952 36.5289 73.8584 36.7562 73.6918 36.9238C73.5253 37.0914 73.2994 37.1856 73.0638 37.1856H62.8039C62.7608 37.1862 62.7196 37.2038 62.6894 37.2347C62.6591 37.2656 62.6422 37.3072 62.6422 37.3506V39.2678C62.6422 39.3109 62.6592 39.3523 62.6895 39.3828C62.7199 39.4134 62.761 39.4305 62.8039 39.4305H73.0638C73.1844 39.4243 73.3051 39.4428 73.4184 39.485C73.5316 39.5271 73.6352 39.592 73.7228 39.6757C73.8104 39.7595 73.8801 39.8602 73.9278 39.9719C73.9754 40.0836 74 40.2039 74 40.3254C74 40.447 73.9754 40.5672 73.9278 40.6789C73.8801 40.7906 73.8104 40.8914 73.7228 40.9751C73.6352 41.0588 73.5316 41.1237 73.4184 41.1659C73.3051 41.208 73.1844 41.2266 73.0638 41.2203V41.2156Z" fill="url(#paint6_linear_1_700)"/>
<defs>
<linearGradient id="paint0_linear_1_700" x1="37" y1="8.49689" x2="37" y2="36.9689" gradientUnits="userSpaceOnUse">
<stop stop-color="#8D39D1"/>
<stop offset="1" stop-color="#3F127B"/>
</linearGradient>
<linearGradient id="paint1_linear_1_700" x1="37" y1="8.49689" x2="37" y2="36.9689" gradientUnits="userSpaceOnUse">
<stop stop-color="#8D39D1"/>
<stop offset="1" stop-color="#3F127B"/>
</linearGradient>
<linearGradient id="paint2_linear_1_700" x1="37" y1="8.49689" x2="37" y2="36.9689" gradientUnits="userSpaceOnUse">
<stop stop-color="#8D39D1"/>
<stop offset="1" stop-color="#3F127B"/>
</linearGradient>
<linearGradient id="paint3_linear_1_700" x1="37" y1="8.49689" x2="37" y2="36.9689" gradientUnits="userSpaceOnUse">
<stop stop-color="#8D39D1"/>
<stop offset="1" stop-color="#3F127B"/>
</linearGradient>
<linearGradient id="paint4_linear_1_700" x1="37" y1="8.49689" x2="37" y2="36.9689" gradientUnits="userSpaceOnUse">
<stop stop-color="#8D39D1"/>
<stop offset="1" stop-color="#3F127B"/>
</linearGradient>
<linearGradient id="paint5_linear_1_700" x1="37" y1="8.49689" x2="37" y2="36.9689" gradientUnits="userSpaceOnUse">
<stop stop-color="#8D39D1"/>
<stop offset="1" stop-color="#3F127B"/>
</linearGradient>
<linearGradient id="paint6_linear_1_700" x1="37" y1="8.49689" x2="37" y2="36.9689" gradientUnits="userSpaceOnUse">
<stop stop-color="#8D39D1"/>
<stop offset="1" stop-color="#3F127B"/>
</linearGradient>
</defs>
</svg>
