<svg width="48" height="43" viewBox="0 0 48 43" fill="none" xmlns="http://www.w3.org/2000/svg">
<path d="M9.87985 22.3568C8.23311 22.3568 6.66479 21.9843 5.17488 21.2393C3.72419 20.4552 2.54794 19.3769 1.64616 18.0047C0.78358 16.5932 0.352291 14.9268 0.352291 13.0056V9.4769C0.352291 7.51649 0.78358 5.85015 1.64616 4.47787C2.54794 3.06638 3.72419 1.98816 5.17488 1.2432C6.66479 0.45904 8.23311 0.0669587 9.87985 0.0669587C11.5266 0.0669587 13.0753 0.45904 14.526 1.2432C15.9767 1.98816 17.153 3.06638 18.0547 4.47787C18.9565 5.85015 19.4074 7.51649 19.4074 9.4769V13.0056C19.4074 14.9268 18.9565 16.5932 18.0547 18.0047C17.153 19.3769 15.9767 20.4552 14.526 21.2393C13.0753 21.9843 11.5266 22.3568 9.87985 22.3568ZM9.87985 20.1219C11.0953 20.1219 12.2323 19.8474 13.291 19.2985C14.3888 18.7104 15.271 17.8674 15.9375 16.7696C16.6432 15.6718 16.9961 14.3191 16.9961 12.7116V9.77096C16.9961 8.12422 16.6432 6.75194 15.9375 5.65411C15.271 4.55629 14.3888 3.73292 13.291 3.184C12.2323 2.59588 11.0953 2.30182 9.87985 2.30182C8.6644 2.30182 7.50777 2.59588 6.40994 3.184C5.35132 3.73292 4.46914 4.55629 3.76339 5.65411C3.09686 6.75194 2.76359 8.12422 2.76359 9.77096V12.7116C2.76359 14.3191 3.09686 15.6718 3.76339 16.7696C4.46914 17.8674 5.35132 18.7104 6.40994 19.2985C7.50777 19.8474 8.6644 20.1219 9.87985 20.1219ZM37.5215 42.7646C35.8748 42.7646 34.3261 42.3921 32.8754 41.6471C31.4247 40.863 30.2484 39.7847 29.3467 38.4125C28.4449 37.001 27.994 35.315 27.994 33.3546V29.8259C27.994 27.8655 28.4449 26.1991 29.3467 24.8269C30.2484 23.4546 31.4247 22.396 32.8754 21.651C34.3261 20.8668 35.8748 20.4748 37.5215 20.4748C39.2075 20.4748 40.7758 20.8668 42.2265 21.651C43.6772 22.396 44.8339 23.4546 45.6964 24.8269C46.5982 26.1991 47.0491 27.8655 47.0491 29.8259V33.3546C47.0491 35.315 46.5982 37.001 45.6964 38.4125C44.8339 39.7847 43.6772 40.863 42.2265 41.6471C40.7758 42.3921 39.2075 42.7646 37.5215 42.7646ZM37.5215 40.5297C38.737 40.5297 39.874 40.2552 40.9327 39.7063C42.0305 39.1182 42.9127 38.2752 43.5792 37.1774C44.2849 36.0404 44.6378 34.6877 44.6378 33.1194V30.1788C44.6378 28.532 44.2849 27.1597 43.5792 26.0619C42.9127 24.9641 42.0305 24.1211 40.9327 23.533C39.874 22.9449 38.737 22.6508 37.5215 22.6508C36.3061 22.6508 35.1495 22.9449 34.0516 23.533C32.993 24.1211 32.1108 24.9641 31.4051 26.0619C30.7386 27.1597 30.4053 28.532 30.4053 30.1788V33.1194C30.4053 34.6877 30.7386 36.0404 31.4051 37.1774C32.1108 38.2752 32.993 39.1182 34.0516 39.7063C35.1495 40.2552 36.3061 40.5297 37.5215 40.5297ZM7.70381 42L36.757 0.831517H39.4624L10.4092 42H7.70381Z" fill="url(#paint0_linear_1_305)"/>
<defs>
<linearGradient id="paint0_linear_1_305" x1="24" y1="8.25776" x2="24" y2="32.5776" gradientUnits="userSpaceOnUse">
<stop stop-color="#8D39D1"/>
<stop offset="1" stop-color="#3F127B"/>
</linearGradient>
</defs>
</svg>
