<svg width="60" height="55" viewBox="0 0 60 55" fill="none" xmlns="http://www.w3.org/2000/svg">
<path d="M11.9121 47.062C10.864 47.0625 9.8393 46.7562 8.9676 46.1819C8.09589 45.6076 7.41634 44.791 7.01489 43.8355C6.61345 42.8799 6.50814 41.8283 6.7123 40.8137C6.91645 39.7991 7.42089 38.867 8.16181 38.1354C8.90274 37.4037 9.84686 36.9054 10.8748 36.7034C11.9027 36.5014 12.9682 36.6048 13.9365 37.0006C14.9049 37.3963 15.7326 38.0666 16.3149 38.9267C16.8973 39.7867 17.2081 40.7979 17.2081 41.8324C17.2074 43.2187 16.6493 44.5481 15.6563 45.5286C14.6634 46.5092 13.3167 47.0606 11.9121 47.062ZM11.9121 38.5746C11.2592 38.5746 10.6211 38.7656 10.0783 39.1236C9.53545 39.4816 9.11238 39.9904 8.86255 40.5857C8.61272 41.181 8.54735 41.836 8.67471 42.4679C8.80208 43.0999 9.11645 43.6804 9.57807 44.136C10.0397 44.5916 10.6278 44.9019 11.2681 45.0276C11.9084 45.1533 12.5721 45.0888 13.1752 44.8422C13.7784 44.5956 14.2939 44.1781 14.6566 43.6423C15.0193 43.1066 15.2129 42.4767 15.2129 41.8324C15.2122 40.9686 14.8642 40.1403 14.2453 39.5295C13.6265 38.9187 12.7873 38.5752 11.9121 38.5746Z" fill="url(#paint0_linear_1_715)"/>
<path d="M22.8121 54.9494C22.5473 54.9487 22.2935 54.8444 22.1065 54.6593C21.9195 54.4742 21.8145 54.2235 21.8145 53.9622V53.6166C21.8138 52.6768 21.4354 51.7756 20.7623 51.1108C20.0892 50.446 19.1764 50.0718 18.2241 50.0704H5.58951C4.63726 50.0718 3.72446 50.446 3.05136 51.1108C2.37827 51.7756 1.99986 52.6768 1.99917 53.6166V53.9622C2.00612 54.0959 1.98544 54.2296 1.93838 54.3552C1.89133 54.4808 1.81887 54.5956 1.72543 54.6927C1.63199 54.7898 1.51951 54.8671 1.39484 54.9199C1.27017 54.9728 1.13591 55 1.00024 55C0.864568 55 0.730315 54.9728 0.605646 54.9199C0.480977 54.8671 0.3685 54.7898 0.275057 54.6927C0.181614 54.5956 0.109156 54.4808 0.062097 54.3552C0.0150376 54.2296 -0.00564137 54.0959 0.00131621 53.9622V53.6166C0.0027088 52.154 0.591825 50.7517 1.63944 49.7172C2.68705 48.6828 4.10761 48.1007 5.58951 48.0986H18.2241C19.706 48.1007 21.1266 48.6828 22.1742 49.7172C23.2218 50.7517 23.8109 52.154 23.8123 53.6166V53.9622C23.8123 54.224 23.7069 54.4751 23.5194 54.6602C23.3318 54.8454 23.0774 54.9494 22.8121 54.9494Z" fill="url(#paint1_linear_1_715)"/>
<path d="M48.0998 47.062C47.0518 47.062 46.0273 46.7553 45.156 46.1807C44.2846 45.606 43.6055 44.7892 43.2044 43.8337C42.8034 42.8781 42.6985 41.8266 42.9029 40.8121C43.1074 39.7977 43.612 38.8658 44.3531 38.1345C45.0941 37.4031 46.0382 36.905 47.066 36.7032C48.0939 36.5014 49.1593 36.605 50.1275 37.0008C51.0957 37.3966 51.9232 38.0669 52.5054 38.9269C53.0876 39.787 53.3984 40.798 53.3984 41.8324C53.397 43.2189 52.8383 44.5483 51.8449 45.5288C50.8515 46.5092 49.5046 47.0606 48.0998 47.062ZM48.0998 38.5745C47.4469 38.5745 46.8087 38.7656 46.2659 39.1236C45.7231 39.4816 45.3 39.9904 45.0502 40.5857C44.8004 41.181 44.735 41.836 44.8624 42.4679C44.9897 43.0999 45.3041 43.6804 45.7657 44.136C46.2274 44.5916 46.8155 44.9019 47.4558 45.0276C48.0961 45.1533 48.7598 45.0888 49.3629 44.8422C49.9661 44.5956 50.4816 44.1781 50.8443 43.6423C51.207 43.1066 51.4006 42.4767 51.4006 41.8324C51.3992 40.9688 51.051 40.1409 50.4322 39.5303C49.8135 38.9196 48.9748 38.5759 48.0998 38.5745Z" fill="url(#paint2_linear_1_715)"/>
<path d="M59.0024 54.9494C58.8712 54.9494 58.7412 54.9238 58.62 54.8742C58.4988 54.8245 58.3887 54.7518 58.296 54.6601C58.2034 54.5684 58.1299 54.4595 58.08 54.3397C58.03 54.22 58.0044 54.0917 58.0048 53.9622V53.6166C58.0041 52.6763 57.6253 51.7747 56.9517 51.1099C56.278 50.445 55.3645 50.0711 54.4118 50.0704H41.7772C40.8245 50.0711 39.911 50.445 39.2373 51.1099C38.5637 51.7747 38.1849 52.6763 38.1842 53.6166V53.9622C38.1842 54.2233 38.0791 54.4737 37.892 54.6584C37.7049 54.843 37.4512 54.9468 37.1866 54.9468C36.922 54.9468 36.6683 54.843 36.4812 54.6584C36.2941 54.4737 36.189 54.2233 36.189 53.9622V53.6166C36.1904 52.154 36.7795 50.7517 37.8271 49.7172C38.8747 48.6828 40.2953 48.1007 41.7772 48.0986H54.4118C55.8937 48.1007 57.3143 48.6828 58.3619 49.7172C59.4095 50.7517 59.9986 52.154 60 53.6166V53.9622C60 54.2235 59.895 54.4742 59.708 54.6593C59.521 54.8444 59.2672 54.9487 59.0024 54.9494Z" fill="url(#paint3_linear_1_715)"/>
<path d="M30.0059 39.2682C28.9586 39.2677 27.9349 38.9607 27.0643 38.3861C26.1937 37.8114 25.5154 36.9948 25.1149 36.0397C24.7145 35.0845 24.61 34.0336 24.8146 33.0198C25.0193 32.0061 25.5239 31.075 26.2646 30.3442C27.0054 29.6134 27.9491 29.1159 28.9763 28.9144C30.0036 28.7129 31.0683 28.8166 32.0359 29.2123C33.0034 29.608 33.8304 30.2779 34.4122 31.1375C34.994 31.997 35.3046 33.0075 35.3046 34.0412C35.3032 35.4275 34.7444 36.7566 33.7509 37.7367C32.7575 38.7167 31.4105 39.2675 30.0059 39.2682ZM30.0059 30.7834C29.3531 30.7834 28.7149 30.9744 28.1721 31.3324C27.6293 31.6904 27.2062 32.1992 26.9564 32.7945C26.7066 33.3898 26.6412 34.0448 26.7686 34.6767C26.8959 35.3087 27.2103 35.8892 27.6719 36.3448C28.1335 36.8004 28.7217 37.1107 29.362 37.2364C30.0023 37.3621 30.6659 37.2976 31.2691 37.051C31.8722 36.8044 32.3877 36.3868 32.7504 35.8511C33.1131 35.3154 33.3067 34.6855 33.3067 34.0412C33.3053 33.1776 32.9571 32.3497 32.3384 31.7391C31.7197 31.1284 30.8809 30.7847 30.0059 30.7834Z" fill="url(#paint4_linear_1_715)"/>
<path d="M40.9086 46.8074C40.644 46.8074 40.3902 46.7037 40.2031 46.519C40.016 46.3344 39.9109 46.0839 39.9109 45.8228C39.9089 44.8832 39.5296 43.9827 38.8561 43.3185C38.1827 42.6543 37.27 42.2806 36.318 42.2792H23.7044C22.7526 42.2806 21.8402 42.6544 21.1672 43.3186C20.4942 43.9829 20.1155 44.8834 20.1141 45.8228C20.1141 46.0839 20.009 46.3344 19.8219 46.519C19.6348 46.7037 19.381 46.8074 19.1165 46.8074C18.8519 46.8074 18.5981 46.7037 18.411 46.519C18.2239 46.3344 18.1188 46.0839 18.1188 45.8228C18.1202 44.3609 18.7091 42.9592 19.7562 41.9253C20.8033 40.8913 22.2232 40.3095 23.7044 40.3074H36.339C37.8207 40.3088 39.2413 40.8903 40.2889 41.9243C41.3366 42.9584 41.9258 44.3604 41.9272 45.8228C41.9273 45.9539 41.9008 46.0836 41.8493 46.2045C41.7979 46.3253 41.7225 46.4348 41.6276 46.5265C41.5327 46.6182 41.4203 46.6903 41.2968 46.7385C41.1733 46.7868 41.0413 46.8102 40.9086 46.8074Z" fill="url(#paint5_linear_1_715)"/>
<path d="M21.0722 32.7474C20.8859 32.7465 20.7036 32.6943 20.5457 32.5967C17.2684 30.5741 14.7438 27.5574 13.3504 23.9989C11.957 20.4405 11.77 16.5321 12.8175 12.8599C13.8649 9.18765 16.0903 5.94955 19.1599 3.63114C22.2296 1.31273 25.978 0.0389537 29.8431 0.000879065C33.7082 -0.0371956 37.4816 1.16249 40.5975 3.41996C43.7135 5.67744 46.0039 8.87105 47.1254 12.5219C48.2469 16.1728 48.1389 20.084 46.8178 23.6692C45.4967 27.2544 43.0335 30.3203 39.7978 32.4071C39.5761 32.55 39.306 32.6002 39.0468 32.5467C38.7877 32.4931 38.5607 32.34 38.4159 32.1213C38.271 31.9025 38.2201 31.6359 38.2744 31.3802C38.3287 31.1244 38.4837 30.9003 38.7054 30.7574C41.5784 28.9031 43.7649 26.1796 44.9373 22.9953C46.1097 19.811 46.2047 16.3374 45.2081 13.0953C44.2114 9.85317 42.1769 7.01725 39.4095 5.01269C36.642 3.00813 33.2908 1.94295 29.8582 1.97683C26.4257 2.0107 23.0967 3.14181 20.3704 5.20059C17.6442 7.25937 15.6675 10.1349 14.7367 13.396C13.806 16.6571 13.9714 20.1282 15.208 23.2887C16.4447 26.4493 18.686 29.129 21.596 30.9262C21.779 31.0396 21.9198 31.2087 21.9972 31.4078C22.0745 31.607 22.0842 31.8256 22.0249 32.0307C21.9655 32.2358 21.8402 32.4163 21.668 32.5451C21.4957 32.6739 21.2857 32.744 21.0696 32.7448L21.0722 32.7474Z" fill="url(#paint6_linear_1_715)"/>
<path d="M24.6152 28.4634C24.3991 28.4625 24.1891 28.3927 24.0164 28.2644C23.8438 28.1361 23.7177 27.9563 23.657 27.7516C22.7472 24.4574 22.3043 21.0546 22.3409 17.6404C22.3409 7.58379 25.6391 0.00041227 30.0165 0.00041227C34.3938 0.00041227 37.6946 7.58379 37.6946 17.6404C37.7274 21.0552 37.28 24.4581 36.3654 27.7516C36.3289 27.8759 36.268 27.992 36.1861 28.0931C36.1041 28.1942 36.0029 28.2784 35.888 28.3409C35.7731 28.4034 35.6469 28.4429 35.5165 28.4572C35.3862 28.4716 35.2542 28.4604 35.1282 28.4244C35.0022 28.3884 34.8846 28.3283 34.7822 28.2475C34.6797 28.1666 34.5944 28.0667 34.5311 27.9533C34.4678 27.8399 34.4278 27.7153 34.4132 27.5866C34.3987 27.458 34.41 27.3278 34.4465 27.2034C35.3095 24.0882 35.7303 20.8698 35.6968 17.6404C35.6968 8.40734 32.704 1.97227 30.0165 1.97227C27.329 1.97227 24.3361 8.40734 24.3361 17.6404C24.3029 20.8698 24.7237 24.0881 25.5864 27.2034C25.6597 27.4546 25.6291 27.7241 25.5013 27.953C25.3735 28.1819 25.1589 28.3514 24.9047 28.4244C24.8106 28.4511 24.7131 28.4642 24.6152 28.4634Z" fill="url(#paint7_linear_1_715)"/>
<path d="M43.2091 29.0323C42.9803 29.0322 42.7584 28.9548 42.5803 28.813C42.4022 28.6713 42.2786 28.4736 42.2299 28.253C41.5482 27.658 37.3445 26.5851 30.0059 26.5851C22.6673 26.5851 18.4663 27.658 17.7819 28.253C17.7344 28.494 17.5973 28.7088 17.3975 28.8553C17.1978 29.0017 16.9498 29.0692 16.7023 29.0445C16.4547 29.0197 16.2254 28.9046 16.0595 28.7216C15.8935 28.5387 15.8028 28.3011 15.8051 28.0555C15.8051 24.8627 26.6762 24.6133 30.0059 24.6133C33.3357 24.6133 44.2067 24.873 44.2067 28.0555C44.2046 28.3153 44.0986 28.5638 43.9117 28.7467C43.7249 28.9297 43.4723 29.0324 43.2091 29.0323Z" fill="url(#paint8_linear_1_715)"/>
<path d="M30.0059 10.8468C26.6762 10.8468 15.8051 10.587 15.8051 7.40452C15.8035 7.15919 15.8947 6.9221 16.0608 6.73966C16.227 6.55721 16.4562 6.44256 16.7036 6.41818C16.9509 6.3938 17.1986 6.46145 17.398 6.60786C17.5975 6.75426 17.7344 6.96887 17.7819 7.20968C18.4663 7.8046 22.6673 8.87756 30.0059 8.87756C37.3445 8.87756 41.5482 7.8046 42.2299 7.20968C42.2774 6.96887 42.4143 6.75426 42.6138 6.60786C42.8133 6.46145 43.0609 6.3938 43.3083 6.41818C43.5556 6.44256 43.7848 6.55721 43.951 6.73966C44.1172 6.9221 44.2084 7.15919 44.2067 7.40452C44.2067 10.6 33.3383 10.8468 30.0059 10.8468Z" fill="url(#paint9_linear_1_715)"/>
<path d="M46.8679 18.625H13.1334C12.8774 18.6121 12.6361 18.5025 12.4595 18.319C12.2829 18.1356 12.1845 17.8922 12.1845 17.6391C12.1845 17.386 12.2829 17.1426 12.4595 16.9592C12.6361 16.7757 12.8774 16.6661 13.1334 16.6532H46.8679C47.0034 16.6463 47.1389 16.6667 47.2661 16.7132C47.3934 16.7596 47.5097 16.8311 47.6081 16.9234C47.7064 17.0156 47.7848 17.1266 47.8383 17.2496C47.8918 17.3727 47.9194 17.5052 47.9194 17.6391C47.9194 17.773 47.8918 17.9055 47.8383 18.0286C47.7848 18.1516 47.7064 18.2626 47.6081 18.3548C47.5097 18.4471 47.3934 18.5186 47.2661 18.565C47.1389 18.6115 47.0034 18.6319 46.8679 18.625Z" fill="url(#paint10_linear_1_715)"/>
<defs>
<linearGradient id="paint0_linear_1_715" x1="30" y1="9.73602" x2="30" y2="42.3602" gradientUnits="userSpaceOnUse">
<stop stop-color="#8D39D1"/>
<stop offset="1" stop-color="#3F127B"/>
</linearGradient>
<linearGradient id="paint1_linear_1_715" x1="30" y1="9.73602" x2="30" y2="42.3602" gradientUnits="userSpaceOnUse">
<stop stop-color="#8D39D1"/>
<stop offset="1" stop-color="#3F127B"/>
</linearGradient>
<linearGradient id="paint2_linear_1_715" x1="30" y1="9.73602" x2="30" y2="42.3602" gradientUnits="userSpaceOnUse">
<stop stop-color="#8D39D1"/>
<stop offset="1" stop-color="#3F127B"/>
</linearGradient>
<linearGradient id="paint3_linear_1_715" x1="30" y1="9.73602" x2="30" y2="42.3602" gradientUnits="userSpaceOnUse">
<stop stop-color="#8D39D1"/>
<stop offset="1" stop-color="#3F127B"/>
</linearGradient>
<linearGradient id="paint4_linear_1_715" x1="30" y1="9.73602" x2="30" y2="42.3602" gradientUnits="userSpaceOnUse">
<stop stop-color="#8D39D1"/>
<stop offset="1" stop-color="#3F127B"/>
</linearGradient>
<linearGradient id="paint5_linear_1_715" x1="30" y1="9.73602" x2="30" y2="42.3602" gradientUnits="userSpaceOnUse">
<stop stop-color="#8D39D1"/>
<stop offset="1" stop-color="#3F127B"/>
</linearGradient>
<linearGradient id="paint6_linear_1_715" x1="30" y1="9.73602" x2="30" y2="42.3602" gradientUnits="userSpaceOnUse">
<stop stop-color="#8D39D1"/>
<stop offset="1" stop-color="#3F127B"/>
</linearGradient>
<linearGradient id="paint7_linear_1_715" x1="30" y1="9.73602" x2="30" y2="42.3602" gradientUnits="userSpaceOnUse">
<stop stop-color="#8D39D1"/>
<stop offset="1" stop-color="#3F127B"/>
</linearGradient>
<linearGradient id="paint8_linear_1_715" x1="30" y1="9.73602" x2="30" y2="42.3602" gradientUnits="userSpaceOnUse">
<stop stop-color="#8D39D1"/>
<stop offset="1" stop-color="#3F127B"/>
</linearGradient>
<linearGradient id="paint9_linear_1_715" x1="30" y1="9.73602" x2="30" y2="42.3602" gradientUnits="userSpaceOnUse">
<stop stop-color="#8D39D1"/>
<stop offset="1" stop-color="#3F127B"/>
</linearGradient>
<linearGradient id="paint10_linear_1_715" x1="30" y1="9.73602" x2="30" y2="42.3602" gradientUnits="userSpaceOnUse">
<stop stop-color="#8D39D1"/>
<stop offset="1" stop-color="#3F127B"/>
</linearGradient>
</defs>
</svg>
