<svg width="62" height="67" viewBox="0 0 62 67" fill="none" xmlns="http://www.w3.org/2000/svg">
<path d="M42.0462 33.6105C41.8939 33.6109 41.743 33.5815 41.6023 33.524C41.4615 33.4664 41.3336 33.3819 41.2259 33.2752C41.1182 33.1685 41.0328 33.0418 40.9747 32.9023C40.9166 32.7628 40.8869 32.6133 40.8873 32.4625V25.0345C40.8873 24.73 41.0094 24.438 41.2268 24.2227C41.4441 24.0073 41.7389 23.8864 42.0462 23.8864C42.3536 23.8864 42.6483 24.0073 42.8657 24.2227C43.083 24.438 43.2051 24.73 43.2051 25.0345V32.4625C43.2051 32.767 43.083 33.059 42.8657 33.2743C42.6483 33.4896 42.3536 33.6105 42.0462 33.6105Z" fill="url(#paint0_linear_1_705)"/>
<path d="M48.81 33.6105C48.5026 33.6105 48.2079 33.4896 47.9905 33.2743C47.7732 33.059 47.6511 32.767 47.6511 32.4625V23.4017C47.6495 21.9364 47.0614 20.5316 46.0159 19.4952C44.9704 18.4589 43.5527 17.8755 42.0738 17.8731H28.4515C26.9725 17.8755 25.5548 18.4589 24.5093 19.4952C23.4638 20.5316 22.8758 21.9364 22.8741 23.4017V32.4625C22.8741 32.6132 22.8441 32.7625 22.7859 32.9018C22.7277 33.0411 22.6423 33.1677 22.5347 33.2743C22.4271 33.3809 22.2994 33.4655 22.1588 33.5232C22.0181 33.5809 21.8674 33.6105 21.7152 33.6105C21.5631 33.6105 21.4123 33.5809 21.2717 33.5232C21.1311 33.4655 21.0034 33.3809 20.8958 33.2743C20.7882 33.1677 20.7028 33.0411 20.6446 32.9018C20.5863 32.7625 20.5563 32.6132 20.5563 32.4625V23.4017C20.558 21.3274 21.3902 19.3385 22.8704 17.8715C24.3506 16.4045 26.3578 15.5793 28.4515 15.5769H42.0738C44.1677 15.5793 46.1752 16.4044 47.6559 17.8714C49.1365 19.3383 49.9694 21.3272 49.9719 23.4017V32.4625C49.9719 32.6135 49.9418 32.763 49.8834 32.9025C49.825 33.042 49.7393 33.1687 49.6314 33.2754C49.5234 33.382 49.3954 33.4665 49.2544 33.524C49.1134 33.5815 48.9624 33.6109 48.81 33.6105Z" fill="url(#paint1_linear_1_705)"/>
<path d="M28.4881 33.6105C28.1808 33.6105 27.886 33.4896 27.6687 33.2743C27.4513 33.059 27.3293 32.767 27.3293 32.4625V25.0345C27.3293 24.73 27.4513 24.438 27.6687 24.2227C27.886 24.0073 28.1808 23.8864 28.4881 23.8864C28.7955 23.8864 29.0902 24.0073 29.3076 24.2227C29.5249 24.438 29.647 24.73 29.647 25.0345V32.4625C29.6474 32.6133 29.6178 32.7628 29.5597 32.9023C29.5016 33.0418 29.4162 33.1685 29.3085 33.2752C29.2008 33.3819 29.0729 33.4664 28.9321 33.524C28.7913 33.5815 28.6404 33.6109 28.4881 33.6105Z" fill="url(#paint2_linear_1_705)"/>
<path d="M35.2641 13.6018C33.9063 13.6024 32.5788 13.204 31.4495 12.4571C30.3202 11.7101 29.4399 10.6482 28.9198 9.40557C28.3998 8.16293 28.2634 6.79537 28.5279 5.47593C28.7924 4.15649 29.446 2.94442 30.4059 1.993C31.3658 1.04158 32.589 0.393568 33.9207 0.130909C35.2524 -0.13175 36.6328 0.00272614 37.8873 0.517379C39.1419 1.03203 40.2142 1.90374 40.9686 3.02221C41.723 4.14067 42.1257 5.45565 42.1257 6.80086C42.1233 8.60331 41.3996 10.3313 40.1135 11.6061C38.8273 12.8809 37.0835 13.5986 35.2641 13.6018ZM35.2641 2.29926C34.3646 2.29866 33.4851 2.56245 32.7369 3.05719C31.9887 3.55194 31.4054 4.25543 31.0609 5.07866C30.7163 5.9019 30.6261 6.80787 30.8014 7.68197C30.9768 8.55606 31.4099 9.35898 32.046 9.98914C32.682 10.6193 33.4924 11.0484 34.3747 11.2221C35.257 11.3959 36.1715 11.3064 37.0025 10.9651C37.8334 10.6237 38.5436 10.0459 39.0429 9.30466C39.5423 8.56341 39.8085 7.69205 39.8079 6.80086C39.8063 5.60746 39.3271 4.4634 38.4753 3.61953C37.6235 2.77567 36.4687 2.30087 35.2641 2.29926Z" fill="url(#paint3_linear_1_705)"/>
<path d="M37.3006 63.7858C36.8174 63.7858 36.3312 63.7646 35.8451 63.7192L14.3247 61.7986C14.0294 61.7575 13.7614 61.6055 13.5761 61.3741C13.3908 61.1428 13.3024 60.8497 13.3291 60.5555C13.3558 60.2614 13.4956 59.9886 13.7196 59.7937C13.9436 59.5988 14.2347 59.4967 14.5326 59.5084L36.053 61.4321C39.2519 61.7129 42.4517 60.9028 45.1223 59.1358L58.7843 50.066C59.2179 49.7745 59.5228 49.3298 59.6365 48.823C59.7501 48.3162 59.664 47.7856 59.3959 47.3395C59.157 46.9408 58.7799 46.6416 58.335 46.4979C57.89 46.3541 57.4075 46.3754 56.9772 46.5579L39.5021 53.9829C39.3616 54.0425 39.2105 54.0742 39.0576 54.0761C38.9047 54.0779 38.753 54.0499 38.6111 53.9936C38.4691 53.9374 38.3397 53.854 38.2303 53.7482C38.1208 53.6424 38.0335 53.5162 37.9732 53.377C37.913 53.2378 37.881 53.0882 37.8792 52.9367C37.8773 52.7852 37.9056 52.6348 37.9624 52.4942C38.0192 52.3535 38.1034 52.2253 38.2102 52.1169C38.317 52.0085 38.4443 51.922 38.5848 51.8623L56.0599 44.4374C57.008 44.0368 58.0706 43.9904 59.0507 44.3068C60.0307 44.6232 60.8617 45.2809 61.3895 46.1581C61.9593 47.1115 62.139 48.2449 61.8916 49.3255C61.6442 50.406 60.9886 51.3517 60.0594 51.9684L46.3974 61.0382C43.7058 62.8245 40.5403 63.7806 37.3006 63.7858Z" fill="url(#paint4_linear_1_705)"/>
<path d="M36.579 55.1825C36.391 55.1834 36.203 55.1723 36.0164 55.1492L23.5163 53.577C23.2132 53.5367 22.9385 53.3793 22.752 53.1392C22.5656 52.8991 22.4824 52.5957 22.5208 52.2952C22.5591 51.9946 22.7158 51.7212 22.9567 51.5346C23.1976 51.348 23.5031 51.2633 23.8068 51.2989L36.3068 52.8681C36.5851 52.9111 36.8692 52.8993 37.1429 52.8335C37.4166 52.7677 37.6745 52.6491 37.9019 52.4846C38.1294 52.32 38.3218 52.1127 38.4684 51.8744C38.615 51.6361 38.7127 51.3716 38.7561 51.096C38.7995 50.8203 38.7876 50.5388 38.7212 50.2677C38.6547 49.9965 38.5351 49.741 38.369 49.5156C38.2029 49.2903 37.9936 49.0996 37.7531 48.9544C37.5126 48.8092 37.2456 48.7124 36.9673 48.6694L18.5291 45.2887C17.2637 45.0533 15.9556 45.2175 14.7895 45.7582L9.87568 48.0212C9.59671 48.1497 9.2776 48.1632 8.98859 48.0587C8.69958 47.9541 8.46432 47.7401 8.33456 47.4637C8.20481 47.1874 8.1912 46.8712 8.29672 46.5849C8.40223 46.2986 8.61824 46.0655 8.89722 45.937L13.811 43.6741C15.4147 42.9341 17.2117 42.7085 18.9511 43.0288L37.3893 46.4095C38.5012 46.5927 39.502 47.1858 40.1908 48.0697C40.8796 48.9536 41.2054 50.0629 41.1028 51.1749C41.0002 52.287 40.4768 53.3194 39.6377 54.065C38.7987 54.8106 37.706 55.2141 36.579 55.1946V55.1825Z" fill="url(#paint5_linear_1_705)"/>
<path d="M8.13889 67C7.90117 67.0004 7.66906 66.9282 7.47426 66.7932C7.27946 66.6583 7.13144 66.467 7.05031 66.2457L0.0694481 47.3123C-0.0351286 47.0262 -0.0211505 46.7108 0.108342 46.4349C0.237834 46.159 0.472312 45.9451 0.760502 45.84L8.00123 43.2196C8.28994 43.1152 8.60874 43.1286 8.88743 43.257C9.16612 43.3854 9.3819 43.6182 9.48733 43.9042L16.4682 62.8376C16.5728 63.1237 16.5587 63.4392 16.4292 63.715C16.2997 63.9909 16.0653 64.2048 15.7771 64.3099L8.53634 66.9303C8.40909 66.9768 8.27453 67.0004 8.13889 67ZM2.63494 47.6122L8.8177 64.3887L13.8782 62.5559L7.7077 45.7764L2.63494 47.6122Z" fill="url(#paint6_linear_1_705)"/>
<defs>
<linearGradient id="paint0_linear_1_705" x1="31" y1="11.8602" x2="31" y2="51.6025" gradientUnits="userSpaceOnUse">
<stop stop-color="#8D39D1"/>
<stop offset="1" stop-color="#3F127B"/>
</linearGradient>
<linearGradient id="paint1_linear_1_705" x1="31" y1="11.8602" x2="31" y2="51.6025" gradientUnits="userSpaceOnUse">
<stop stop-color="#8D39D1"/>
<stop offset="1" stop-color="#3F127B"/>
</linearGradient>
<linearGradient id="paint2_linear_1_705" x1="31" y1="11.8602" x2="31" y2="51.6025" gradientUnits="userSpaceOnUse">
<stop stop-color="#8D39D1"/>
<stop offset="1" stop-color="#3F127B"/>
</linearGradient>
<linearGradient id="paint3_linear_1_705" x1="31" y1="11.8602" x2="31" y2="51.6025" gradientUnits="userSpaceOnUse">
<stop stop-color="#8D39D1"/>
<stop offset="1" stop-color="#3F127B"/>
</linearGradient>
<linearGradient id="paint4_linear_1_705" x1="31" y1="11.8602" x2="31" y2="51.6025" gradientUnits="userSpaceOnUse">
<stop stop-color="#8D39D1"/>
<stop offset="1" stop-color="#3F127B"/>
</linearGradient>
<linearGradient id="paint5_linear_1_705" x1="31" y1="11.8602" x2="31" y2="51.6025" gradientUnits="userSpaceOnUse">
<stop stop-color="#8D39D1"/>
<stop offset="1" stop-color="#3F127B"/>
</linearGradient>
<linearGradient id="paint6_linear_1_705" x1="31" y1="11.8602" x2="31" y2="51.6025" gradientUnits="userSpaceOnUse">
<stop stop-color="#8D39D1"/>
<stop offset="1" stop-color="#3F127B"/>
</linearGradient>
</defs>
</svg>
