<svg width="40" height="44" viewBox="0 0 40 44" fill="none" xmlns="http://www.w3.org/2000/svg">
<path d="M9.13464 29.3015V33.2375H23.2181V34.775H9.13464V44H7.10514V34.775H0.401641V33.2375H7.10514V0.949997H22.0496C27.4206 0.949997 31.6026 2.2005 34.5956 4.7015C37.6296 7.1615 39.1466 10.6465 39.1466 15.1565C39.1466 19.6255 37.6296 23.1105 34.5956 25.6115C31.6026 28.0715 27.4206 29.3015 22.0496 29.3015H9.13464ZM9.13464 2.8565V27.4565H22.1726C26.9696 27.4565 30.6391 26.3905 33.1811 24.2585C35.7641 22.1265 37.0556 19.0925 37.0556 15.1565C37.0556 11.2205 35.7641 8.1865 33.1811 6.0545C30.6391 3.9225 26.9696 2.8565 22.1726 2.8565H9.13464Z" fill="url(#paint0_linear_1_309)"/>
<defs>
<linearGradient id="paint0_linear_1_309" x1="13" y1="8.6118" x2="13" y2="34.118" gradientUnits="userSpaceOnUse">
<stop stop-color="#8D39D1"/>
<stop offset="1" stop-color="#3F127B"/>
</linearGradient>
</defs>
</svg>
