<svg width="74" height="47" viewBox="0 0 74 47" fill="none" xmlns="http://www.w3.org/2000/svg">
<path d="M10.4932 37.1842C9.47296 37.1842 8.47559 36.879 7.62727 36.3071C6.77894 35.7352 6.11774 34.9223 5.7273 33.9713C5.33686 33.0203 5.23472 31.9738 5.43376 30.9642C5.63281 29.9546 6.12412 29.0273 6.84556 28.2994C7.567 27.5715 8.48617 27.0758 9.48684 26.875C10.4875 26.6742 11.5247 26.7772 12.4673 27.1711C13.4099 27.5651 14.2156 28.2322 14.7824 29.0881C15.3493 29.944 15.6518 30.9502 15.6518 31.9796C15.6499 33.3593 15.1058 34.682 14.1388 35.6577C13.1718 36.6333 11.8608 37.1823 10.4932 37.1842ZM10.4932 28.6218C9.83499 28.6218 9.19153 28.8187 8.64422 29.1877C8.09692 29.5566 7.67035 30.0811 7.41845 30.6946C7.16656 31.3082 7.10065 31.9833 7.22907 32.6347C7.35749 33.286 7.67445 33.8843 8.1399 34.3539C8.60534 34.8235 9.19835 35.1433 9.84394 35.2729C10.4895 35.4024 11.1587 35.336 11.7668 35.0818C12.375 34.8277 12.8948 34.3973 13.2604 33.8451C13.6261 33.2929 13.8214 32.6437 13.8214 31.9796C13.8207 31.0892 13.4699 30.2355 12.8459 29.606C12.2218 28.9764 11.3757 28.6224 10.4932 28.6218Z" fill="url(#paint0_linear_1_720)"/>
<path d="M20.0917 46.9997C19.8493 46.9997 19.6168 46.9026 19.4454 46.7296C19.274 46.5567 19.1777 46.3221 19.1777 46.0775V42.8146C19.1739 42.235 18.944 41.6802 18.5378 41.2704C18.1315 40.8605 17.5817 40.6286 17.0072 40.6248H4.00097C3.42629 40.628 2.87607 40.8597 2.46971 41.2697C2.06334 41.6797 1.83362 42.2348 1.83046 42.8146V46.0775C1.81841 46.3143 1.71674 46.5373 1.54643 46.7005C1.37611 46.8637 1.15016 46.9548 0.915243 46.9548C0.680325 46.9548 0.45438 46.8637 0.284061 46.7005C0.113743 46.5373 0.0120471 46.3143 0 46.0775V42.8146C0.00127646 41.7419 0.424245 40.7134 1.17611 39.9548C1.92797 39.1962 2.94733 38.7695 4.01063 38.7682H17.0168C18.0801 38.7695 19.0995 39.1962 19.8514 39.9548C20.6032 40.7134 21.0262 41.7419 21.0274 42.8146V46.0775C21.0275 46.2005 21.0031 46.3223 20.9559 46.4356C20.9086 46.5489 20.8393 46.6516 20.7521 46.7375C20.6649 46.8234 20.5616 46.8909 20.4481 46.9359C20.3347 46.981 20.2136 47.0027 20.0917 46.9997Z" fill="url(#paint1_linear_1_720)"/>
<path d="M63.4634 37.1842C62.4431 37.1842 61.4457 36.879 60.5974 36.3071C59.7491 35.7352 59.0879 34.9223 58.6975 33.9713C58.307 33.0203 58.2049 31.9738 58.4039 30.9642C58.603 29.9546 59.0943 29.0273 59.8157 28.2994C60.5372 27.5715 61.4563 27.0758 62.457 26.875C63.4577 26.6742 64.4949 26.7772 65.4375 27.1711C66.3801 27.5651 67.1858 28.2322 67.7526 29.0881C68.3194 29.944 68.622 30.9502 68.622 31.9796C68.6201 33.3593 68.0759 34.682 67.1089 35.6577C66.1419 36.6333 64.8309 37.1823 63.4634 37.1842ZM63.4634 28.6218C62.8052 28.6222 62.162 28.8196 61.615 29.1888C61.068 29.5581 60.6418 30.0827 60.3903 30.6963C60.1388 31.3099 60.0732 31.985 60.2019 32.6362C60.3306 33.2874 60.6478 33.8854 61.1133 34.3548C61.5789 34.8241 62.1719 35.1437 62.8174 35.2731C63.4629 35.4024 64.132 35.3358 64.74 35.0816C65.348 34.8274 65.8676 34.397 66.2332 33.8448C66.5988 33.2927 66.7939 32.6436 66.7939 31.9796C66.7933 31.0888 66.4421 30.2348 65.8176 29.6051C65.193 28.9755 64.3463 28.6218 63.4634 28.6218Z" fill="url(#paint2_linear_1_720)"/>
<path d="M73.0643 46.9997C72.8216 46.9997 72.5889 46.9027 72.4171 46.7298C72.2453 46.5569 72.1485 46.3224 72.1479 46.0775V42.8146C72.1447 42.2348 71.915 41.6797 71.5086 41.2697C71.1022 40.8597 70.552 40.628 69.9773 40.6248H56.9711C56.3966 40.6286 55.8468 40.8605 55.4405 41.2704C55.0343 41.6802 54.8044 42.235 54.8006 42.8146V46.0775C54.8006 46.3221 54.7043 46.5567 54.5329 46.7296C54.3615 46.9026 54.129 46.9997 53.8866 46.9997C53.6442 46.9997 53.4117 46.9026 53.2403 46.7296C53.0689 46.5567 52.9726 46.3221 52.9726 46.0775V42.8146C52.9738 41.7419 53.3968 40.7134 54.1486 39.9548C54.9005 39.1962 55.9199 38.7695 56.9832 38.7682H69.9894C71.0527 38.7695 72.0721 39.1962 72.8239 39.9548C73.5758 40.7134 73.9987 41.7419 74 42.8146V46.0775C74 46.2005 73.9757 46.3223 73.9284 46.4356C73.8811 46.5489 73.8119 46.6516 73.7247 46.7375C73.6375 46.8234 73.5341 46.8909 73.4207 46.9359C73.3073 46.981 73.1861 47.0027 73.0643 46.9997Z" fill="url(#paint3_linear_1_720)"/>
<path d="M36.9783 22.7504C35.9578 22.749 34.9607 22.4422 34.1131 21.8689C33.2654 21.2956 32.6054 20.4815 32.2164 19.5297C31.8274 18.5778 31.727 17.5309 31.9279 16.5215C32.1287 15.512 32.6218 14.5854 33.3447 13.8587C34.0677 13.1321 34.988 12.6381 35.9892 12.4392C36.9905 12.2403 38.0277 12.3456 38.9697 12.7416C39.9116 13.1376 40.7161 13.8066 41.2811 14.6639C41.8462 15.5212 42.1465 16.5284 42.1441 17.558C42.1397 18.9371 41.5934 20.2581 40.625 21.2315C39.6566 22.2048 38.3452 22.7511 36.9783 22.7504ZM36.9783 14.188C36.3195 14.1875 35.6753 14.3842 35.1273 14.7531C34.5793 15.1221 34.152 15.6467 33.8996 16.2607C33.6471 16.8746 33.5808 17.5503 33.7091 18.2023C33.8373 18.8543 34.1543 19.4533 34.62 19.9234C35.0857 20.3936 35.6791 20.7139 36.3252 20.8438C36.9714 20.9736 37.6412 20.9072 38.2499 20.6529C38.8586 20.3987 39.3789 19.968 39.745 19.4153C40.111 18.8627 40.3064 18.2129 40.3064 17.5482C40.3058 16.6577 39.955 15.8037 39.3311 15.1738C38.7072 14.5438 37.861 14.1893 36.9783 14.188Z" fill="url(#paint4_linear_1_720)"/>
<path d="M46.5768 32.5563C46.3344 32.5563 46.1019 32.4591 45.9305 32.2861C45.7591 32.1132 45.6628 31.8786 45.6628 31.6341V28.3711C45.659 27.7915 45.4291 27.2367 45.0229 26.8269C44.6166 26.417 44.0667 26.1851 43.4922 26.1812H30.4861C29.9116 26.1851 29.3617 26.417 28.9554 26.8269C28.5492 27.2367 28.3193 27.7915 28.3156 28.3711V31.6341C28.3035 31.8708 28.2018 32.0938 28.0315 32.257C27.8612 32.4202 27.6352 32.5113 27.4003 32.5113C27.1654 32.5113 26.9394 32.4202 26.7691 32.257C26.5988 32.0938 26.4971 31.8708 26.4851 31.6341V28.3711C26.487 27.2981 26.9105 26.2697 27.6627 25.5112C28.415 24.7527 29.4346 24.326 30.4981 24.3247H43.5043C44.5674 24.3267 45.5864 24.7536 46.3381 25.512C47.0898 26.2705 47.513 27.2985 47.5149 28.3711V31.6341C47.515 31.7572 47.4906 31.8792 47.4431 31.9927C47.3957 32.1062 47.3262 32.2089 47.2387 32.2949C47.1513 32.3809 47.0477 32.4483 46.934 32.4932C46.8203 32.5381 46.6988 32.5595 46.5768 32.5563Z" fill="url(#paint5_linear_1_720)"/>
<path d="M36.9783 42.5397C33.0346 42.5397 29.1794 41.3598 25.9004 39.1492C22.6213 36.9387 20.0655 33.7967 18.5563 30.1207C17.0471 26.4446 16.6523 22.3997 17.4216 18.4972C18.191 14.5947 20.0901 11.0101 22.8787 8.19658C25.6674 5.38306 29.2203 3.46705 33.0882 2.6908C36.9562 1.91455 40.9654 2.31295 44.6089 3.83561C48.2524 5.35827 51.3666 7.93681 53.5576 11.2451C55.7486 14.5535 56.9181 18.443 56.9181 22.422C56.9123 27.7557 54.8097 32.8694 51.0715 36.6409C47.3333 40.4125 42.2649 42.5339 36.9783 42.5397ZM36.9783 4.14861C33.3961 4.14861 29.8944 5.22032 26.916 7.22822C23.9375 9.23613 21.6161 12.09 20.2452 15.4291C18.8744 18.7681 18.5157 22.4422 19.2146 25.9869C19.9134 29.5316 21.6384 32.7876 24.1714 35.3432C26.7043 37.8987 29.9315 39.6391 33.4449 40.3442C36.9582 41.0493 40.5999 40.6874 43.9094 39.3043C47.2188 37.9213 50.0475 35.5791 52.0376 32.5741C54.0278 29.5691 55.09 26.0361 55.09 22.422C55.0843 17.5773 53.1742 12.9328 49.7789 9.50715C46.3835 6.08149 41.78 4.15441 36.9783 4.14861Z" fill="url(#paint6_linear_1_720)"/>
<path d="M36.9783 6.36526C36.7359 6.36526 36.5034 6.2681 36.332 6.09515C36.1606 5.92221 36.0643 5.68765 36.0643 5.44307V0.922193C36.0643 0.677615 36.1606 0.443055 36.332 0.270112C36.5034 0.0971686 36.7359 0 36.9783 0C37.2207 0 37.4532 0.0971686 37.6246 0.270112C37.796 0.443055 37.8923 0.677615 37.8923 0.922193V5.44307C37.8923 5.68765 37.796 5.92221 37.6246 6.09515C37.4532 6.2681 37.2207 6.36526 36.9783 6.36526Z" fill="url(#paint7_linear_1_720)"/>
<path d="M36.9783 44.8488C36.7359 44.8488 36.5034 44.7516 36.332 44.5787C36.1606 44.4057 36.0643 44.1712 36.0643 43.9266V39.4057C36.0643 39.1611 36.1606 38.9266 36.332 38.7536C36.5034 38.5807 36.7359 38.4835 36.9783 38.4835C37.2207 38.4835 37.4532 38.5807 37.6246 38.7536C37.796 38.9266 37.8923 39.1611 37.8923 39.4057V43.9266C37.8923 44.1712 37.796 44.4057 37.6246 44.5787C37.4532 44.7516 37.2207 44.8488 36.9783 44.8488Z" fill="url(#paint8_linear_1_720)"/>
<path d="M58.3024 23.3442H53.8215C53.5791 23.3442 53.3466 23.247 53.1752 23.074C53.0038 22.9011 52.9075 22.6665 52.9075 22.422C52.9075 22.1774 53.0038 21.9428 53.1752 21.7699C53.3466 21.5969 53.5791 21.4998 53.8215 21.4998H58.3024C58.5448 21.4998 58.7773 21.5969 58.9487 21.7699C59.1201 21.9428 59.2164 22.1774 59.2164 22.422C59.2164 22.6665 59.1201 22.9011 58.9487 23.074C58.7773 23.247 58.5448 23.3442 58.3024 23.3442Z" fill="url(#paint9_linear_1_720)"/>
<path d="M20.1448 23.3442H15.6639C15.4214 23.3442 15.189 23.247 15.0175 23.074C14.8461 22.9011 14.7498 22.6665 14.7498 22.422C14.7498 22.1774 14.8461 21.9428 15.0175 21.7699C15.189 21.5969 15.4214 21.4998 15.6639 21.4998H20.1448C20.3872 21.4998 20.6197 21.5969 20.7911 21.7699C20.9625 21.9428 21.0588 22.1774 21.0588 22.422C21.0588 22.6665 20.9625 22.9011 20.7911 23.074C20.6197 23.247 20.3872 23.3442 20.1448 23.3442Z" fill="url(#paint10_linear_1_720)"/>
<defs>
<linearGradient id="paint0_linear_1_720" x1="37" y1="8.31988" x2="37" y2="36.1988" gradientUnits="userSpaceOnUse">
<stop stop-color="#8D39D1"/>
<stop offset="1" stop-color="#3F127B"/>
</linearGradient>
<linearGradient id="paint1_linear_1_720" x1="37" y1="8.31988" x2="37" y2="36.1988" gradientUnits="userSpaceOnUse">
<stop stop-color="#8D39D1"/>
<stop offset="1" stop-color="#3F127B"/>
</linearGradient>
<linearGradient id="paint2_linear_1_720" x1="37" y1="8.31988" x2="37" y2="36.1988" gradientUnits="userSpaceOnUse">
<stop stop-color="#8D39D1"/>
<stop offset="1" stop-color="#3F127B"/>
</linearGradient>
<linearGradient id="paint3_linear_1_720" x1="37" y1="8.31988" x2="37" y2="36.1988" gradientUnits="userSpaceOnUse">
<stop stop-color="#8D39D1"/>
<stop offset="1" stop-color="#3F127B"/>
</linearGradient>
<linearGradient id="paint4_linear_1_720" x1="37" y1="8.31988" x2="37" y2="36.1988" gradientUnits="userSpaceOnUse">
<stop stop-color="#8D39D1"/>
<stop offset="1" stop-color="#3F127B"/>
</linearGradient>
<linearGradient id="paint5_linear_1_720" x1="37" y1="8.31988" x2="37" y2="36.1988" gradientUnits="userSpaceOnUse">
<stop stop-color="#8D39D1"/>
<stop offset="1" stop-color="#3F127B"/>
</linearGradient>
<linearGradient id="paint6_linear_1_720" x1="37" y1="8.31988" x2="37" y2="36.1988" gradientUnits="userSpaceOnUse">
<stop stop-color="#8D39D1"/>
<stop offset="1" stop-color="#3F127B"/>
</linearGradient>
<linearGradient id="paint7_linear_1_720" x1="37" y1="8.31988" x2="37" y2="36.1988" gradientUnits="userSpaceOnUse">
<stop stop-color="#8D39D1"/>
<stop offset="1" stop-color="#3F127B"/>
</linearGradient>
<linearGradient id="paint8_linear_1_720" x1="37" y1="8.31988" x2="37" y2="36.1988" gradientUnits="userSpaceOnUse">
<stop stop-color="#8D39D1"/>
<stop offset="1" stop-color="#3F127B"/>
</linearGradient>
<linearGradient id="paint9_linear_1_720" x1="37" y1="8.31988" x2="37" y2="36.1988" gradientUnits="userSpaceOnUse">
<stop stop-color="#8D39D1"/>
<stop offset="1" stop-color="#3F127B"/>
</linearGradient>
<linearGradient id="paint10_linear_1_720" x1="37" y1="8.31988" x2="37" y2="36.1988" gradientUnits="userSpaceOnUse">
<stop stop-color="#8D39D1"/>
<stop offset="1" stop-color="#3F127B"/>
</linearGradient>
</defs>
</svg>
