<svg width="66" height="56" viewBox="0 0 66 56" fill="none" xmlns="http://www.w3.org/2000/svg">
<path d="M46.9662 36.0238C36.712 36.0238 28.6822 31.846 28.6822 26.5102C28.6822 21.1743 36.712 16.9941 46.9662 16.9941C57.2204 16.9941 65.2403 21.1768 65.2403 26.5102C65.2403 31.8436 57.2179 36.0238 46.9662 36.0238ZM46.9662 18.8755C38.0764 18.8755 30.5635 22.3697 30.5635 26.5077C30.5635 30.6457 38.0739 34.1375 46.9662 34.1375C55.8585 34.1375 63.3689 30.6432 63.3689 26.5077C63.3689 22.3722 55.8535 18.8779 46.9662 18.8779V18.8755Z" fill="url(#paint0_linear_1_317)"/>
<path d="M46.9662 42.5203C36.712 42.5203 28.6822 38.3425 28.6822 33.0067V26.5102C28.6822 26.2604 28.7814 26.0208 28.958 25.8442C29.1347 25.6676 29.3742 25.5683 29.6241 25.5683C29.8739 25.5683 30.1135 25.6676 30.2901 25.8442C30.4668 26.0208 30.566 26.2604 30.566 26.5102V33.0067C30.566 37.1422 38.0764 40.6365 46.9687 40.6365C55.861 40.6365 63.3714 37.1422 63.3714 33.0067V26.5102C63.3714 26.2604 63.4707 26.0208 63.6473 25.8442C63.8239 25.6676 64.0635 25.5683 64.3133 25.5683C64.5631 25.5683 64.8027 25.6676 64.9794 25.8442C65.156 26.0208 65.2553 26.2604 65.2553 26.5102V33.0067C65.2403 38.3425 57.2179 42.5203 46.9662 42.5203Z" fill="url(#paint1_linear_1_317)"/>
<path d="M46.9662 49.141C36.712 49.141 28.6822 44.9633 28.6822 39.6274V33.131C28.6822 32.8811 28.7814 32.6416 28.958 32.4649C29.1347 32.2883 29.3742 32.1891 29.6241 32.1891C29.8739 32.1891 30.1135 32.2883 30.2901 32.4649C30.4668 32.6416 30.566 32.8811 30.566 33.131V39.6274C30.566 43.7629 38.0764 47.2572 46.9687 47.2572C55.861 47.2572 63.3714 43.7629 63.3714 39.6274V33.131C63.3714 32.8811 63.4707 32.6416 63.6473 32.4649C63.8239 32.2883 64.0635 32.1891 64.3133 32.1891C64.5631 32.1891 64.8027 32.2883 64.9794 32.4649C65.156 32.6416 65.2553 32.8811 65.2553 33.131V39.6274C65.2403 44.9633 57.2179 49.141 46.9662 49.141Z" fill="url(#paint2_linear_1_317)"/>
<path d="M46.9662 55.7643C36.712 55.7643 28.6822 51.5841 28.6822 46.2482V39.7517C28.6822 39.5019 28.7814 39.2623 28.958 39.0857C29.1347 38.9091 29.3742 38.8098 29.6241 38.8098C29.8739 38.8098 30.1135 38.9091 30.2901 39.0857C30.4668 39.2623 30.566 39.5019 30.566 39.7517V46.2482C30.566 50.3862 38.0764 53.8779 46.9687 53.8779C55.861 53.8779 63.3714 50.3986 63.3714 46.2482V39.7517C63.3714 39.5019 63.4707 39.2623 63.6473 39.0857C63.8239 38.9091 64.0635 38.8098 64.3133 38.8098C64.5631 38.8098 64.8027 38.9091 64.9794 39.0857C65.156 39.2623 65.2553 39.5019 65.2553 39.7517V46.2482C65.2403 51.5841 57.2179 55.7643 46.9662 55.7643Z" fill="url(#paint3_linear_1_317)"/>
<path d="M22.2998 44.6104C18.1075 44.6094 14.0004 43.427 10.4494 41.1987C6.89844 38.9704 4.04729 35.7865 2.2229 32.0121C0.398515 28.2376 -0.325244 24.0254 0.134611 19.8585C0.594467 15.6916 2.21933 11.7386 4.82287 8.4528C7.42641 5.16701 10.9032 2.68146 14.8547 1.28114C18.8061 -0.119176 23.0722 -0.377578 27.1638 0.535581C31.2554 1.44874 35.0067 3.49649 37.9878 6.44402C40.9689 9.39155 43.059 13.1195 44.0184 17.2005C44.0467 17.3211 44.0509 17.4461 44.0308 17.5683C44.0108 17.6905 43.9668 17.8076 43.9015 17.9128C43.8362 18.018 43.7508 18.1094 43.6502 18.1816C43.5496 18.2538 43.4357 18.3055 43.3151 18.3338C43.1945 18.362 43.0696 18.3662 42.9473 18.3461C42.8251 18.3261 42.7081 18.2821 42.6028 18.2168C42.4976 18.1515 42.4062 18.0661 42.334 17.9655C42.2618 17.8649 42.2101 17.751 42.1818 17.6304C41.2327 13.6011 39.0808 9.95558 36.0117 7.17758C32.9426 4.39959 29.1014 2.62043 24.9977 2.07617C20.894 1.53192 16.7219 2.24831 13.0348 4.13026C9.34764 6.01221 6.31989 8.97077 4.35324 12.6134C2.3866 16.256 1.574 20.4106 2.02328 24.5258C2.47257 28.6409 4.1625 32.5222 6.86884 35.6547C9.57518 38.7872 13.17 41.0227 17.1763 42.0647C21.1827 43.1067 25.4112 42.9059 29.3007 41.4889C29.5357 41.4032 29.7951 41.4144 30.0219 41.52C30.2486 41.6256 30.4241 41.8169 30.5098 42.0518C30.5955 42.2868 30.5843 42.5462 30.4788 42.773C30.3732 42.9997 30.1819 43.1752 29.9469 43.2609C27.4966 44.1553 24.9082 44.6121 22.2998 44.6104Z" fill="url(#paint4_linear_1_317)"/>
<path d="M22.3 8.31064C22.0502 8.31064 21.8106 8.21141 21.634 8.03476C21.4573 7.85812 21.3581 7.61854 21.3581 7.36873V5.08975C21.3581 4.96606 21.3825 4.84357 21.4298 4.72929C21.4771 4.61501 21.5465 4.51118 21.634 4.42372C21.7215 4.33625 21.8253 4.26687 21.9396 4.21953C22.0539 4.17219 22.1763 4.14783 22.3 4.14783C22.4237 4.14783 22.5462 4.17219 22.6605 4.21953C22.7748 4.26687 22.8786 4.33625 22.9661 4.42372C23.0535 4.51118 23.1229 4.61501 23.1703 4.72929C23.2176 4.84357 23.2419 4.96606 23.2419 5.08975V7.36873C23.2419 7.61854 23.1427 7.85812 22.9661 8.03476C22.7894 8.21141 22.5498 8.31064 22.3 8.31064Z" fill="url(#paint5_linear_1_317)"/>
<path d="M5.09692 23.2472C4.84711 23.2472 4.60753 23.1479 4.43089 22.9713C4.25424 22.7946 4.155 22.5551 4.155 22.3052C4.155 22.0554 4.25424 21.8159 4.43089 21.6392C4.60753 21.4626 4.84711 21.3633 5.09692 21.3633H7.37343C7.62324 21.3633 7.86282 21.4626 8.03946 21.6392C8.2161 21.8159 8.31532 22.0554 8.31532 22.3052C8.31532 22.5551 8.2161 22.7946 8.03946 22.9713C7.86282 23.1479 7.62324 23.2472 7.37343 23.2472H5.09692Z" fill="url(#paint6_linear_1_317)"/>
<path d="M22.3 40.4624C22.0502 40.4624 21.8106 40.3632 21.634 40.1866C21.4573 40.0099 21.3581 39.7704 21.3581 39.5206V37.244C21.3581 37.1204 21.3825 36.9978 21.4298 36.8836C21.4771 36.7693 21.5465 36.6655 21.634 36.578C21.7215 36.4905 21.8253 36.4211 21.9396 36.3738C22.0539 36.3265 22.1763 36.3021 22.3 36.3021C22.4237 36.3021 22.5462 36.3265 22.6605 36.3738C22.7748 36.4211 22.8786 36.4905 22.966 36.578C23.0535 36.6655 23.1229 36.7693 23.1703 36.8836C23.2176 36.9978 23.2419 37.1204 23.2419 37.244V39.5206C23.2423 39.6443 23.2181 39.767 23.1709 39.8814C23.1237 39.9958 23.0543 40.0998 22.9668 40.1873C22.8792 40.2748 22.7753 40.3442 22.6609 40.3914C22.5464 40.4386 22.4238 40.4628 22.3 40.4624Z" fill="url(#paint7_linear_1_317)"/>
<path d="M22.3 23.247C22.1837 23.2471 22.0683 23.226 21.9595 23.1848C21.8229 23.1316 21.7006 23.0473 21.6023 22.9386C21.5039 22.8299 21.4322 22.6998 21.3929 22.5586L18.7187 12.9754C18.6783 12.854 18.6631 12.7256 18.6739 12.5981C18.6848 12.4706 18.7215 12.3466 18.7818 12.2338C18.8422 12.121 18.9249 12.0216 19.0249 11.9418C19.1249 11.862 19.2402 11.8034 19.3636 11.7695C19.487 11.7357 19.616 11.7274 19.7427 11.7451C19.8695 11.7628 19.9913 11.8062 20.1007 11.8725C20.2101 11.9388 20.3049 12.0267 20.3792 12.1309C20.4535 12.2351 20.5058 12.3533 20.533 12.4783L22.8691 20.8537L26.4056 18.6169C26.6165 18.5038 26.8625 18.4751 27.0937 18.5368C27.3249 18.5984 27.5239 18.7457 27.6505 18.9488C27.777 19.1519 27.8215 19.3955 27.7749 19.6302C27.7284 19.8649 27.5942 20.0731 27.3997 20.2125L22.7945 23.1103C22.6457 23.2011 22.4744 23.2485 22.3 23.247Z" fill="url(#paint8_linear_1_317)"/>
<defs>
<linearGradient id="paint0_linear_1_317" x1="32.6276" y1="9.87132" x2="32.6276" y2="42.9489" gradientUnits="userSpaceOnUse">
<stop stop-color="#8D39D1"/>
<stop offset="1" stop-color="#3F127B"/>
</linearGradient>
<linearGradient id="paint1_linear_1_317" x1="32.6276" y1="9.87132" x2="32.6276" y2="42.9489" gradientUnits="userSpaceOnUse">
<stop stop-color="#8D39D1"/>
<stop offset="1" stop-color="#3F127B"/>
</linearGradient>
<linearGradient id="paint2_linear_1_317" x1="32.6276" y1="9.87132" x2="32.6276" y2="42.9489" gradientUnits="userSpaceOnUse">
<stop stop-color="#8D39D1"/>
<stop offset="1" stop-color="#3F127B"/>
</linearGradient>
<linearGradient id="paint3_linear_1_317" x1="32.6276" y1="9.87132" x2="32.6276" y2="42.9489" gradientUnits="userSpaceOnUse">
<stop stop-color="#8D39D1"/>
<stop offset="1" stop-color="#3F127B"/>
</linearGradient>
<linearGradient id="paint4_linear_1_317" x1="32.6276" y1="9.87132" x2="32.6276" y2="42.9489" gradientUnits="userSpaceOnUse">
<stop stop-color="#8D39D1"/>
<stop offset="1" stop-color="#3F127B"/>
</linearGradient>
<linearGradient id="paint5_linear_1_317" x1="32.6276" y1="9.87132" x2="32.6276" y2="42.9489" gradientUnits="userSpaceOnUse">
<stop stop-color="#8D39D1"/>
<stop offset="1" stop-color="#3F127B"/>
</linearGradient>
<linearGradient id="paint6_linear_1_317" x1="32.6276" y1="9.87132" x2="32.6276" y2="42.9489" gradientUnits="userSpaceOnUse">
<stop stop-color="#8D39D1"/>
<stop offset="1" stop-color="#3F127B"/>
</linearGradient>
<linearGradient id="paint7_linear_1_317" x1="32.6276" y1="9.87132" x2="32.6276" y2="42.9489" gradientUnits="userSpaceOnUse">
<stop stop-color="#8D39D1"/>
<stop offset="1" stop-color="#3F127B"/>
</linearGradient>
<linearGradient id="paint8_linear_1_317" x1="32.6276" y1="9.87132" x2="32.6276" y2="42.9489" gradientUnits="userSpaceOnUse">
<stop stop-color="#8D39D1"/>
<stop offset="1" stop-color="#3F127B"/>
</linearGradient>
</defs>
</svg>
