<svg xmlns="http://www.w3.org/2000/svg" id="garbage" viewBox="0 0 382.99 329.24"><g><g><path fill="#323D5B" d="M382.29,72.2C380.55,63.05,376.15,55,368,50.94c-6.87-3.42-7.65-7.85-7.55-14.47C360.77,14.06,346.57,0,324.26,0H167.13Q112,0,56.77,0C40.6,0,27.43,10.1,23.4,25.32c-1.63,6.13-1,12.39-1,18.6,0,2.18-.72,3.11-2.67,4.07C6.63,54.4-.41,65,0,79.59.44,94,8,104.11,21.25,109.82c2.21,1,3.16,1.89,3.45,4.41,2.15,18.56,4.53,37.1,6.85,55.64,3.43,27.44,7,54.86,10.24,82.33,2.25,19.11,13.31,33.49,30.33,38,2.83.75,3.64,2,4,4.66,2.91,19.44,20.31,34.25,40.18,34.38,20.06.13,37.7-14.6,40.69-34.2.42-2.77,1.46-3.28,4-3.27q30.48.17,61,0c2.42,0,3.4.5,3.8,3.09a41,41,0,0,0,80.91-.22c.38-2.49,1.23-3.71,3.85-4.4a40.65,40.65,0,0,0,29.79-33.83c2.62-20.39,5.11-40.79,7.68-61.19q5.1-40.59,10.16-81.21c.25-2.07.78-3.22,2.9-4,10.56-4.06,17.41-11.63,20.66-22.5.29-1-.07-2.33,1.21-2.93V73.34C382.4,73.17,382.38,72.7,382.29,72.2ZM44.73,40.91a65.63,65.63,0,0,0,.05-6.73c.12-6.95,4.8-11.69,11.79-11.71,16.83,0,33.66,0,50.48,0H324.31c9.72,0,13.78,4.08,13.79,13.85,0,8.6,0,8.6-8.62,8.6h-138c-47.61,0-95.23,0-142.84.09C45.23,45,44.36,44.06,44.73,40.91Zm71.75,265.88a18.7,18.7,0,1,1,18.83-18.66A18.78,18.78,0,0,1,116.48,306.79Zm149.61,0A18.7,18.7,0,1,1,285,288.17,18.77,18.77,0,0,1,266.09,306.79Zm69.36-190.7c-3.8,28.9-7.29,57.83-10.88,86.76q-3,24.47-6.1,48.94c-1,8-5.07,13.61-12.66,16.56-2,.77-3.17.52-4.49-1.58-16.9-26.69-53.77-26.46-70.39.41a4.14,4.14,0,0,1-4.14,2.25q-35.34-.1-70.69,0c-2.18,0-3.23-.75-4.35-2.56-16.28-26.38-53.56-26.66-70-.46-1.6,2.54-3,2.68-5.35,1.65-6.3-2.72-10.55-7.24-11.5-14.07-2.15-15.29-4-30.62-5.91-45.94q-4.71-37.44-9.37-74.89c-.79-6.31-1.54-12.61-2.45-18.9-.25-1.79.38-2.19,1.94-2,.74.07,1.49,0,2.24,0H191.61q70.13,0,140.26-.06C335,112.18,335.93,112.43,335.45,116.09Zm25.06-36.52a11.42,11.42,0,0,1-11,10.22c-.87,0-1.74,0-2.62,0H36.06a17.41,17.41,0,0,1-5.55-.47A11.18,11.18,0,0,1,33.2,67.37c1.12-.06,2.24,0,3.37,0H191.4q77.81,0,155.59,0a20.88,20.88,0,0,1,4.82.32A11.25,11.25,0,0,1,360.51,79.57Z"/><path fill="#323D5B" d="M107,209.8c.23,2.48.42,4.95-.5,7.37a11.23,11.23,0,0,1-11.44,7.29,10.88,10.88,0,0,1-9.92-9.19c-.94-7.41-1.46-14.87-2.1-22.32q-1.86-21.78-3.62-43.58a21.18,21.18,0,0,1,0-5.57A11.19,11.19,0,0,1,101.59,145c1.55,17.75,3,35.5,4.49,53.26C106.4,202.09,106.69,206,107,209.8Z"/><path fill="#323D5B" d="M275.84,210.13q2.7-32.41,5.41-64.81A11.31,11.31,0,0,1,293,134.71a11.13,11.13,0,0,1,10.59,12.1c-.91,13.17-2.13,26.33-3.22,39.49-.66,7.82-1.3,15.64-2,23.46a50.64,50.64,0,0,1-.76,6.3,11.15,11.15,0,0,1-21.7-.35A19,19,0,0,1,275.84,210.13Z"/><path fill="#323D5B" d="M202.66,179.58c0,10.84,0,21.68,0,32.52,0,7.25-4.59,12.32-11.11,12.38s-11.32-5.06-11.32-12.55q0-32.33,0-64.66c0-7.5,4.63-12.62,11.3-12.57s11.13,5.16,11.14,12.74Q202.68,163.51,202.66,179.58Z"/><path fill="#323D5B" d="M251.75,179.37c-.43,11.08-.82,22.16-1.31,33.24-.42,9.45-9.42,14.88-17,10.25-4-2.41-5.62-6.1-5.43-10.73q1-23.91,1.93-47.81c.23-5.85.38-11.71.74-17.55.47-7.61,5.31-12.42,11.89-12.07s10.81,5.7,10.5,13.29c-.43,10.46-.82,20.92-1.23,31.38Z"/><path fill="#323D5B" d="M153.65,180.52c.4,10.46.87,20.92,1.19,31.38.22,7.29-4.29,12.43-10.83,12.58s-11.3-4.82-11.59-12q-1.33-32.49-2.62-65c-.29-7.05,3.94-12.27,10.29-12.76s11.65,4.22,12.06,11.46c.64,11.44,1,22.9,1.43,34.36Z"/></g></g></svg>