<svg xmlns="http://www.w3.org/2000/svg" id="gruzoperevozki" viewBox="0 0 447.91 313.9"><defs><style>.cls-1{fill:#323D5B;}</style></defs><title>Ресурс 1</title><g id="Слой_2" data-name="Слой 2"><g id="Capa_1" data-name="Capa 1"><path class="cls-1" d="M432.7,139.9l-30.5-13.2L376.3,76.3A40.78,40.78,0,0,0,339.6,54H295V41.4A41.14,41.14,0,0,0,254,0H40.8C18,0,0,18.7,0,41.4v193a25.14,25.14,0,0,0,24.8,25.5h5.7c0,1-.1,1.4-.1,2a51.8,51.8,0,0,0,103.6.4v-.5a15.56,15.56,0,0,0-.1-2H306.2v2a51.8,51.8,0,1,0,103.6.4v-2.5h12.9a25.22,25.22,0,0,0,25.2-25.2V163.1A25.08,25.08,0,0,0,432.7,139.9ZM82.3,294a31.8,31.8,0,1,1,31.8-31.8A31.75,31.75,0,0,1,82.3,294ZM275,240.1H129.2a51.73,51.73,0,0,0-93.8,0H25.2a5.18,5.18,0,0,1-5.2-5.5V183.1H275Zm0-198.6V163.1H20V41.5c0-11.7,9.1-21.4,20.8-21.4H254a21.19,21.19,0,0,1,21,21.3Zm20,32.6h44.6a21.11,21.11,0,0,1,19,11.3l20,38.7H295ZM358.1,294a31.8,31.8,0,1,1,31.8-31.8A31.75,31.75,0,0,1,358.1,294ZM428,234.6a5.18,5.18,0,0,1-5.2,5.5H405a51.76,51.76,0,0,0-93.8,0H295v-96h98l31.8,14a5.88,5.88,0,0,1,3.2,5.4Z"/></g></g></svg>