<svg id="lamps" viewBox="0 0 49 51" fill="none" xmlns="http://www.w3.org/2000/svg">
<path d="M31.383 1.45714H29.2174C29.024 1.45714 28.8385 1.38038 28.7018 1.24375C28.565 1.10712 28.4882 0.921801 28.4882 0.728572C28.4882 0.535342 28.565 0.350027 28.7018 0.213394C28.8385 0.07676 29.024 0 29.2174 0H31.383C31.5764 0 31.7619 0.07676 31.8986 0.213394C32.0353 0.350027 32.1122 0.535342 32.1122 0.728572C32.1122 0.921801 32.0353 1.10712 31.8986 1.24375C31.7619 1.38038 31.5764 1.45714 31.383 1.45714Z" fill="#323D5B"/>
<path d="M47.5705 6.10543H1.42872C1.23533 6.10543 1.04987 6.02867 0.913121 5.89204C0.776376 5.7554 0.699553 5.57009 0.699553 5.37686V0.728572C0.699553 0.535342 0.776376 0.350027 0.913121 0.213394C1.04987 0.07676 1.23533 0 1.42872 0H16.8871C17.0805 0 17.266 0.07676 17.4027 0.213394C17.5395 0.350027 17.6163 0.535342 17.6163 0.728572C17.6163 0.921801 17.5395 1.10712 17.4027 1.24375C17.266 1.38038 17.0805 1.45714 16.8871 1.45714H2.15789V4.64829H46.8414V1.45714H36.4872C36.2938 1.45714 36.1083 1.38038 35.9716 1.24375C35.8348 1.10712 35.758 0.921801 35.758 0.728572C35.758 0.535342 35.8348 0.350027 35.9716 0.213394C36.1083 0.07676 36.2938 0 36.4872 0H47.5705C47.7639 0 47.9494 0.07676 48.0861 0.213394C48.2229 0.350027 48.2997 0.535342 48.2997 0.728572V5.37686C48.2997 5.57009 48.2229 5.7554 48.0861 5.89204C47.9494 6.02867 47.7639 6.10543 47.5705 6.10543Z" fill="#323D5B"/>
<path d="M24.1132 1.45714H21.9913C21.7979 1.45714 21.6124 1.38038 21.4757 1.24375C21.339 1.10712 21.2621 0.921801 21.2621 0.728572C21.2621 0.535342 21.339 0.350027 21.4757 0.213394C21.6124 0.07676 21.7979 0 21.9913 0H24.1132C24.3066 0 24.492 0.07676 24.6288 0.213394C24.7655 0.350027 24.8423 0.535342 24.8423 0.728572C24.8423 0.921801 24.7655 1.10712 24.6288 1.24375C24.492 1.38038 24.3066 1.45714 24.1132 1.45714Z" fill="#323D5B"/>
<path d="M24.4996 35.8508C24.3062 35.8508 24.1208 35.7741 23.984 35.6374C23.8473 35.5008 23.7705 35.3155 23.7705 35.1223V5.37613C23.7705 5.1829 23.8473 4.99758 23.984 4.86095C24.1208 4.72432 24.3062 4.64756 24.4996 4.64756C24.693 4.64756 24.8785 4.72432 25.0152 4.86095C25.152 4.99758 25.2288 5.1829 25.2288 5.37613V35.1223C25.2288 35.3155 25.152 35.5008 25.0152 35.6374C24.8785 35.7741 24.693 35.8508 24.4996 35.8508Z" fill="#323D5B"/>
<path d="M31.6244 47.4081H17.3749C17.2658 47.4082 17.1581 47.3838 17.0597 47.3367C16.9613 47.2896 16.8748 47.2211 16.8064 47.1361C16.738 47.0512 16.6896 46.952 16.6647 46.8459C16.6398 46.7397 16.6391 46.6294 16.6625 46.5229L19.2073 34.9714C19.2431 34.8092 19.3332 34.6641 19.4627 34.5601C19.5923 34.4561 19.7535 34.3994 19.9197 34.3995H29.0796C29.2458 34.3994 29.407 34.4561 29.5365 34.5601C29.6661 34.6641 29.7562 34.8092 29.792 34.9714L32.3368 46.5266C32.3602 46.633 32.3595 46.7434 32.3346 46.8495C32.3097 46.9556 32.2612 47.0548 32.1929 47.1398C32.1245 47.2247 32.0379 47.2933 31.9396 47.3403C31.8412 47.3874 31.7334 47.4118 31.6244 47.4118V47.4081ZM18.2806 45.951H30.7173L28.494 35.853H20.5053L18.2806 45.951Z" fill="#323D5B"/>
<path d="M24.4996 51C23.3532 50.9988 22.2541 50.5433 21.4434 49.7333C20.6328 48.9233 20.1768 47.8251 20.1757 46.6796C20.1757 46.4863 20.2525 46.301 20.3892 46.1644C20.526 46.0278 20.7114 45.951 20.9048 45.951C21.0982 45.951 21.2837 46.0278 21.4204 46.1644C21.5572 46.301 21.634 46.4863 21.634 46.6796C21.634 47.439 21.9359 48.1672 22.4733 48.7042C23.0107 49.2412 23.7396 49.5429 24.4996 49.5429C25.2597 49.5429 25.9885 49.2412 26.5259 48.7042C27.0634 48.1672 27.3653 47.439 27.3653 46.6796C27.3653 46.4863 27.4421 46.301 27.5788 46.1644C27.7156 46.0278 27.9011 45.951 28.0944 45.951C28.2878 45.951 28.4733 46.0278 28.61 46.1644C28.7468 46.301 28.8236 46.4863 28.8236 46.6796C28.8225 47.8251 28.3665 48.9233 27.5559 49.7333C26.7452 50.5433 25.6461 50.9988 24.4996 51Z" fill="#323D5B"/>
<path d="M41.5739 24.1259C41.3805 24.1259 41.195 24.0492 41.0583 23.9125C40.9215 23.7759 40.8447 23.5906 40.8447 23.3973V5.37613C40.8447 5.1829 40.9215 4.99758 41.0583 4.86095C41.195 4.72432 41.3805 4.64756 41.5739 4.64756C41.7672 4.64756 41.9527 4.72432 42.0895 4.86095C42.2262 4.99758 42.303 5.1829 42.303 5.37613V23.3973C42.303 23.5906 42.2262 23.7759 42.0895 23.9125C41.9527 24.0492 41.7672 24.1259 41.5739 24.1259Z" fill="#323D5B"/>
<path d="M48.2705 34.9904H34.8757C34.7667 34.9903 34.6591 34.9658 34.5607 34.9187C34.4624 34.8715 34.376 34.803 34.3077 34.7181C34.2394 34.6331 34.1911 34.534 34.1662 34.4279C34.1413 34.3218 34.1406 34.2115 34.164 34.1051L36.5557 23.2414C36.5914 23.0792 36.6816 22.9341 36.8111 22.8301C36.9407 22.7261 37.1019 22.6694 37.2681 22.6695H45.8789C46.0451 22.6694 46.2063 22.7261 46.3359 22.8301C46.4654 22.9341 46.5555 23.0792 46.5913 23.2414L48.9829 34.1037C49.0064 34.2101 49.0056 34.3204 48.9808 34.4264C48.9559 34.5325 48.9076 34.6317 48.8393 34.7166C48.771 34.8015 48.6845 34.8701 48.5862 34.9172C48.4879 34.9643 48.3803 34.9888 48.2713 34.9889L48.2705 34.9904ZM35.7828 33.5332H47.3635L45.2933 24.1281H37.8558L35.7828 33.5332Z" fill="#323D5B"/>
<path d="M41.5739 38.3665C40.4847 38.3652 39.4406 37.9323 38.6705 37.1628C37.9003 36.3933 37.4671 35.35 37.4657 34.2618C37.4657 34.0685 37.5426 33.8832 37.6793 33.7466C37.816 33.61 38.0015 33.5332 38.1949 33.5332C38.3883 33.5332 38.5738 33.61 38.7105 33.7466C38.8472 33.8832 38.9241 34.0685 38.9241 34.2618C38.9241 34.964 39.2032 35.6374 39.7002 36.1339C40.1971 36.6305 40.8711 36.9094 41.5739 36.9094C42.2766 36.9094 42.9506 36.6305 43.4476 36.1339C43.9445 35.6374 44.2237 34.964 44.2237 34.2618C44.2237 34.0685 44.3005 33.8832 44.4372 33.7466C44.574 33.61 44.7595 33.5332 44.9528 33.5332C45.1462 33.5332 45.3317 33.61 45.4684 33.7466C45.6052 33.8832 45.682 34.0685 45.682 34.2618C45.6807 35.35 45.2474 36.3933 44.4773 37.1628C43.7071 37.9323 42.663 38.3652 41.5739 38.3665Z" fill="#323D5B"/>
<path d="M7.42541 24.1259C7.23202 24.1259 7.04655 24.0492 6.90981 23.9125C6.77306 23.7759 6.69624 23.5906 6.69624 23.3973V5.37613C6.69624 5.1829 6.77306 4.99758 6.90981 4.86095C7.04655 4.72432 7.23202 4.64756 7.42541 4.64756C7.61879 4.64756 7.80426 4.72432 7.94101 4.86095C8.07775 4.99758 8.15458 5.1829 8.15458 5.37613V23.3973C8.15458 23.5906 8.07775 23.7759 7.94101 23.9125C7.80426 24.0492 7.61879 24.1259 7.42541 24.1259Z" fill="#323D5B"/>
<path d="M14.1236 34.9904H0.728722C0.61969 34.9903 0.512062 34.9658 0.413758 34.9187C0.315455 34.8715 0.22898 34.803 0.160698 34.7181C0.092416 34.6331 0.0440656 34.534 0.019206 34.4279C-0.00565353 34.3218 -0.00638939 34.2115 0.0170524 34.1051L2.40581 23.2414C2.44154 23.0792 2.53165 22.9341 2.66121 22.8301C2.79077 22.7261 2.95201 22.6694 3.11821 22.6695H11.7312C11.8974 22.6694 12.0586 22.7261 12.1882 22.8301C12.3177 22.9341 12.4078 23.0792 12.4436 23.2414L14.8352 34.1037C14.8587 34.2101 14.8579 34.3204 14.8331 34.4264C14.8082 34.5325 14.7599 34.6317 14.6916 34.7166C14.6233 34.8015 14.5368 34.8701 14.4385 34.9172C14.3402 34.9643 14.2326 34.9888 14.1236 34.9889V34.9904ZM1.63581 33.5332H13.2157L11.1456 24.1281H3.70592L1.63581 33.5332Z" fill="#323D5B"/>
<path d="M7.4254 38.3665C6.33627 38.3652 5.29214 37.9323 4.522 37.1628C3.75187 36.3933 3.31862 35.35 3.31726 34.2618C3.31726 34.0685 3.39409 33.8832 3.53083 33.7466C3.66758 33.61 3.85305 33.5332 4.04643 33.5332C4.23982 33.5332 4.42529 33.61 4.56203 33.7466C4.69878 33.8832 4.7756 34.0685 4.7756 34.2618C4.7756 34.964 5.05478 35.6374 5.55171 36.1339C6.04865 36.6305 6.72263 36.9094 7.4254 36.9094C8.12818 36.9094 8.80216 36.6305 9.2991 36.1339C9.79603 35.6374 10.0752 34.964 10.0752 34.2618C10.0752 34.0685 10.152 33.8832 10.2888 33.7466C10.4255 33.61 10.611 33.5332 10.8044 33.5332C10.9978 33.5332 11.1832 33.61 11.32 33.7466C11.4567 33.8832 11.5335 34.0685 11.5335 34.2618C11.5322 35.35 11.0989 36.3933 10.3288 37.1628C9.55867 37.9323 8.51454 38.3652 7.4254 38.3665Z" fill="#323D5B"/>
</svg>
