<svg xmlns="http://www.w3.org/2000/svg" id="materials" viewBox="0 0 368.55 260.94"><defs><style>.cls-1{fill:#323D5B;}</style></defs><title>Ресурс 1</title><g id="Слой_2" data-name="Слой 2"><g id="Capa_1" data-name="Capa 1"><path class="cls-1" d="M361.05,245.94H20.24l52.93-95.41A60.57,60.57,0,0,1,167.85,136l23.65,22.47a43.64,43.64,0,0,0,65.55-6.24l.45-.63a16.62,16.62,0,0,1,27.38.49L328.53,218a7.5,7.5,0,1,0,12.5-8.29l-43.65-65.85a31.64,31.64,0,0,0-52.08-.93l-.45.63a28.64,28.64,0,0,1-43,4.1l-23.64-22.47A75.57,75.57,0,0,0,60.05,143.26L.94,249.8A7.5,7.5,0,0,0,7.5,260.94H361.05a7.5,7.5,0,0,0,0-15Z"/><path class="cls-1" d="M172.37,111.71a7.51,7.51,0,0,0,10.53-1.32L194.82,95l30.27,23.52-11.92,15.35a7.48,7.48,0,0,0,1.32,10.52,7.39,7.39,0,0,0,4.59,1.58,7.47,7.47,0,0,0,5.93-2.9l16.53-21.26a7.51,7.51,0,0,0-1.32-10.53L225.08,99.56l50.65-65.17,15.13,11.76a7.5,7.5,0,1,0,9.21-11.85L258,1.58a7.5,7.5,0,1,0-9.2,11.84l15.13,11.76L213.24,90.36,198.1,78.6a7.5,7.5,0,0,0-10.52,1.32l-16.53,21.27A7.5,7.5,0,0,0,172.37,111.71Z"/></g></g></svg>