<svg id="medical" viewBox="0 0 44 51" fill="none" xmlns="http://www.w3.org/2000/svg">
<path d="M39.9259 11.5161H32.5512C32.5755 11.2446 32.5926 10.9715 32.5926 10.6935V4.1129C32.5926 2.75251 31.4957 1.64516 30.1481 1.64516H27.7037V0H25.2593C23.9117 0 22.8148 1.10735 22.8148 2.46774C22.8148 3.82813 23.9117 4.93548 25.2593 4.93548H27.7037V3.29032H30.1481C30.5977 3.29032 30.963 3.65984 30.963 4.1129V10.6935C30.963 10.9715 30.9451 11.2454 30.9148 11.5161H13.0852C13.0549 11.2454 13.037 10.9715 13.037 10.6935V4.1129C13.037 3.65984 13.4023 3.29032 13.8519 3.29032H16.2963V4.93548H18.7407C20.0883 4.93548 21.1852 3.82813 21.1852 2.46774C21.1852 1.10735 20.0883 0 18.7407 0H16.2963V1.64516H13.8519C12.5043 1.64516 11.4074 2.75251 11.4074 4.1129V10.6935C11.4074 10.9715 11.4245 11.2446 11.4488 11.5161H4.07407C1.82776 11.5161 0 13.3613 0 15.629V41.9516C0 44.2193 1.82776 46.0645 4.07407 46.0645H10.5926V49.3548H7.33333V51H36.6667V49.3548H33.4074V46.0645H39.9259C42.1722 46.0645 44 44.2193 44 41.9516V15.629C44 13.3613 42.1722 11.5161 39.9259 11.5161ZM26.0741 3.29032H25.2593C24.8097 3.29032 24.4444 2.9208 24.4444 2.46774C24.4444 2.01468 24.8097 1.64516 25.2593 1.64516H26.0741V3.29032ZM17.9259 1.64516H18.7407C19.1903 1.64516 19.5556 2.01468 19.5556 2.46774C19.5556 2.9208 19.1903 3.29032 18.7407 3.29032H17.9259V1.64516ZM30.5353 13.1613C29.5955 15.8331 27.1829 17.8032 24.2841 18.063C23.9376 17.1252 23.0488 16.4516 22 16.4516C20.9512 16.4516 20.0624 17.1252 19.7159 18.063C16.8171 17.8024 14.4053 15.8331 13.4647 13.1613H30.5353ZM22 19.7419C21.5504 19.7419 21.1852 19.3724 21.1852 18.9194C21.1852 18.4663 21.5504 18.0968 22 18.0968C22.4496 18.0968 22.8148 18.4663 22.8148 18.9194C22.8148 19.3724 22.4496 19.7419 22 19.7419ZM4.07407 13.1613H11.7543C12.7625 16.742 15.9004 19.4194 19.6948 19.7074C19.9351 20.4207 20.4838 20.983 21.1852 21.2357V24.6774C21.1852 25.1305 20.8199 25.5 20.3704 25.5H6.92593C4.90441 25.5 3.25926 27.1608 3.25926 29.2016C3.25926 31.2424 4.90441 32.9032 6.92593 32.9032H26.0741V34.5484H29.8915C30.809 36.4904 32.7676 37.8387 35.037 37.8387C38.1813 37.8387 40.7407 35.2557 40.7407 32.0806C40.7407 28.9056 38.1813 26.3226 35.037 26.3226C32.7676 26.3226 30.8098 27.6709 29.8915 29.6129H26.0741V31.2581H6.92593C5.80237 31.2581 4.88889 30.3351 4.88889 29.2016C4.88889 28.0682 5.80237 27.1452 6.92593 27.1452H20.3704C21.7179 27.1452 22.8148 26.0378 22.8148 24.6774V21.2357C23.5162 20.983 24.0649 20.4207 24.3052 19.7074C28.0996 19.4194 31.2367 16.742 32.2457 13.1613H39.9259C41.2735 13.1613 42.3704 14.2686 42.3704 15.629V39.4839H1.62963V15.629C1.62963 14.2686 2.72653 13.1613 4.07407 13.1613ZM29.3986 32.9032H27.7037V31.2581H29.3986C29.3604 31.528 29.3333 31.8011 29.3333 32.0806C29.3333 32.3602 29.3604 32.6333 29.3986 32.9032ZM30.963 32.0806C30.963 29.8129 32.7907 27.9677 35.037 27.9677C37.2833 27.9677 39.1111 29.8129 39.1111 32.0806C39.1111 34.3484 37.2833 36.1935 35.037 36.1935C32.7907 36.1935 30.963 34.3484 30.963 32.0806ZM31.7778 49.3548H12.2222V46.0645H31.7778V49.3548ZM39.9259 44.4194H4.07407C2.72653 44.4194 1.62963 43.312 1.62963 41.9516V41.129H42.3704V41.9516C42.3704 43.312 41.2735 44.4194 39.9259 44.4194Z" fill="#323D5B"/>
<path d="M35.037 34.5484C36.3846 34.5484 37.4815 33.441 37.4815 32.0806C37.4815 30.7203 36.3846 29.6129 35.037 29.6129C33.6895 29.6129 32.5926 30.7203 32.5926 32.0806C32.5926 33.441 33.6895 34.5484 35.037 34.5484ZM35.037 31.2581C35.4866 31.2581 35.8519 31.6276 35.8519 32.0806C35.8519 32.5337 35.4866 32.9032 35.037 32.9032C34.5875 32.9032 34.2222 32.5337 34.2222 32.0806C34.2222 31.6276 34.5875 31.2581 35.037 31.2581Z" fill="#323D5B"/>
<path d="M8.14815 8.22581H9.77778V9.87097H8.14815V8.22581Z" fill="#323D5B"/>
<path d="M4.88888 8.22581H6.51851V9.87097H4.88888V8.22581Z" fill="#323D5B"/>
<path d="M1.62964 8.22581H3.25926V9.87097H1.62964V8.22581Z" fill="#323D5B"/>
<path d="M34.2222 8.22581H35.8518V9.87097H34.2222V8.22581Z" fill="#323D5B"/>
<path d="M37.4815 8.22581H39.1111V9.87097H37.4815V8.22581Z" fill="#323D5B"/>
<path d="M40.7407 8.22581H42.3704V9.87097H40.7407V8.22581Z" fill="#323D5B"/>
</svg>
