<svg width="16" height="26" viewBox="0 0 16 26" fill="none" xmlns="http://www.w3.org/2000/svg">
<path d="M1.22229 4.85504C0.284531 3.91728 0.284531 2.39687 1.22229 1.4591C2.16006 0.521338 3.68047 0.521338 4.61824 1.4591L14.3816 11.2224C15.3193 12.1602 15.3193 13.6806 14.3816 14.6184C13.4438 15.5561 11.9234 15.5561 10.9856 14.6184L1.22229 4.85504Z" fill="#D1E5FD"/>
<path d="M4.61824 24.3817C3.68047 25.3195 2.16006 25.3195 1.22229 24.3817C0.284531 23.444 0.284531 21.9235 1.22229 20.9858L10.9856 11.2224C11.9234 10.2847 13.4438 10.2847 14.3816 11.2224C15.3193 12.1602 15.3193 13.6806 14.3816 14.6184L4.61824 24.3817Z" fill="#D1E5FD"/>
</svg>
