<svg width="16" height="25" viewBox="0 0 16 25" fill="none" xmlns="http://www.w3.org/2000/svg">
<path d="M1.46131 4.09381C0.523545 3.15605 0.523545 1.63563 1.46131 0.697871C2.39907 -0.239893 3.91949 -0.239893 4.85725 0.697871L14.6206 10.4612C15.5584 11.399 15.5584 12.9194 14.6206 13.8572C13.6828 14.7949 12.1624 14.7949 11.2246 13.8572L1.46131 4.09381Z" fill="#EAC8FD"/>
<path d="M4.85725 23.6205C3.91949 24.5583 2.39907 24.5583 1.46131 23.6205C0.523545 22.6827 0.523545 21.1623 1.46131 20.2245L11.2246 10.4612C12.1624 9.52344 13.6828 9.52344 14.6206 10.4612C15.5584 11.399 15.5584 12.9194 14.6206 13.8572L4.85725 23.6205Z" fill="#EAC8FD"/>
</svg>
