<svg width="72" height="65" viewBox="0 0 72 65" fill="none" xmlns="http://www.w3.org/2000/svg">
<path d="M70.8597 64.9968C70.5884 64.9969 70.3261 64.9008 70.1205 64.7261C69.9149 64.5514 69.7796 64.3096 69.7394 64.0447L67.5826 50.0448C67.4379 49.0549 66.9349 48.1502 66.1668 47.498C65.3986 46.8458 64.4172 46.4901 63.4039 46.4968H60.8817C60.022 46.4999 59.1833 46.7601 58.4764 47.243C57.7694 47.726 57.2273 48.409 56.9216 49.2022L53.5036 58.1787C53.4221 58.3921 53.2767 58.576 53.0868 58.706C52.8968 58.8359 52.6714 58.9056 52.4403 58.906H46.0119C45.5399 58.913 45.0897 59.103 44.7584 59.4349C44.4271 59.7669 44.2414 60.2141 44.2415 60.68V60.7539C44.2423 61.1952 44.4202 61.6181 44.7363 61.9301C45.0524 62.2421 45.4809 62.4178 45.9279 62.4185H54.1836C54.7237 62.4218 55.2523 62.2648 55.701 61.968C56.1496 61.6712 56.4976 61.2482 56.6998 60.7539L58.6111 56.1415C58.6609 55.9966 58.7403 55.8634 58.8442 55.7499C58.9482 55.6365 59.0747 55.5452 59.2158 55.4818C59.3568 55.4185 59.5095 55.3842 59.6645 55.3813C59.8195 55.3784 59.9733 55.4068 60.1168 55.4649C60.2602 55.5229 60.3901 55.6093 60.4984 55.7188C60.6067 55.8283 60.6911 55.9584 60.7464 56.1013C60.8018 56.2442 60.8269 56.3968 60.8203 56.5496C60.8137 56.7025 60.7755 56.8524 60.708 56.9901L58.7967 61.6025C58.4231 62.5072 57.7846 63.2813 56.9628 63.8259C56.1411 64.3705 55.1734 64.6608 54.1836 64.6597H45.9279C44.8787 64.6589 43.8727 64.2472 43.1308 63.5149C42.3888 62.7826 41.9717 61.7896 41.9709 60.7539V60.68C41.9701 59.6206 42.3951 58.6041 43.1527 57.8536C43.9103 57.1031 44.9385 56.6798 46.0119 56.6767H51.6525L54.7947 48.4275C55.262 47.2058 56.0942 46.153 57.1812 45.4086C58.2682 44.6641 59.5587 44.2631 60.8817 44.2586H63.4039C64.9607 44.2509 66.4679 44.7982 67.6484 45.7999C68.829 46.8016 69.6034 48.1904 69.8293 49.7107L71.9861 63.7106C72.0118 63.8707 72.0018 64.0343 71.9568 64.1902C71.9119 64.346 71.8331 64.4904 71.7259 64.6131C71.6187 64.7358 71.4857 64.834 71.3361 64.9007C71.1865 64.9675 71.0239 65.0013 70.8597 64.9997V64.9968Z" fill="white"/>
<path d="M60.7229 42.4402C59.4848 42.4402 58.2745 42.0777 57.2452 41.3985C56.2158 40.7193 55.4137 39.7539 54.9404 38.6246C54.4672 37.4953 54.3441 36.2528 54.5865 35.0544C54.8289 33.8559 55.426 32.7554 56.3023 31.8921C57.1787 31.0288 58.2948 30.4414 59.5095 30.2045C60.7242 29.9675 61.9827 30.0915 63.1259 30.5608C64.2692 31.0301 65.2456 31.8236 65.9317 32.8408C66.6179 33.8581 66.983 35.0534 66.9806 36.2755C66.9767 37.9114 66.3157 39.4789 65.1426 40.6345C63.9696 41.7901 62.3802 42.4394 60.7229 42.4402ZM60.7229 32.3343C59.9352 32.3337 59.165 32.5636 58.5096 32.995C57.8543 33.4263 57.3431 34.0397 57.0408 34.7577C56.7386 35.4757 56.6588 36.266 56.8115 37.0288C56.9641 37.7915 57.3424 38.4925 57.8985 39.0431C58.4547 39.5937 59.1638 39.9692 59.9362 40.1222C60.7085 40.2752 61.5093 40.1987 62.2377 39.9026C62.966 39.6064 63.589 39.1037 64.028 38.4582C64.4669 37.8126 64.7022 37.053 64.704 36.2755C64.7048 35.7588 64.6025 35.2469 64.4028 34.7691C64.2032 34.2914 63.9101 33.8571 63.5404 33.4911C63.1708 33.1251 62.7316 32.8346 62.2482 32.6361C61.7648 32.4376 61.2465 32.3351 60.7229 32.3343Z" fill="white"/>
<path d="M1.13886 64.9968C1.08103 65.0011 1.02308 65.0011 0.965247 64.9968C0.667572 64.9516 0.400174 64.7918 0.221631 64.5524C0.0430875 64.3129 -0.0320999 64.0135 0.0126168 63.7195L2.16945 49.7196C2.39404 48.1974 3.16818 46.8065 4.3494 45.803C5.53062 44.7996 7.03938 44.2511 8.59784 44.2586H11.1201C12.4416 44.2626 13.7307 44.6624 14.8171 45.4052C15.9034 46.148 16.7358 47.1988 17.204 48.4186L20.3462 56.6678H25.9868C27.0604 56.6709 28.089 57.0941 28.847 57.8445C29.6051 58.595 30.0308 59.6114 30.0308 60.6711V60.7451C30.0312 61.2595 29.9287 61.769 29.7293 62.2443C29.53 62.7196 29.2377 63.1514 28.869 63.515C28.5003 63.8787 28.0625 64.167 27.5808 64.3634C27.0991 64.5598 26.5829 64.6605 26.0617 64.6597H17.806C16.8151 64.6624 15.8461 64.3724 15.0234 63.827C14.2008 63.2817 13.5622 62.506 13.1899 61.5995L11.2758 56.9871C11.2083 56.8494 11.17 56.6995 11.1633 56.5467C11.1567 56.3938 11.1818 56.2412 11.2372 56.0984C11.2926 55.9555 11.3771 55.8253 11.4854 55.7158C11.5937 55.6064 11.7235 55.52 11.8669 55.4619C12.0103 55.4039 12.1643 55.3755 12.3193 55.3784C12.4743 55.3813 12.627 55.4155 12.768 55.4789C12.9091 55.5423 13.0356 55.6335 13.1395 55.747C13.2435 55.8604 13.3229 55.9937 13.3727 56.1385L15.2867 60.751C15.4888 61.2448 15.8363 61.6675 16.2844 61.9642C16.7325 62.261 17.2604 62.4182 17.8 62.4156H26.0617C26.5087 62.4148 26.9372 62.2392 27.2533 61.9272C27.5694 61.6152 27.7474 61.1922 27.7481 60.751V60.6771C27.7482 60.2111 27.5626 59.7639 27.2314 59.432C26.9001 59.1 26.4499 58.91 25.9779 58.9031H19.5494C19.3183 58.9027 19.0928 58.8329 18.9029 58.703C18.7129 58.5731 18.5675 58.3892 18.486 58.1757L15.0681 49.2022C14.7637 48.4085 14.2224 47.7247 13.5159 47.2411C12.8093 46.7575 11.9708 46.4969 11.111 46.4938H8.58877C7.57294 46.4836 6.58791 46.8376 5.81659 47.4902C5.04528 48.1427 4.54011 49.0494 4.39504 50.0419L2.23835 64.0418C2.19937 64.3037 2.06742 64.5434 1.8661 64.7183C1.66477 64.8932 1.40701 64.9919 1.13886 64.9968Z" fill="white"/>
<path d="M11.2758 42.4402C10.0376 42.4402 8.8272 42.0777 7.79788 41.3985C6.76855 40.7193 5.96658 39.7539 5.49331 38.6246C5.02004 37.4953 4.89678 36.2528 5.1392 35.0544C5.38163 33.8559 5.97885 32.7554 6.85519 31.8921C7.73154 31.0288 8.84771 30.4414 10.0624 30.2045C11.277 29.9675 12.5356 30.0915 13.6788 30.5608C14.822 31.0301 15.7985 31.8236 16.4846 32.8408C17.1708 33.8581 17.5357 35.0534 17.5333 36.2755C17.5286 37.9111 16.8675 39.4782 15.6946 40.6336C14.5218 41.7891 12.9329 42.4387 11.2758 42.4402ZM11.2758 32.3343C10.4878 32.3343 9.71752 32.5649 9.06235 32.997C8.40717 33.4291 7.89655 34.0433 7.59501 34.7618C7.29346 35.4804 7.21457 36.271 7.36829 37.0338C7.52202 37.7967 7.90138 38.4973 8.45856 39.0473C9.01574 39.5972 9.7257 39.9718 10.4985 40.1235C11.2714 40.2752 12.0723 40.1974 12.8003 39.8997C13.5283 39.6021 14.1506 39.0981 14.5884 38.4514C15.0262 37.8047 15.2598 37.0444 15.2598 36.2667C15.259 35.224 14.839 34.2242 14.092 33.4869C13.345 32.7496 12.3322 32.3351 11.2758 32.3343Z" fill="white"/>
<path d="M22.1675 25.4304C21.8451 25.429 21.527 25.3573 21.2359 25.2205C20.8623 25.0491 20.5463 24.7756 20.3254 24.4324C20.1045 24.0891 19.988 23.6905 19.9897 23.2839V20.9185H19.8819C18.7946 20.9177 17.752 20.491 16.9831 19.7321C16.2142 18.9732 15.7819 17.9441 15.7811 16.8708V4.0477C15.7819 2.97442 16.2142 1.94533 16.9831 1.18641C17.752 0.427488 18.7946 0.000783128 19.8819 0H42.0338C43.1206 0.0015658 44.1625 0.428619 44.9307 1.18746C45.6989 1.94629 46.1309 2.97494 46.1317 4.0477V16.8797C46.1309 17.953 45.6986 18.9821 44.9297 19.741C44.1608 20.4999 43.1182 20.9266 42.0308 20.9274H28.4701L23.5424 24.9455C23.1551 25.26 22.669 25.4315 22.1675 25.4304ZM19.8819 2.23229C19.3968 2.23307 18.9317 2.42367 18.5886 2.76229C18.2456 3.10091 18.0523 3.55994 18.0516 4.03882V16.8708C18.0523 17.3494 18.2456 17.8082 18.5888 18.1463C18.9319 18.4845 19.397 18.6744 19.8819 18.6744H21.128C21.4293 18.6752 21.7181 18.7939 21.931 19.0045C22.1438 19.2152 22.2633 19.5005 22.2633 19.798V23.0739L27.3557 18.9346C27.5597 18.7683 27.8161 18.6773 28.0807 18.6774H42.0488C42.5337 18.6774 42.9988 18.4874 43.342 18.1493C43.6851 17.8111 43.8783 17.3524 43.879 16.8738V4.0477C43.8783 3.56882 43.6852 3.10977 43.3421 2.77115C42.999 2.43253 42.534 2.24195 42.0488 2.24117L19.8819 2.23229Z" fill="white"/>
<path d="M48.9026 29.8625C48.3999 29.8613 47.9135 29.6866 47.5277 29.3687L42.6 25.3506H30.4381C30.137 25.3506 29.8483 25.2325 29.6354 25.0224C29.4225 24.8122 29.3028 24.5272 29.3028 24.23C29.3028 23.9328 29.4225 23.6478 29.6354 23.4377C29.8483 23.2275 30.137 23.1094 30.4381 23.1094H43.0193C43.2838 23.1099 43.5399 23.2008 43.7442 23.3667L48.8217 27.506V24.23C48.8217 23.9328 48.9412 23.6478 49.1541 23.4377C49.367 23.2275 49.6559 23.1094 49.957 23.1094H51.2032C51.6883 23.1086 52.1534 22.9181 52.4965 22.5794C52.8395 22.2408 53.0326 21.7818 53.0334 21.3029V8.48272C53.0326 8.00411 52.8395 7.54537 52.4963 7.20722C52.1531 6.86907 51.6881 6.67915 51.2032 6.67915H49.6485C49.3571 6.66439 49.0825 6.53973 48.8815 6.33092C48.6805 6.12211 48.5685 5.84509 48.5685 5.55708C48.5685 5.26907 48.6805 4.99207 48.8815 4.78326C49.0825 4.57445 49.3571 4.44979 49.6485 4.43502H51.2032C52.2885 4.43893 53.328 4.86702 54.0943 5.6256C54.8606 6.38418 55.2912 7.41149 55.292 8.48272V21.3147C55.2912 22.388 54.8589 23.4171 54.09 24.176C53.3211 24.9349 52.2785 25.3617 51.1912 25.3624H51.0803V27.7278C51.0829 28.135 50.9669 28.5344 50.7459 28.8783C50.525 29.2222 50.2084 29.4961 49.8341 29.6674C49.5419 29.7992 49.2238 29.8658 48.9026 29.8625Z" fill="white"/>
</svg>
