<svg width="71" height="71" viewBox="0 0 71 71" fill="none" xmlns="http://www.w3.org/2000/svg">
<path d="M35.5 52.5237C35.3262 52.5234 35.1546 52.486 34.9965 52.4138C34.8385 52.3417 34.6977 52.2365 34.5837 52.1054L31.8507 48.951C31.7077 48.7863 31.6118 48.5861 31.5731 48.3714C31.5343 48.1568 31.5541 47.9357 31.6304 47.7314L34.3665 40.4551C34.4529 40.2242 34.6077 40.0252 34.8103 39.8847C35.0129 39.7441 35.2535 39.6689 35.5 39.6689C35.7465 39.6689 35.9872 39.7441 36.1897 39.8847C36.3923 40.0252 36.5471 40.2242 36.6334 40.4551L39.3664 47.7314C39.4431 47.9354 39.4635 48.1563 39.4253 48.371C39.3871 48.5856 39.2917 48.786 39.1493 48.951L36.4131 52.1054C36.2999 52.2366 36.1597 52.3419 36.0021 52.414C35.8446 52.4862 35.6733 52.5236 35.5 52.5237ZM34.1527 47.9102L35.5 49.465L36.8473 47.9102L35.5 44.3215L34.1527 47.9102Z" fill="white"/>
<path d="M53.7082 52.5237C53.4156 52.5239 53.1328 52.4178 52.9126 52.2252C52.6923 52.0326 52.5496 51.7665 52.5109 51.4764L51.5531 44.5578C51.4058 43.4731 50.9139 42.4644 50.15 41.6803C49.386 40.8963 48.3905 40.3784 47.3099 40.2029L40.6052 39.1078L36.0779 41.6301C35.8978 41.7304 35.6951 41.7831 35.4889 41.7831C35.2827 41.7831 35.0799 41.7304 34.8998 41.6301L30.3757 39.1078L23.6709 40.2061C22.59 40.3786 21.5936 40.8953 20.8297 41.6792C20.0659 42.4632 19.5753 43.4728 19.431 44.5578L18.4731 51.4764C18.4219 51.7866 18.252 52.0647 17.9994 52.2517C17.7467 52.4388 17.4312 52.5202 17.1196 52.4787C16.808 52.4372 16.5247 52.2761 16.3298 52.0294C16.1349 51.7828 16.0437 51.4699 16.0754 51.1572L17.0332 44.2385C17.2476 42.6396 17.9714 41.1522 19.0974 39.9968C20.2234 38.8415 21.6917 38.0797 23.2846 37.8243L30.4044 36.659C30.6746 36.6164 30.9512 36.6659 31.1898 36.7995L35.4936 39.1972L39.7974 36.7995C40.0351 36.6664 40.3105 36.6169 40.5796 36.659L47.7026 37.8243C49.2954 38.0793 50.7635 38.8411 51.8891 39.9966C53.0146 41.1521 53.7377 42.6396 53.9508 44.2385L54.9087 51.1572C54.9307 51.3147 54.9214 51.475 54.8812 51.6289C54.8411 51.7828 54.771 51.9272 54.6749 52.0539C54.5788 52.1806 54.4585 52.287 54.3211 52.3671C54.1837 52.4471 54.0318 52.4993 53.8742 52.5205C53.8191 52.5263 53.7635 52.5274 53.7082 52.5237Z" fill="white"/>
<path d="M30.6087 39.0567H30.5896C30.2684 39.0516 29.9623 38.9194 29.7385 38.689C29.5146 38.4585 29.3913 38.1487 29.3956 37.8275V37.0038C29.4006 36.6862 29.5302 36.3833 29.7566 36.1605C29.983 35.9377 30.2879 35.8129 30.6055 35.8129H30.6247C30.7836 35.8154 30.9405 35.8492 31.0864 35.9123C31.2323 35.9754 31.3642 36.0667 31.4748 36.1808C31.5854 36.295 31.6724 36.4298 31.7309 36.5776C31.7893 36.7253 31.8181 36.8832 31.8156 37.0421V37.8626C31.8106 38.1799 31.6815 38.4827 31.4559 38.7059C31.2303 38.9291 30.9261 39.0551 30.6087 39.0567Z" fill="white"/>
<path d="M40.3913 39.0567C40.0731 39.0567 39.7677 38.9314 39.5413 38.708C39.3148 38.4845 39.1854 38.1808 39.1812 37.8626V37.0421C39.1787 36.8832 39.2075 36.7253 39.266 36.5776C39.3244 36.4298 39.4114 36.295 39.522 36.1808C39.6326 36.0667 39.7647 35.9754 39.9105 35.9123C40.0564 35.8492 40.2132 35.8154 40.3721 35.8129H40.3913C40.7089 35.8129 41.0138 35.9377 41.2402 36.1605C41.4666 36.3833 41.5963 36.6862 41.6013 37.0038V37.8275C41.6039 37.9864 41.5751 38.1443 41.5166 38.2921C41.4581 38.4398 41.3711 38.5746 41.2605 38.6888C41.1499 38.8029 41.0179 38.8942 40.8721 38.9573C40.7262 39.0204 40.5694 39.0542 40.4105 39.0567H40.3913Z" fill="white"/>
<path d="M35.5 35.5607C32.0933 35.5607 29.1369 32.866 27.8534 28.6452C27.0935 28.1631 26.6721 27.3362 26.5987 26.174L26.5284 25.063C26.4454 23.7475 26.8732 22.9589 27.4191 22.4864C27.3872 20.657 27.6011 16.6182 29.9733 15.3475C30.4746 14.3897 31.2824 13.9778 33.016 13.7798C35.4265 13.5053 38.7949 13.9842 40.5637 15.4337L40.6275 15.4816C41.6684 16.334 43.5616 17.8793 43.5776 22.4737C44.1268 22.9462 44.561 23.7507 44.478 25.063L44.4077 26.1772C44.379 26.6306 44.2991 27.8821 43.2232 28.6037C42.0131 32.9107 39.0982 35.5607 35.5 35.5607ZM32.1316 16.4234C31.9386 16.8764 31.5866 17.2432 31.1419 17.4547C30.1139 17.9559 29.7435 21.0273 29.8648 23.0515C29.8807 23.3057 29.8161 23.5585 29.6802 23.7739C29.5444 23.9894 29.3443 24.1567 29.1081 24.252C29.0155 24.2871 28.9102 24.3286 28.9485 24.8906L29.0187 26.0048C29.0538 26.5604 29.1368 26.5891 29.255 26.6434C29.4465 26.7065 29.6192 26.8168 29.7569 26.9641C29.8947 27.1114 29.9933 27.2909 30.0436 27.4862C30.7268 30.0915 32.5659 33.1374 35.5032 33.1374C39.3632 33.1374 40.6882 28.8208 41.001 27.4958C41.0481 27.2993 41.1433 27.1175 41.2782 26.967C41.4131 26.8165 41.5835 26.702 41.7737 26.6338C41.8759 26.5987 41.9493 26.5699 41.9844 26.0208L42.0547 24.9065C42.093 24.335 41.9876 24.2935 41.8982 24.268C41.6665 24.1753 41.4691 24.0133 41.3331 23.8041C41.1971 23.5949 41.129 23.3488 41.1383 23.0994C41.282 19.1564 40.0145 18.122 39.0886 17.3525L39.0248 17.2982C37.9744 16.4394 35.4042 15.9413 33.2778 16.1776C32.8861 16.2052 32.5002 16.2879 32.1316 16.4234Z" fill="white"/>
<path d="M42.093 21.1487C41.8207 21.1486 41.5564 21.0565 41.3431 20.8872C41.1298 20.718 40.98 20.4815 40.9181 20.2164C40.8997 20.1251 40.8617 20.039 40.8065 19.964C40.7514 19.8889 40.6804 19.8269 40.5988 19.7822C39.7559 19.3033 37.7254 19.4629 35.2925 20.2323C32.7607 21.021 30.8226 20.9539 29.587 20.0344C29.1982 19.7485 28.8793 19.3782 28.6542 18.9512C28.4292 18.5243 28.3038 18.052 28.2876 17.5696C28.2876 17.2487 28.4151 16.9409 28.642 16.714C28.8689 16.4871 29.1767 16.3596 29.4976 16.3596C29.8136 16.3595 30.1172 16.483 30.3433 16.7038C30.5694 16.9245 30.7002 17.225 30.7077 17.5409C30.7207 17.6533 30.7576 17.7616 30.816 17.8585C30.8743 17.9555 30.9529 18.0388 31.0461 18.1028C31.3207 18.2912 32.2211 18.6519 34.5582 17.9176C36.8122 17.2152 39.8996 16.6022 41.7833 17.6782C42.1573 17.8852 42.4834 18.1688 42.7403 18.5105C42.9972 18.8521 43.1792 19.2441 43.2743 19.6609C43.3163 19.8388 43.3174 20.0239 43.2775 20.2024C43.2377 20.3808 43.1579 20.5479 43.0442 20.6911C42.9306 20.8343 42.7859 20.9498 42.6211 21.0291C42.4564 21.1083 42.2759 21.1492 42.093 21.1487Z" fill="white"/>
<path d="M35.5 67.1687C29.2242 67.1694 23.0892 65.3089 17.8709 61.8227C12.6525 58.3365 8.58517 53.3811 6.18325 47.5831C3.78133 41.7852 3.15271 35.4052 4.37689 29.25C5.60108 23.0948 8.6231 17.4409 13.0607 13.0033C17.4984 8.56565 23.1523 5.54367 29.3075 4.31949C35.4627 3.0953 41.8426 3.72391 47.6406 6.12583C53.4385 8.52774 58.394 12.5951 61.8802 17.8134C65.3664 23.0318 67.2268 29.1668 67.2262 35.4425C67.2161 43.8537 63.8702 51.9175 57.9226 57.8651C51.975 63.8128 43.9112 67.1586 35.5 67.1687ZM35.5 6.13645C29.7038 6.13645 24.0377 7.8552 19.2184 11.0754C14.399 14.2956 10.6427 18.8726 8.42464 24.2276C6.20653 29.5826 5.62616 35.4751 6.75695 41.1599C7.88773 46.8447 10.6789 52.0666 14.7774 56.1651C18.876 60.2636 24.0978 63.0547 29.7827 64.1855C35.4675 65.3163 41.3599 64.7359 46.7149 62.5178C52.0699 60.2997 56.6469 56.5435 59.8671 51.7242C63.0873 46.9048 64.8061 41.2387 64.8061 35.4425C64.7976 27.6727 61.7074 20.2235 56.2132 14.7293C50.7191 9.2352 43.2698 6.1449 35.5 6.13645Z" fill="white"/>
<path d="M35.5 10.0827C35.1791 10.0827 34.8713 9.95518 34.6444 9.72825C34.4174 9.50132 34.2899 9.19354 34.2899 8.87262V1.21006C34.2899 0.889134 34.4174 0.581355 34.6444 0.354428C34.8713 0.1275 35.1791 0 35.5 0C35.8209 0 36.1287 0.1275 36.3556 0.354428C36.5826 0.581355 36.7101 0.889134 36.7101 1.21006V8.87262C36.7101 9.19354 36.5826 9.50132 36.3556 9.72825C36.1287 9.95518 35.8209 10.0827 35.5 10.0827Z" fill="white"/>
<path d="M35.5 71C35.1791 71 34.8713 70.8725 34.6444 70.6456C34.4174 70.4186 34.2899 70.1109 34.2899 69.7899V62.1274C34.2899 61.8065 34.4174 61.4987 34.6444 61.2718C34.8713 61.0448 35.1791 60.9174 35.5 60.9174C35.8209 60.9174 36.1287 61.0448 36.3556 61.2718C36.5826 61.4987 36.7101 61.8065 36.7101 62.1274V69.7899C36.7101 70.1109 36.5826 70.4186 36.3556 70.6456C36.1287 70.8725 35.8209 71 35.5 71Z" fill="white"/>
<path d="M69.79 36.71H62.1275C61.8065 36.71 61.4987 36.5826 61.2718 36.3557C61.0449 36.1287 60.9174 35.8209 60.9174 35.5C60.9174 35.1791 61.0449 34.8713 61.2718 34.6444C61.4987 34.4174 61.8065 34.29 62.1275 34.29H69.79C70.1109 34.29 70.4187 34.4174 70.6456 34.6444C70.8726 34.8713 71 35.1791 71 35.5C71 35.8209 70.8726 36.1287 70.6456 36.3557C70.4187 36.5826 70.1109 36.71 69.79 36.71Z" fill="white"/>
<path d="M8.87262 36.71H1.21006C0.889135 36.71 0.581356 36.5826 0.354428 36.3557C0.1275 36.1287 0 35.8209 0 35.5C0 35.1791 0.1275 34.8713 0.354428 34.6444C0.581356 34.4174 0.889135 34.29 1.21006 34.29H8.87262C9.19355 34.29 9.50133 34.4174 9.72825 34.6444C9.95518 34.8713 10.0827 35.1791 10.0827 35.5C10.0827 35.8209 9.95518 36.1287 9.72825 36.3557C9.50133 36.5826 9.19355 36.71 8.87262 36.71Z" fill="white"/>
</svg>
