<svg id="pin" viewBox="0 0 10 14" fill="none" xmlns="http://www.w3.org/2000/svg">
<path d="M4.57536 13.3223L4.33666 13.0194C4.17753 12.7991 0.119629 7.87021 0.119629 4.92388C0.119629 2.36304 2.13532 0.297852 4.57536 0.297852C7.01541 0.297852 9.0311 2.39058 9.0311 4.92388C9.0311 7.87021 4.9732 12.8267 4.81406 13.0194L4.57536 13.3223ZM4.57536 0.931181C2.45359 0.931181 0.756165 2.72101 0.756165 4.89634C0.756165 7.20935 3.70013 11.147 4.57536 12.2759C5.4506 11.147 8.39456 7.23688 8.39456 4.89634C8.39456 2.72101 6.69714 0.931181 4.57536 0.931181Z" fill="#687086"/>
<path d="M4.57536 6.52694C3.66159 6.52694 2.90446 5.75715 2.90446 4.8281C2.90446 3.89905 3.66159 3.12925 4.57536 3.12925C5.48914 3.12925 6.24626 3.89905 6.24626 4.8281C6.24626 5.75715 5.48914 6.52694 4.57536 6.52694ZM4.57536 3.76633C4.00099 3.76633 3.53105 4.24412 3.53105 4.8281C3.53105 5.41208 4.00099 5.88988 4.57536 5.88988C5.14974 5.88988 5.61968 5.41208 5.61968 4.8281C5.61968 4.24412 5.14974 3.76633 4.57536 3.76633Z" fill="#687086"/>
</svg>
