<svg xmlns="http://www.w3.org/2000/svg" id="ucheba" viewBox="0 0 384 384"><defs><style>.cls-1{fill:#323D5B;}</style></defs><title>Ресурс 1</title><g id="Слой_2" data-name="Слой 2"><g id="Слой_1-2" data-name="Слой 1"><path class="cls-1" d="M160.5,0c.7.49,1.44.94,2.11,1.47,2.59,2.06,3.74,4.72,2.83,7.94A7.27,7.27,0,0,1,158.65,15c-1.24.11-2.5.05-3.75.05H15.24V244.3H368.7V15h-4.25Q296.21,15,228,15c-3.42,0-6.51-.42-8.52-3.57-2.57-4-1.19-7.9,4.05-11.46H384V299.25c-2.21,4-5.58,5.34-10.18,5.33q-69.09-.19-138.19-.08h-4.58c4.1,21.74,8.12,43,12.18,64.51,8,0,15.73-.11,23.45,0,5.92.11,9.63,5.71,7,10.6-.95,1.74-2.9,2.92-4.39,4.36H114.75c-.5-.35-1-.71-1.49-1.05-3-2-4.35-4.78-3.47-8.35.83-3.38,3.68-5.43,7.52-5.58,1.62-.07,3.25,0,4.87,0h18.6c4.09-21.71,8.1-43,12.16-64.5H148q-68.91,0-137.82.08c-4.6,0-8-1.26-10.18-5.33V0ZM368.84,259.77H15.18V289.3H368.84ZM168.18,304.69c-4.05,21.49-8.06,42.74-12.1,64.17h71.84l-12.1-64.17Z"/><path class="cls-1" d="M194.25,0c.6.42,1.2.82,1.79,1.25,2.9,2.13,4.18,4.93,3.05,8.43a7.42,7.42,0,0,1-14.19,0c-1.11-3.5.15-6.31,3.06-8.43.59-.43,1.19-.84,1.79-1.25Z"/><path class="cls-1" d="M79.5,118.86c0,11.32,0,22.06.09,32.79a3.81,3.81,0,0,0,1.86,2.66c8.9,4.59,13.1,11.9,13.06,21.83,0,9.12,0,18.25,0,27.37,0,5.9-2.86,8.7-8.78,8.73q-13.68.06-27.37,0c-6,0-8.8-2.81-8.83-8.67,0-9.62-.12-19.25,0-28.87.14-9,4.36-15.77,12.34-19.94,2.11-1.1,2.7-2.26,2.68-4.54-.12-13.75,0-27.5-.11-41.25,0-4.61,1.81-7.43,6-9.27q58.16-25.33,116.24-50.89a12.29,12.29,0,0,1,10.72,0Q255.16,74.25,313,99.45c3.54,1.54,6.46,3.49,6.47,7.78s-2.9,6.27-6.45,7.81c-16.71,7.25-33.36,14.64-50.1,21.82-2.54,1.09-3.51,2.29-3.48,5.15.17,15.25,0,30.5.14,45.74.05,4.93-1.9,7.85-6.48,9.71-16.14,6.53-32.61,11.82-49.94,14-21.62,2.76-41.84-3.14-61.88-10.08-3.65-1.27-7.19-2.85-10.82-4.19-4.16-1.54-6-4.41-6-8.88.1-15.49,0-31,.11-46.49,0-2.66-.82-3.89-3.25-4.93C108.68,131.57,96.14,126,83.56,120.5,82.44,120,81.29,119.58,79.5,118.86Zm11.61-11.7c1.38.74,2.09,1.18,2.84,1.51q47.83,20.94,95.71,41.78a7.28,7.28,0,0,0,5.17-.2q38.47-16.63,76.85-33.51c6.91-3,13.8-6.09,21.33-9.42-1.53-.76-2.37-1.21-3.23-1.59q-47.65-20.9-95.35-41.68a7.28,7.28,0,0,0-5.17.2q-46.18,20-92.28,40.28C95.22,105.3,93.46,106.11,91.11,107.16Zm153.39,38c-1.64.64-2.78,1-3.9,1.53C226.32,153,212,159.1,197.8,165.49a12.77,12.77,0,0,1-11.4.08c-14.19-6.43-28.51-12.56-42.79-18.8-1.21-.53-2.45-1-4.1-1.65,0,13-.06,25.47.1,37.93,0,.89,1.42,2.21,2.44,2.58,6.33,2.27,12.68,4.54,19.13,6.41,12,3.48,24.23,6.14,36.88,4.94,15.26-1.45,29.8-5.89,44-11.38a4.27,4.27,0,0,0,2.31-3.06C244.56,170.31,244.5,158.08,244.5,145.19Zm-165,51.9c0-7.78.11-15.14,0-22.5a7.37,7.37,0,0,0-7.11-7.31c-3.71-.17-7.48,2.53-7.63,6.29-.3,7.81-.09,15.63-.09,23.52Z"/><path class="cls-1" d="M314.62,152.25c10.11,0,20.22,0,30.32,0,5.51,0,8.92,2.8,9,7.3s-3.4,7.68-9,7.68q-30.69,0-61.38,0c-5.64,0-9.14-3-9-7.68s3.52-7.29,9-7.3C293.92,152.23,304.27,152.25,314.62,152.25Z"/><path class="cls-1" d="M314.3,182.25c10.23,0,20.46,0,30.69,0,5.48,0,8.9,2.84,9,7.35s-3.42,7.63-9.08,7.63q-30.69,0-61.38,0c-5.5,0-8.89-2.83-9-7.36s3.4-7.61,9.08-7.62C293.84,182.23,304.07,182.25,314.3,182.25Z"/><path class="cls-1" d="M192,334.47a7.47,7.47,0,1,1,7.44-7.32A7.54,7.54,0,0,1,192,334.47Z"/></g></g></svg>