<svg xmlns="http://www.w3.org/2000/svg" id="vet-uslugi" viewBox="0 0 383.12 383.15"><defs><style>.cls-1{fill:#323D5B;}</style></defs><title>Ресурс 1</title><g id="Слой_2" data-name="Слой 2"><g id="Слой_1-2" data-name="Слой 1"><path class="cls-1" d="M0,169.85c1.17-1.66,1.17-3.67,1.69-5.53a45.15,45.15,0,0,1,42.62-32.61c14-.09,27.92-.05,41.88,0,9,0,15.65,6.57,15.57,15.11-.08,8.38-6.72,14.76-15.53,14.79-13.34,0-26.68,0-40,0-10.13,0-16.27,6.15-16.29,16.28q0,13.83,0,27.67c0,9.62,6.28,15.88,15.92,15.9,17.94,0,35.89,0,53.84,0,9.47,0,16.19,6.13,16.28,14.79.08,8.82-6.7,15.12-16.33,15.13H46.56C23.29,251.4,5.9,237.48.77,214.79c-.13-.59,0-1.26-.77-1.54Z"/><path class="cls-1" d="M212.5,0c7.44,1.91,14.72,4.14,20.91,9,11.47,9,17.69,20.75,18,35.33.25,14,.09,27.91,0,41.87,0,9-6.58,15.66-15.12,15.57-8.37-.09-14.75-6.73-14.78-15.53-.05-13.34,0-26.67,0-40,0-10.13-6.16-16.27-16.28-16.29q-13.83,0-27.67,0c-9.64,0-15.88,6.26-15.9,15.91,0,13.21,0,26.42,0,39.63,0,9.61-6.35,16.39-15.17,16.28-8.62-.1-14.74-6.85-14.75-16.31q0-19.64,0-39.26c0-23.47,14.93-41.31,38.09-45.6.3,0,.55-.39.82-.59Z"/><path class="cls-1" d="M309.72,251.41H280.91c-10,0-16.82-6.11-16.77-15s6.83-14.87,16.95-14.87h55.74c10.13,0,16.32-6.17,16.34-16.24q0-13.85,0-27.69c0-9.64-6.27-15.9-15.9-15.92-13.72,0-27.44,0-41.15,0-9.45,0-16.2-6.18-16.27-14.82-.07-8.82,6.69-15.09,16.34-15.1q20.76,0,41.52,0a45,45,0,0,1,45.39,45.23q0,14.59,0,29.18a45,45,0,0,1-45.33,45.3C328.42,251.45,319.07,251.41,309.72,251.41Z"/><path class="cls-1" d="M131.69,317.76c0-7.23,0-14.46,0-21.69,0-9.44,6.2-16.17,14.86-16.22,8.83-.05,15.05,6.7,15.06,16.39,0,13.59,0,27.18,0,40.78,0,9.89,6.21,16.12,16.05,16.15q14,0,28.06,0c9.36,0,15.7-6.36,15.73-15.72.05-13.84,0-27.68,0-41.52,0-9.37,6.32-16.1,15-16.08s14.9,6.74,14.92,16.16c0,14.09.05,28.18,0,42.27a45,45,0,0,1-44.67,44.81q-15.15.12-30.3,0a45,45,0,0,1-44.73-44.75C131.67,331.48,131.69,324.62,131.69,317.76Z"/><path class="cls-1" d="M190.7,258.86c-9.5.23-18.93-.27-28.11-3-10.32-3.06-16-9.51-15.92-18.19a26,26,0,0,1,2-8.69A108.41,108.41,0,0,1,170,192.93c13.84-15.33,27.76-15.42,41.55-.11a101,101,0,0,1,22.63,40.3c2.44,8.61-.89,15.75-8.82,20.08-7.74,4.23-16.33,5-24.91,5.62C197.19,259,193.94,258.86,190.7,258.86Z"/><path class="cls-1" d="M184.82,145.93a19.6,19.6,0,0,1-1,7c-2,6.18-5.61,11-12.3,12.19s-11.88-1.95-15.79-7.11a24.19,24.19,0,0,1-4.87-19.65c1.32-7.05,5.54-11.63,12.63-13s12.75,1,17.08,6.63C183.67,136.06,184.73,140.86,184.82,145.93Z"/><path class="cls-1" d="M234.2,144.44c-.36,6.46-2.83,13.31-9.19,18.22-7.67,5.92-17.25,4.17-22-4.23-4.69-8.23-4.46-16.7.46-24.77,4.11-6.76,11.93-9.45,19.48-7.18C229.86,128.56,234.2,135,234.2,144.44Z"/><path class="cls-1" d="M263.38,184c-.49,6.79-3.22,13.75-10.47,18.16-5,3.06-10.2,3-15.08-.35-11-7.62-9.41-28,2.51-33.95C251.48,162.27,263.41,170,263.38,184Z"/><path class="cls-1" d="M121.22,183.81c0-9.18,4.22-15.11,11.17-17a16,16,0,0,1,18.8,7.76c4.15,7.53,4.2,15.28-.24,22.71s-13.15,9.23-20.31,4.22C124.1,196.89,121.6,190.2,121.22,183.81Z"/></g></g></svg>