<svg id="website" enable-background="new 0 0 512 512" viewBox="0 0 512 512" xmlns="http://www.w3.org/2000/svg" fill="#323D5B"><g><g><g><path d="m487.287 102.514c4.138 0 7.492-3.354 7.492-7.492v-80.044c0-8.259-6.719-14.978-14.977-14.978h-447.604c-8.258 0-14.977 6.719-14.977 14.978v482.045c0 8.258 6.719 14.977 14.977 14.977h447.604c8.258 0 14.977-6.719 14.977-14.977v-367.508c0-4.138-3.354-7.492-7.492-7.492s-7.492 3.354-7.492 7.492l.008 367.5-447.597.008v-422.331h447.589v20.33c-.001 4.138 3.353 7.492 7.492 7.492zm-455.082-42.807-.007-44.722 447.597-.007v44.729z"/><path d="m69.017 29.854c-4.138 0-7.492 3.354-7.492 7.492s3.354 7.492 7.492 7.492 7.492-3.354 7.492-7.492-3.354-7.492-7.492-7.492z"/><path d="m107.693 29.854c-4.138 0-7.492 3.354-7.492 7.492s3.354 7.492 7.492 7.492 7.492-3.354 7.492-7.492-3.354-7.492-7.492-7.492z"/><path d="m146.369 29.854c-4.138 0-7.492 3.354-7.492 7.492s3.354 7.492 7.492 7.492 7.492-3.354 7.492-7.492-3.354-7.492-7.492-7.492z"/><path d="m163.949 264.308c1.281 3.606 4.701 6.02 8.525 6.02.021 0 .04-.001.061-.001 3.848-.025 7.265-2.49 8.504-6.132.105-.311 13.72-68.607 13.72-68.607.808-4.058-1.827-8.003-5.886-8.81-4.061-.814-8.004 1.827-8.81 5.885l-8.836 44.394-13.944-45.263c-1.219-3.955-5.411-6.171-9.366-4.955-2.713.836-4.607 3.071-5.137 5.669l-13.79 44.552-8.806-44.514c-.803-4.06-4.743-6.7-8.804-5.896-4.059.803-6.699 4.744-5.896 8.804 0 0 13.579 68.511 13.701 68.855 1.28 3.606 4.701 6.02 8.524 6.02.021 0 .04-.001.061-.001 3.848-.025 7.265-2.49 8.504-6.132.022-.065.044-.132.064-.197l13.787-44.541 13.725 44.55c.031.1.064.2.099.3z"/><path d="m233.587 270.328c.021 0 .04-.001.061-.001 3.848-.025 7.265-2.49 8.504-6.132.022-.065.044-.132.064-.197l13.787-44.541 13.725 44.55c.031.1.064.201.099.301 1.281 3.606 4.701 6.02 8.525 6.02.021 0 .04-.001.061-.001 3.848-.025 7.265-2.49 8.504-6.132.105-.311 13.72-68.607 13.72-68.607.808-4.058-1.827-8.003-5.886-8.81-4.06-.814-8.004 1.827-8.81 5.885l-8.836 44.394-13.944-45.263c-1.219-3.955-5.412-6.171-9.366-4.955-2.713.836-4.608 3.072-5.137 5.67l-13.79 44.551-8.806-44.514c-.804-4.06-4.743-6.7-8.804-5.896-4.059.803-6.699 4.744-5.896 8.804 0 0 13.579 68.511 13.701 68.855 1.28 3.606 4.701 6.019 8.524 6.019z"/><path d="m339.465 270.328c.021 0 .04-.001.061-.001 3.848-.025 7.265-2.49 8.504-6.132.022-.065.044-.132.064-.197l13.787-44.541 13.725 44.55c.031.1.064.201.099.301 1.281 3.606 4.701 6.02 8.525 6.02.021 0 .04-.001.061-.001 3.848-.025 7.265-2.49 8.504-6.132.105-.311 13.72-68.607 13.72-68.607.808-4.058-1.827-8.003-5.886-8.81-4.059-.814-8.003 1.827-8.81 5.885l-8.836 44.394-13.944-45.263c-1.219-3.955-5.411-6.171-9.366-4.955-2.713.836-4.608 3.072-5.137 5.67l-13.79 44.551-8.806-44.514c-.804-4.06-4.743-6.7-8.804-5.896-4.059.803-6.699 4.744-5.896 8.804 0 0 13.579 68.511 13.701 68.855 1.279 3.606 4.701 6.019 8.524 6.019z"/><path d="m457.168 293.911v-130.986c0-10.701-8.706-19.407-19.407-19.407h-363.522c-10.701 0-19.407 8.706-19.407 19.407v130.986c0 10.701 8.706 19.407 19.407 19.407h50.039c4.138 0 7.492-3.354 7.492-7.492s-3.354-7.492-7.492-7.492h-50.039c-2.439 0-4.422-1.984-4.422-4.422v-130.987c0-2.438 1.983-4.422 4.422-4.422h363.522c2.439 0 4.422 1.984 4.422 4.422v130.986c0 2.438-1.983 4.422-4.422 4.422h-27.374c-4.316-4.398-10.153-7.345-16.759-7.92l-86.223-7.498c-7.898-.694-15.639 2.135-21.245 7.74-2.255 2.255-4.05 4.86-5.356 7.678h-121.85c-4.138 0-7.492 3.354-7.492 7.492s3.354 7.492 7.492 7.492h119.591l7.375 84.804c.544 6.263 3.291 12.159 7.731 16.599 5.609 5.611 13.366 8.44 21.252 7.746 14.704-1.278 25.625-14.28 24.347-28.983l-1.132-13.02 39.888 39.89c5.055 5.054 11.777 7.839 18.927 7.839 7.149 0 13.871-2.784 18.926-7.839 5.055-5.056 7.84-11.778 7.84-18.927s-2.784-13.871-7.84-18.927l-39.889-39.888 13.02 1.132c14.717 1.28 27.705-9.645 28.983-24.347.18-2.07.11-4.104-.17-6.079h19.957c10.702.001 19.408-8.705 19.408-19.406zm-54.122 24.188c-.273 3.135-1.75 5.976-4.159 8-2.41 2.024-5.462 2.994-8.599 2.716l-33.511-2.914c-3.124-.285-6.11 1.444-7.44 4.299-1.331 2.854-.734 6.236 1.493 8.463l54.433 54.433c2.226 2.225 3.452 5.184 3.452 8.331 0 3.146-1.225 6.105-3.452 8.33-4.592 4.594-12.066 4.594-16.66 0l-54.433-54.434c-1.437-1.436-3.354-2.194-5.3-2.194-1.07 0-2.15.229-3.163.701-2.854 1.33-4.573 4.303-4.299 7.44l2.914 33.511c.563 6.472-4.245 12.195-10.718 12.758-3.471.31-6.887-.941-9.357-3.414-1.981-1.98-3.156-4.505-3.4-7.302l-7.498-86.222c-.302-3.476.94-6.885 3.407-9.351 2.467-2.468 5.878-3.703 9.351-3.408l86.222 7.498c6.472.564 11.28 6.288 10.717 12.759z"/></g></g></g></svg>