<svg id="windows" viewBox="0 0 48 47" fill="none" xmlns="http://www.w3.org/2000/svg">
<path d="M22.0551 5.52075H10.4225C9.71706 5.52075 9.1431 6.09732 9.1431 6.806V21.4006C9.1431 22.1093 9.71706 22.6858 10.4225 22.6858H22.0551C22.7605 22.6858 23.3345 22.1093 23.3345 21.4006V6.806C23.3345 6.09732 22.7605 5.52075 22.0551 5.52075ZM22.0028 21.348H10.4748V6.8585H22.0028V21.348Z" fill="#323D5B"/>
<path d="M22.0551 24.2012H10.4225C9.71706 24.2012 9.1431 24.7778 9.1431 25.4865V40.081C9.1431 40.7897 9.71706 41.3662 10.4225 41.3662H22.0551C22.7605 41.3662 23.3345 40.7897 23.3345 40.081V25.4865C23.3345 24.7778 22.7605 24.2012 22.0551 24.2012ZM22.0028 40.0286H10.4748V25.5391H22.0028V40.0286Z" fill="#323D5B"/>
<path d="M37.5773 5.52075H25.9448C25.2393 5.52075 24.6653 6.09732 24.6653 6.806V21.4006C24.6653 22.1093 25.2393 22.6858 25.9448 22.6858H37.5773C38.2828 22.6858 38.8568 22.1093 38.8568 21.4006V6.806C38.8567 6.09732 38.2828 5.52075 37.5773 5.52075ZM37.525 21.348H25.997V6.8585H37.525V21.348Z" fill="#323D5B"/>
<path d="M37.5773 24.2012H25.9448C25.2393 24.2012 24.6653 24.7778 24.6653 25.4865V40.081C24.6653 40.7897 25.2393 41.3662 25.9448 41.3662H37.5773C38.2828 41.3662 38.8568 40.7897 38.8568 40.081V25.4865C38.8567 24.7778 38.2828 24.2012 37.5773 24.2012ZM37.525 40.0286H25.997V25.5391H37.525V40.0286Z" fill="#323D5B"/>
<path d="M45.7046 42.1897H44.3525V10.1057C44.3525 9.73636 44.0544 9.43682 43.6866 9.43682C43.3188 9.43682 43.0207 9.73626 43.0207 10.1057V42.1897H41.4316V4.37606C41.4316 3.58092 40.7877 2.93402 39.9961 2.93402H8.00361C7.21207 2.93402 6.56812 3.58092 6.56812 4.37606V42.1897H4.97903V35.5948C4.97903 35.2254 4.68095 34.9259 4.31314 34.9259C3.94534 34.9259 3.64726 35.2253 3.64726 35.5948V42.1897H2.2952C1.55932 42.1897 0.960693 42.7911 0.960693 43.5303V45.6594C0.960693 46.3986 1.55941 47 2.2952 47H45.7046C46.4405 47 47.0391 46.3985 47.0391 45.6594V43.5303C47.0391 42.791 46.4405 42.1897 45.7046 42.1897ZM7.8998 4.37606C7.8998 4.3186 7.94631 4.27178 8.00361 4.27178H39.9962C40.0534 4.27178 40.1 4.31851 40.1 4.37606V42.1897H7.8998V4.37606ZM45.7059 45.6622L45.7046 45.6623L2.29237 45.6594L2.2952 43.5274L45.7075 43.5303L45.7059 45.6622Z" fill="#323D5B"/>
<path d="M43.0961 0H4.90372C4.21097 0 3.64734 0.566111 3.64734 1.26211V32.4194C3.64734 32.7887 3.94542 33.0883 4.31323 33.0883C4.68094 33.0883 4.97911 32.7888 4.97911 32.4193V1.33776H43.0209V6.92286C43.0209 7.29225 43.319 7.59178 43.6868 7.59178C44.0546 7.59178 44.3526 7.29234 44.3526 6.92286V1.26211C44.3525 0.566111 43.7888 0 43.0961 0Z" fill="#323D5B"/>
</svg>
