<svg width="2433" height="2433" viewBox="0 0 2433 2433" fill="none" xmlns="http://www.w3.org/2000/svg">
<g opacity="0.8">
<g opacity="0.1" filter="url(#filter0_i_1_428)">
<path d="M2433 1216.5C2433 1888.35 1888.35 2433 1216.5 2433C544.646 2433 0 1888.35 0 1216.5C0 544.646 544.646 0 1216.5 0C1888.35 0 2433 544.646 2433 1216.5Z" fill="white"/>
</g>
<g opacity="0.15" filter="url(#filter1_i_1_428)">
<path d="M2180 1216.5C2180 1748.63 1748.63 2180 1216.5 2180C684.374 2180 253 1748.63 253 1216.5C253 684.374 684.374 253 1216.5 253C1748.63 253 2180 684.374 2180 1216.5Z" fill="white"/>
</g>
<g opacity="0.2" filter="url(#filter2_i_1_428)">
<path d="M1953 1216.5C1953 1623.26 1623.26 1953 1216.5 1953C809.742 1953 480 1623.26 480 1216.5C480 809.742 809.742 480 1216.5 480C1623.26 480 1953 809.742 1953 1216.5Z" fill="white"/>
</g>
<g opacity="0.25" filter="url(#filter3_i_1_428)">
<path d="M1763 1216.5C1763 1518.32 1518.32 1763 1216.5 1763C914.676 1763 670 1518.32 670 1216.5C670 914.676 914.676 670 1216.5 670C1518.32 670 1763 914.676 1763 1216.5Z" fill="white"/>
</g>
<g opacity="0.3" filter="url(#filter4_i_1_428)">
<path d="M1609 1216.5C1609 1433.27 1433.27 1609 1216.5 1609C999.728 1609 824 1433.27 824 1216.5C824 999.728 999.728 824 1216.5 824C1433.27 824 1609 999.728 1609 1216.5Z" fill="white"/>
</g>
<g opacity="0.3" filter="url(#filter5_i_1_428)">
<circle cx="1216.5" cy="1216.5" r="237.5" fill="white"/>
</g>
</g>
<defs>
<filter id="filter0_i_1_428" x="0" y="0" width="2433" height="2433" filterUnits="userSpaceOnUse" color-interpolation-filters="sRGB">
<feFlood flood-opacity="0" result="BackgroundImageFix"/>
<feBlend mode="normal" in="SourceGraphic" in2="BackgroundImageFix" result="shape"/>
<feColorMatrix in="SourceAlpha" type="matrix" values="0 0 0 0 0 0 0 0 0 0 0 0 0 0 0 0 0 0 127 0" result="hardAlpha"/>
<feOffset/>
<feGaussianBlur stdDeviation="23.2"/>
<feComposite in2="hardAlpha" operator="arithmetic" k2="-1" k3="1"/>
<feColorMatrix type="matrix" values="0 0 0 0 0.490196 0 0 0 0 0.0705882 0 0 0 0 0.984314 0 0 0 0.48 0"/>
<feBlend mode="normal" in2="shape" result="effect1_innerShadow_1_428"/>
</filter>
<filter id="filter1_i_1_428" x="253" y="253" width="1927" height="1927" filterUnits="userSpaceOnUse" color-interpolation-filters="sRGB">
<feFlood flood-opacity="0" result="BackgroundImageFix"/>
<feBlend mode="normal" in="SourceGraphic" in2="BackgroundImageFix" result="shape"/>
<feColorMatrix in="SourceAlpha" type="matrix" values="0 0 0 0 0 0 0 0 0 0 0 0 0 0 0 0 0 0 127 0" result="hardAlpha"/>
<feOffset/>
<feGaussianBlur stdDeviation="23.2"/>
<feComposite in2="hardAlpha" operator="arithmetic" k2="-1" k3="1"/>
<feColorMatrix type="matrix" values="0 0 0 0 0.490196 0 0 0 0 0.0705882 0 0 0 0 0.984314 0 0 0 0.48 0"/>
<feBlend mode="normal" in2="shape" result="effect1_innerShadow_1_428"/>
</filter>
<filter id="filter2_i_1_428" x="480" y="480" width="1473" height="1473" filterUnits="userSpaceOnUse" color-interpolation-filters="sRGB">
<feFlood flood-opacity="0" result="BackgroundImageFix"/>
<feBlend mode="normal" in="SourceGraphic" in2="BackgroundImageFix" result="shape"/>
<feColorMatrix in="SourceAlpha" type="matrix" values="0 0 0 0 0 0 0 0 0 0 0 0 0 0 0 0 0 0 127 0" result="hardAlpha"/>
<feOffset/>
<feGaussianBlur stdDeviation="23.2"/>
<feComposite in2="hardAlpha" operator="arithmetic" k2="-1" k3="1"/>
<feColorMatrix type="matrix" values="0 0 0 0 0.490196 0 0 0 0 0.0705882 0 0 0 0 0.984314 0 0 0 0.48 0"/>
<feBlend mode="normal" in2="shape" result="effect1_innerShadow_1_428"/>
</filter>
<filter id="filter3_i_1_428" x="670" y="670" width="1093" height="1093" filterUnits="userSpaceOnUse" color-interpolation-filters="sRGB">
<feFlood flood-opacity="0" result="BackgroundImageFix"/>
<feBlend mode="normal" in="SourceGraphic" in2="BackgroundImageFix" result="shape"/>
<feColorMatrix in="SourceAlpha" type="matrix" values="0 0 0 0 0 0 0 0 0 0 0 0 0 0 0 0 0 0 127 0" result="hardAlpha"/>
<feOffset/>
<feGaussianBlur stdDeviation="23.2"/>
<feComposite in2="hardAlpha" operator="arithmetic" k2="-1" k3="1"/>
<feColorMatrix type="matrix" values="0 0 0 0 0.490196 0 0 0 0 0.0705882 0 0 0 0 0.984314 0 0 0 0.48 0"/>
<feBlend mode="normal" in2="shape" result="effect1_innerShadow_1_428"/>
</filter>
<filter id="filter4_i_1_428" x="824" y="824" width="785" height="785" filterUnits="userSpaceOnUse" color-interpolation-filters="sRGB">
<feFlood flood-opacity="0" result="BackgroundImageFix"/>
<feBlend mode="normal" in="SourceGraphic" in2="BackgroundImageFix" result="shape"/>
<feColorMatrix in="SourceAlpha" type="matrix" values="0 0 0 0 0 0 0 0 0 0 0 0 0 0 0 0 0 0 127 0" result="hardAlpha"/>
<feOffset/>
<feGaussianBlur stdDeviation="23.2"/>
<feComposite in2="hardAlpha" operator="arithmetic" k2="-1" k3="1"/>
<feColorMatrix type="matrix" values="0 0 0 0 0.490196 0 0 0 0 0.0705882 0 0 0 0 0.984314 0 0 0 0.48 0"/>
<feBlend mode="normal" in2="shape" result="effect1_innerShadow_1_428"/>
</filter>
<filter id="filter5_i_1_428" x="979" y="979" width="475" height="475" filterUnits="userSpaceOnUse" color-interpolation-filters="sRGB">
<feFlood flood-opacity="0" result="BackgroundImageFix"/>
<feBlend mode="normal" in="SourceGraphic" in2="BackgroundImageFix" result="shape"/>
<feColorMatrix in="SourceAlpha" type="matrix" values="0 0 0 0 0 0 0 0 0 0 0 0 0 0 0 0 0 0 127 0" result="hardAlpha"/>
<feOffset/>
<feGaussianBlur stdDeviation="23.2"/>
<feComposite in2="hardAlpha" operator="arithmetic" k2="-1" k3="1"/>
<feColorMatrix type="matrix" values="0 0 0 0 0.490196 0 0 0 0 0.0705882 0 0 0 0 0.984314 0 0 0 0.48 0"/>
<feBlend mode="normal" in2="shape" result="effect1_innerShadow_1_428"/>
</filter>
</defs>
</svg>
