<svg width="178" height="93" viewBox="0 0 178 93" fill="none" xmlns="http://www.w3.org/2000/svg">
<g opacity="0.38" filter="url(#filter0_f_2_1695)">
<ellipse cx="90" cy="86.6323" rx="31" ry="1" fill="black"/>
</g>
<g filter="url(#filter1_bi_2_1695)">
<mask id="path-2-inside-1_2_1695" fill="white">
<path fill-rule="evenodd" clip-rule="evenodd" d="M15.8192 -1.22404e-07C7.0825 -5.48022e-08 5.48022e-08 7.0825 1.22404e-07 15.8192L3.65071e-07 47.1808C4.32673e-07 55.9175 7.08251 63 15.8192 63L64.0559 63C69.4261 63 74.5764 65.1333 78.3738 68.9307L85.868 76.4249C87.5977 78.1546 90.4023 78.1546 92.132 76.4249L99.6262 68.9307C103.424 65.1333 108.574 63 113.944 63L162.181 63C170.917 63 178 55.9175 178 47.1808L178 15.8192C178 7.0825 170.917 -1.32251e-06 162.181 -1.25491e-06L15.8192 -1.22404e-07Z"/>
</mask>
<path fill-rule="evenodd" clip-rule="evenodd" d="M15.8192 -1.22404e-07C7.0825 -5.48022e-08 5.48022e-08 7.0825 1.22404e-07 15.8192L3.65071e-07 47.1808C4.32673e-07 55.9175 7.08251 63 15.8192 63L64.0559 63C69.4261 63 74.5764 65.1333 78.3738 68.9307L85.868 76.4249C87.5977 78.1546 90.4023 78.1546 92.132 76.4249L99.6262 68.9307C103.424 65.1333 108.574 63 113.944 63L162.181 63C170.917 63 178 55.9175 178 47.1808L178 15.8192C178 7.0825 170.917 -1.32251e-06 162.181 -1.25491e-06L15.8192 -1.22404e-07Z" fill="#EC74FF" fill-opacity="0.8"/>
<path d="M15.8192 63L15.8192 62L15.8192 63ZM85.868 76.4249L86.5751 75.7178L86.5751 75.7178L85.868 76.4249ZM92.132 76.4249L92.8391 77.132L92.8391 77.132L92.132 76.4249ZM162.181 63L162.181 62L162.181 63ZM99.6262 68.9307L100.333 69.6378L99.6262 68.9307ZM1 15.8192C1 7.63479 7.63479 1 15.8192 1L15.8192 -1C6.53022 -1 -1 6.53022 -1 15.8192L1 15.8192ZM1 47.1808L1 15.8192L-1 15.8192L-1 47.1808L1 47.1808ZM15.8192 62C7.63479 62 1 55.3652 1 47.1808L-1 47.1808C-1 56.4698 6.53023 64 15.8192 64L15.8192 62ZM64.0559 62L15.8192 62L15.8192 64L64.0559 64L64.0559 62ZM86.5751 75.7178L79.0809 68.2236L77.6667 69.6378L85.1609 77.132L86.5751 75.7178ZM91.4249 75.7178C90.0857 77.057 87.9143 77.057 86.5751 75.7178L85.1609 77.132C87.2812 79.2523 90.7188 79.2523 92.8391 77.132L91.4249 75.7178ZM98.9191 68.2236L91.4249 75.7178L92.8391 77.132L100.333 69.6378L98.9191 68.2236ZM162.181 62L113.944 62L113.944 64L162.181 64L162.181 62ZM177 47.1808C177 55.3652 170.365 62 162.181 62L162.181 64C171.47 64 179 56.4698 179 47.1808L177 47.1808ZM177 15.8192L177 47.1808L179 47.1808L179 15.8192L177 15.8192ZM162.181 0.999999C170.365 0.999999 177 7.63479 177 15.8192L179 15.8192C179 6.53022 171.47 -1 162.181 -1L162.181 0.999999ZM15.8192 1L162.181 0.999999L162.181 -1L15.8192 -1L15.8192 1ZM100.333 69.6378C103.943 66.028 108.839 64 113.944 64L113.944 62C108.309 62 102.904 64.2387 98.9191 68.2236L100.333 69.6378ZM64.0559 64C69.1609 64 74.0569 66.028 77.6667 69.6378L79.0809 68.2236C75.096 64.2387 69.6913 62 64.0559 62L64.0559 64Z" fill="#FEFBFF" fill-opacity="0.27" mask="url(#path-2-inside-1_2_1695)"/>
</g>
<defs>
<filter id="filter0_f_2_1695" x="53.7" y="80.3323" width="72.6" height="12.6" filterUnits="userSpaceOnUse" color-interpolation-filters="sRGB">
<feFlood flood-opacity="0" result="BackgroundImageFix"/>
<feBlend mode="normal" in="SourceGraphic" in2="BackgroundImageFix" result="shape"/>
<feGaussianBlur stdDeviation="2.65" result="effect1_foregroundBlur_2_1695"/>
</filter>
<filter id="filter1_bi_2_1695" x="-11" y="-11" width="200" height="99.7222" filterUnits="userSpaceOnUse" color-interpolation-filters="sRGB">
<feFlood flood-opacity="0" result="BackgroundImageFix"/>
<feGaussianBlur in="BackgroundImageFix" stdDeviation="5.5"/>
<feComposite in2="SourceAlpha" operator="in" result="effect1_backgroundBlur_2_1695"/>
<feBlend mode="normal" in="SourceGraphic" in2="effect1_backgroundBlur_2_1695" result="shape"/>
<feColorMatrix in="SourceAlpha" type="matrix" values="0 0 0 0 0 0 0 0 0 0 0 0 0 0 0 0 0 0 127 0" result="hardAlpha"/>
<feOffset/>
<feGaussianBlur stdDeviation="9"/>
<feComposite in2="hardAlpha" operator="arithmetic" k2="-1" k3="1"/>
<feColorMatrix type="matrix" values="0 0 0 0 1 0 0 0 0 1 0 0 0 0 1 0 0 0 0.46 0"/>
<feBlend mode="normal" in2="shape" result="effect2_innerShadow_2_1695"/>
</filter>
</defs>
</svg>
